<svg width="247" height="237" viewBox="0 0 247 237" fill="none" xmlns="http://www.w3.org/2000/svg">
<g filter="url(#filter0_d_26_129)">
<path d="M123.4 109.64C123.05 109.64 122.69 109.59 122.36 109.5C91.6399 101.07 63.63 77.36 57.12 68.9C53.64 64.21 49.3999 54.77 52.7499 49.3C54.9599 45.7 59.8399 44.52 67.2699 45.78C93.5699 48.59 99.5399 30.32 99.7799 29.54C99.7799 29.51 99.7999 29.48 99.8099 29.45C102.64 22.49 106.34 20.99 109 20.99C109.05 20.99 109.1 20.99 109.14 20.99C113.25 21.07 116.77 24.73 117.99 28.14C118.2 28.71 118.58 29.64 119.07 30.81C120.13 33.34 121.75 37.22 123.39 41.98C125.03 37.21 126.65 33.34 127.71 30.81C128.2 29.64 128.59 28.71 128.79 28.14C130.02 24.74 133.53 21.08 137.64 20.99C140.31 20.96 144.09 22.36 146.97 29.45C146.98 29.48 146.99 29.51 147 29.55C147.24 30.33 153.21 48.6 179.58 45.78C186.94 44.53 191.83 45.72 194.04 49.31C197.4 54.78 193.15 64.23 189.68 68.9C183.16 77.38 155.15 101.09 124.43 109.52C124.09 109.61 123.74 109.66 123.38 109.66L123.4 109.64ZM61.9899 47.54C58.3199 47.54 55.88 48.52 54.69 50.47C52.09 54.7 55.6899 63.15 58.9299 67.52C65.2899 75.8 92.7599 99.02 122.96 107.3C123.25 107.38 123.56 107.38 123.85 107.3C154.04 99.02 181.52 75.79 187.89 67.5C191.12 63.14 194.72 54.7 192.12 50.47C190.45 47.74 186.33 46.91 179.91 48C152.33 50.96 145.3 31.51 144.87 30.25C142.97 25.61 140.46 23.18 137.7 23.24C134.72 23.3 131.92 26.16 130.94 28.89C130.71 29.52 130.32 30.47 129.81 31.67C128.56 34.66 126.5 39.56 124.59 45.59C128.79 59.07 132.18 77.86 125.07 93.96C124.78 94.62 124.13 95.04 123.4 95.04C122.67 95.04 122.02 94.62 121.73 93.96C114.62 77.86 118.01 59.07 122.21 45.59C120.29 39.56 118.24 34.65 116.99 31.66C116.49 30.46 116.09 29.51 115.86 28.88C114.88 26.15 112.08 23.29 109.1 23.23C106.31 23.16 103.83 25.6 101.93 30.24C101.53 31.42 95.4299 48.3 72.4799 48.3C70.7399 48.3 68.91 48.2 66.9699 47.99C65.1199 47.68 63.4599 47.52 61.9899 47.52V47.54ZM123.4 49.57C119.9 62.06 117.64 78.13 123.4 92.09C129.16 78.12 126.91 62.06 123.4 49.57Z" fill="#E6661C"/>
<path d="M120.93 7.39C120.93 10.15 121.85 12.71 123.41 14.78C124.97 12.7 125.88 10.15 125.88 7.39C125.88 4.63 124.96 2.07 123.41 0C121.85 2.08 120.93 4.63 120.93 7.39Z" fill="#E6661C"/>
<path d="M109 210.33C106.34 210.33 102.65 208.83 99.8099 201.87C99.7999 201.84 99.7899 201.81 99.7799 201.77C99.5399 200.99 93.5699 182.72 67.1999 185.54C59.8399 186.79 54.9499 185.6 52.7399 182.01C49.3799 176.54 53.6299 167.09 57.0899 162.42C63.6099 153.94 91.6299 130.23 122.34 121.8C123.02 121.61 123.75 121.61 124.43 121.8C155.14 130.22 183.16 153.94 189.67 162.4C193.15 167.09 197.39 176.53 194.04 182C191.83 185.6 186.95 186.79 179.52 185.52C153.22 182.71 147.25 200.98 147.01 201.76C147.01 201.79 146.99 201.82 146.98 201.85C144.1 208.94 140.33 210.37 137.65 210.31C133.54 210.23 130.02 206.57 128.8 203.16C128.59 202.58 128.21 201.66 127.71 200.49C126.65 197.96 125.03 194.09 123.39 189.32C121.75 194.09 120.13 197.96 119.07 200.49C118.58 201.66 118.19 202.59 117.99 203.16C116.76 206.56 113.25 210.22 109.14 210.31C109.09 210.31 109.04 210.31 109 210.31V210.33ZM101.94 201.05C103.81 205.64 106.26 208.06 109.01 208.06C109.04 208.06 109.07 208.06 109.11 208.06C112.09 208 114.89 205.14 115.87 202.41C116.1 201.78 116.49 200.83 117 199.63C118.25 196.64 120.31 191.74 122.22 185.7C118.02 172.22 114.63 153.43 121.74 137.33C122.03 136.67 122.68 136.25 123.41 136.25C124.14 136.25 124.79 136.67 125.08 137.33C132.19 153.43 128.8 172.22 124.6 185.7C126.52 191.73 128.57 196.64 129.82 199.62C130.32 200.82 130.72 201.77 130.95 202.4C131.93 205.13 134.73 207.99 137.71 208.05C137.74 208.05 137.77 208.05 137.81 208.05C140.57 208.05 143.01 205.63 144.88 201.04C145.3 199.77 152.32 180.32 179.85 183.28C186.35 184.38 190.45 183.55 192.13 180.82C194.73 176.59 191.13 168.14 187.89 163.77C181.53 155.49 154.05 132.27 123.86 123.99C123.57 123.91 123.26 123.91 122.97 123.99C92.7799 132.27 65.2999 155.5 58.9299 163.79C55.6999 168.15 52.0999 176.59 54.6999 180.82C56.3699 183.55 60.4799 184.38 66.9099 183.29C94.4899 180.33 101.52 199.77 101.95 201.04L101.94 201.05ZM123.4 139.21C117.64 153.17 119.9 169.24 123.4 181.73C126.91 169.24 129.16 153.17 123.4 139.21Z" fill="#E6661C"/>
<path d="M125.88 223.91C125.88 221.15 124.96 218.59 123.41 216.52C121.85 218.6 120.93 221.15 120.93 223.91C120.93 226.67 121.85 229.23 123.41 231.3C124.97 229.22 125.88 226.67 125.88 223.91Z" fill="#E6661C"/>
<path d="M60.3999 185.83C58.4799 185.83 56.6899 185.44 55.2099 184.5C51.6999 182.27 50.5599 177.53 51.8299 170.42C54.7199 144.79 35.9799 138.97 35.1799 138.74C35.1499 138.74 35.1199 138.72 35.0899 138.71C27.8399 135.9 26.3699 132.2 26.4199 129.58C26.4999 125.55 30.2499 122.1 33.7399 120.9C34.3299 120.7 35.2799 120.32 36.4799 119.84C39.0599 118.81 42.9899 117.24 47.8299 115.66C42.9899 114.07 39.0599 112.5 36.4799 111.48C35.2799 111 34.3299 110.62 33.7399 110.42C30.2499 109.22 26.4999 105.77 26.4199 101.74C26.3699 99.13 27.8299 95.42 35.0899 92.61C35.1199 92.6 35.1499 92.59 35.1799 92.58C35.9799 92.35 54.7099 86.53 51.8099 60.83C50.5499 53.79 51.6899 49.05 55.1999 46.82C60.7299 43.3 70.5499 47.47 75.4299 50.92C84.1199 57.28 108.42 84.63 117.06 114.62C117.16 114.96 117.21 115.31 117.21 115.66C117.21 116.01 117.16 116.36 117.07 116.7C108.43 146.69 84.1399 174.04 75.4599 180.39C71.8699 182.93 65.6499 185.84 60.3999 185.84V185.83ZM35.8799 136.57C37.1399 136.97 57.1099 143.82 54.0799 170.74C52.9799 176.93 53.7699 180.89 56.4299 182.58C60.7399 185.31 69.5399 181.78 74.1399 178.54C82.6199 172.33 106.41 145.52 114.9 116.07C114.94 115.94 114.96 115.8 114.96 115.66C114.96 115.52 114.94 115.38 114.9 115.24C106.42 85.79 82.6199 58.98 74.1299 52.76C69.5499 49.52 60.7399 45.99 56.4399 48.73C53.7799 50.42 52.9899 54.38 54.0799 60.5C57.1199 87.49 37.1499 94.34 35.8899 94.74C31.1399 96.59 28.6499 98.99 28.7099 101.69C28.7699 104.58 31.6999 107.31 34.4999 108.27C35.1399 108.49 36.1099 108.88 37.3499 109.37C40.4199 110.59 45.4499 112.6 51.6499 114.48C65.4499 110.38 84.6899 107.07 101.18 114C101.85 114.28 102.29 114.93 102.29 115.66C102.29 116.39 101.85 117.04 101.18 117.32C84.6899 124.26 65.4499 120.94 51.6499 116.84C45.4599 118.71 40.4199 120.72 37.3499 121.95C36.1199 122.44 35.1499 122.83 34.5099 123.05C31.7099 124.01 28.7799 126.73 28.7199 129.63C28.6699 132.33 31.1499 134.74 35.8999 136.58L35.8799 136.57ZM55.7899 115.65C68.5599 119.05 84.9499 121.22 99.2199 115.65C84.9499 110.08 68.5599 112.25 55.7899 115.65Z" fill="#E6661C"/>
<path d="M12.4799 118.07C15.3099 118.07 17.9299 117.17 20.0599 115.65C17.9299 114.13 15.3099 113.23 12.4799 113.23C9.6499 113.23 7.0299 114.12 4.8999 115.65C7.0299 117.17 9.6499 118.07 12.4799 118.07Z" fill="#E6661C"/>
<path d="M186.4 185.83C181.15 185.83 174.94 182.92 171.36 180.39C162.67 174.03 138.37 146.68 129.73 116.69C129.63 116.35 129.58 116 129.58 115.65C129.58 115.3 129.63 114.94 129.73 114.61C138.36 84.62 162.66 57.28 171.34 50.92C176.24 47.46 186.06 43.29 191.59 46.8C195.1 49.03 196.24 53.77 194.97 60.88C192.08 86.51 210.82 92.33 211.62 92.56C211.65 92.56 211.68 92.58 211.71 92.59C218.96 95.4 220.43 99.1 220.37 101.72C220.29 105.75 216.54 109.2 213.05 110.4C212.46 110.6 211.51 110.98 210.31 111.46C207.73 112.49 203.8 114.06 198.96 115.64C203.8 117.23 207.73 118.8 210.31 119.82C211.51 120.3 212.46 120.68 213.05 120.88C216.54 122.08 220.29 125.52 220.37 129.56C220.42 132.17 218.96 135.88 211.71 138.69C211.68 138.7 211.65 138.71 211.62 138.72C210.82 138.95 192.09 144.77 194.99 170.47C196.25 177.51 195.11 182.25 191.6 184.48C190.12 185.42 188.32 185.81 186.4 185.81V185.83ZM186.42 47.74C181.91 47.74 176.11 50.33 172.67 52.76C164.19 58.97 140.4 85.78 131.91 115.23C131.87 115.36 131.85 115.5 131.85 115.64C131.85 115.78 131.87 115.92 131.91 116.05C140.39 145.51 164.19 172.32 172.68 178.53C177.26 181.77 186.06 185.3 190.37 182.56C193.03 180.87 193.82 176.91 192.73 170.79C189.68 143.8 209.66 136.95 210.92 136.55C215.67 134.7 218.16 132.3 218.1 129.6C218.04 126.71 215.11 123.98 212.31 123.02C211.67 122.8 210.7 122.41 209.47 121.92C206.4 120.7 201.37 118.69 195.17 116.81C181.37 120.91 162.13 124.22 145.64 117.29C144.97 117.01 144.53 116.36 144.53 115.63C144.53 114.9 144.96 114.25 145.64 113.97C162.12 107.03 181.37 110.35 195.17 114.45C201.36 112.58 206.4 110.57 209.47 109.34C210.7 108.85 211.67 108.46 212.32 108.24C215.12 107.28 218.05 104.56 218.11 101.66C218.16 98.96 215.68 96.55 210.93 94.71C209.67 94.31 189.7 87.46 192.73 60.54C193.83 54.35 193.04 50.39 190.38 48.7C189.3 48.01 187.93 47.72 186.42 47.72V47.74ZM147.59 115.65C161.86 121.22 178.24 119.05 191.02 115.65C178.25 112.25 161.86 110.08 147.59 115.65Z" fill="#E6661C"/>
<path d="M234.33 113.24C231.5 113.24 228.88 114.13 226.75 115.66C228.88 117.18 231.5 118.08 234.33 118.08C237.16 118.08 239.78 117.18 241.91 115.66C239.78 114.14 237.16 113.24 234.33 113.24Z" fill="#E6661C"/>
</g>
<defs>
<filter id="filter0_d_26_129" x="-9.77516e-05" y="-4.9" width="246.81" height="241.1" filterUnits="userSpaceOnUse" color-interpolation-filters="sRGB">
<feFlood flood-opacity="0" result="BackgroundImageFix"/>
<feColorMatrix in="SourceAlpha" type="matrix" values="0 0 0 0 0 0 0 0 0 0 0 0 0 0 0 0 0 0 127 0" result="hardAlpha"/>
<feOffset/>
<feGaussianBlur stdDeviation="2.45"/>
<feComposite in2="hardAlpha" operator="out"/>
<feColorMatrix type="matrix" values="0 0 0 0 0 0 0 0 0 0 0 0 0 0 0 0 0 0 0.7 0"/>
<feBlend mode="normal" in2="BackgroundImageFix" result="effect1_dropShadow_26_129"/>
<feBlend mode="normal" in="SourceGraphic" in2="effect1_dropShadow_26_129" result="shape"/>
</filter>
</defs>
</svg>
