<svg width="72" height="72" viewBox="0 0 72 72" fill="none" xmlns="http://www.w3.org/2000/svg">
<g clip-path="url(#clip0_86_1232)">
<path d="M65.8097 64.0919L56.2777 41.0798C56.0349 40.4937 55.3628 40.2151 54.7766 40.458C54.1903 40.701 53.9118 41.373 54.1548 41.9591L62.7719 62.7627L54.9118 60.4852C54.3959 60.3355 53.8449 60.5638 53.5858 61.0346L49.6382 68.2028L40.392 45.8804C51.0638 43.8224 59.1499 34.4136 59.1499 23.1501C59.15 10.3852 48.765 0 36 0C23.2351 0 12.8499 10.3852 12.8499 23.1501C12.8499 28.3205 14.554 33.1001 17.4297 36.9578L6.19036 64.0919C6.02139 64.5001 6.1012 64.9688 6.39579 65.2979C6.69022 65.6269 7.1475 65.7581 7.57169 65.6352L16.8448 62.9481L21.5018 71.4053C21.7047 71.7734 22.0912 72 22.508 72C22.5292 72 22.5504 71.9994 22.5717 71.9983C23.0128 71.9738 23.4007 71.6988 23.5698 71.2907L32.4757 49.7898C32.7185 49.2036 32.4402 48.5315 31.8539 48.2887C31.2677 48.0459 30.5956 48.3243 30.3528 48.9105L22.3616 68.2028L18.4143 61.0346C18.1551 60.5638 17.6037 60.3355 17.0881 60.4852L9.22814 62.7627L19.0932 38.9462C23.321 43.4684 29.3356 46.3001 36 46.3001C36.688 46.3001 37.3685 46.2681 38.0413 46.2091L48.4305 71.2907C48.5994 71.6988 48.9875 71.9738 49.4284 71.9982C49.4498 71.9994 49.4709 72 49.4922 72C49.9091 72 50.2956 71.7734 50.4982 71.4053L55.1554 62.9481L64.4286 65.6352C64.8531 65.7582 65.3099 65.6269 65.6045 65.2979C65.899 64.9688 65.9787 64.5001 65.8097 64.0919ZM15.1478 23.1501C15.1478 11.6522 24.5021 2.29787 36 2.29787C47.498 2.29787 56.8522 11.6522 56.8522 23.1501C56.8522 34.6481 47.498 44.0023 36 44.0023C24.5021 44.0023 15.1478 34.6481 15.1478 23.1501Z" fill="#0049BF"/>
<path d="M49.2755 18.8366C49.1433 18.4294 48.7952 18.1295 48.3729 18.0586L40.6417 16.7612L37.0189 9.8095C36.821 9.42974 36.4284 9.19153 36 9.19153C35.5719 9.19153 35.1791 9.42974 34.9812 9.8095L31.3582 16.7612L23.6272 18.0586C23.2049 18.1293 22.857 18.4293 22.7246 18.8366C22.5923 19.244 22.6974 19.691 22.9975 19.9966L28.4894 25.5904L27.3343 33.344C27.2712 33.7676 27.4489 34.191 27.7954 34.4428C28.1416 34.6944 28.5995 34.7325 28.9828 34.5418L36 31.0472L43.0171 34.5418C43.1794 34.6225 43.3546 34.6624 43.5293 34.6624C43.7678 34.6624 44.0048 34.5882 44.2047 34.443C44.5512 34.1912 44.7289 33.7677 44.6658 33.3442L43.5109 25.5905L49.0028 19.9966C49.3027 19.691 49.4078 19.244 49.2755 18.8366ZM41.4702 24.3889C41.2177 24.6461 41.1006 25.0067 41.1537 25.363L42.0683 31.502L36.5123 28.7352C36.3509 28.655 36.1756 28.6147 36 28.6147C35.8246 28.6147 35.6491 28.6548 35.4879 28.7352L29.932 31.502L30.8465 25.363C30.8997 25.0067 30.7825 24.6459 30.53 24.3889L26.1817 19.9598L32.3028 18.9325C32.6582 18.8729 32.965 18.65 33.1315 18.3305L36 12.8265L38.8686 18.3306C39.0352 18.6502 39.3419 18.8731 39.6973 18.9327L45.8185 19.96L41.4702 24.3889Z" fill="#0049BF"/>
</g>
<defs>
<clipPath id="clip0_86_1232">
<rect width="72" height="72" fill="white"/>
</clipPath>
</defs>
</svg>
