<svg width="46" height="51" viewBox="0 0 46 51" fill="none" xmlns="http://www.w3.org/2000/svg">
<path d="M18.9687 48.9991H1.5C1.5 39.6932 8.50822 31.9947 17.625 30.7143M35.0873 36.3641C33.2066 34.3082 30.0705 33.755 27.7141 35.6379C25.358 37.5204 25.0261 40.6683 26.8767 42.8949C27.9213 44.1521 30.4035 46.3558 32.367 48.0367C33.2982 48.8339 33.7637 49.2326 34.327 49.3957C34.8072 49.5348 35.3673 49.5348 35.8476 49.3957C36.4109 49.2326 36.8763 48.8339 37.8076 48.0367C39.7711 46.3558 42.2532 44.1521 43.2979 42.8949C45.1485 40.6683 44.8571 37.5006 42.4604 35.6379C40.0635 33.7748 36.968 34.3082 35.0873 36.3641ZM31.0625 12.0554C31.0625 17.8849 26.2494 22.6107 20.3125 22.6107C14.3754 22.6107 9.56249 17.8849 9.56249 12.0554C9.56249 6.22579 14.3754 1.5 20.3125 1.5C26.2494 1.5 31.0625 6.22579 31.0625 12.0554Z" stroke="#0049BF" stroke-width="3" stroke-linecap="round" stroke-linejoin="round"/>
</svg>
