<svg width="293" height="300" viewBox="0 0 293 300" fill="none" xmlns="http://www.w3.org/2000/svg">
<g clip-path="url(#clip0_26_127)">
<g filter="url(#filter0_d_26_127)">
<path d="M46.1799 255.43C46.1799 247.31 52.9899 240.5 60.9899 240.5C68.9899 240.5 75.7499 247.31 75.7499 255.43C75.7499 263.55 69.0199 270.4 60.9899 270.4C52.9599 270.4 46.1799 263.54 46.1799 255.43ZM72.4299 255.43C72.4299 248.99 67.2099 243.53 60.9899 243.53C54.7699 243.53 49.5099 249 49.5099 255.43C49.5099 261.86 54.7699 267.38 60.9899 267.38C67.2099 267.38 72.4299 261.91 72.4299 255.43Z" fill="white"/>
</g>
<g filter="url(#filter1_d_26_127)">
<path d="M141.44 109.64C141.09 109.64 140.73 109.59 140.4 109.5C109.68 101.07 81.67 77.36 75.16 68.9C71.68 64.21 67.44 54.77 70.79 49.3C73 45.7 77.88 44.52 85.31 45.78C111.61 48.59 117.58 30.32 117.82 29.54C117.82 29.51 117.84 29.48 117.85 29.45C120.68 22.49 124.38 20.99 127.04 20.99C127.09 20.99 127.14 20.99 127.18 20.99C131.29 21.07 134.81 24.73 136.03 28.14C136.24 28.71 136.62 29.64 137.11 30.81C138.17 33.34 139.79 37.22 141.43 41.98C143.07 37.21 144.69 33.34 145.75 30.81C146.24 29.64 146.63 28.71 146.83 28.14C148.06 24.74 151.57 21.08 155.68 20.99C158.35 20.96 162.13 22.36 165.01 29.45C165.02 29.48 165.03 29.51 165.04 29.55C165.28 30.33 171.25 48.6 197.62 45.78C204.98 44.53 209.87 45.72 212.08 49.31C215.44 54.78 211.19 64.23 207.72 68.9C201.2 77.38 173.19 101.09 142.47 109.52C142.13 109.61 141.78 109.66 141.42 109.66L141.44 109.64ZM80.03 47.54C76.36 47.54 73.92 48.52 72.73 50.47C70.13 54.7 73.73 63.15 76.97 67.52C83.33 75.8 110.8 99.02 141 107.3C141.29 107.38 141.6 107.38 141.89 107.3C172.08 99.02 199.56 75.79 205.93 67.5C209.16 63.14 212.76 54.7 210.16 50.47C208.49 47.74 204.37 46.91 197.95 48C170.37 50.96 163.34 31.51 162.91 30.25C161.01 25.61 158.5 23.18 155.74 23.24C152.76 23.3 149.96 26.16 148.98 28.89C148.75 29.52 148.36 30.47 147.85 31.67C146.6 34.66 144.54 39.56 142.63 45.59C146.83 59.07 150.22 77.86 143.11 93.96C142.82 94.62 142.17 95.04 141.44 95.04C140.71 95.04 140.06 94.62 139.77 93.96C132.66 77.86 136.05 59.07 140.25 45.59C138.33 39.56 136.28 34.65 135.03 31.66C134.53 30.46 134.13 29.51 133.9 28.88C132.92 26.15 130.12 23.29 127.14 23.23C124.35 23.16 121.87 25.6 119.97 30.24C119.57 31.42 113.47 48.3 90.52 48.3C88.78 48.3 86.95 48.2 85.01 47.99C83.16 47.68 81.5 47.52 80.03 47.52V47.54ZM141.44 49.57C137.94 62.06 135.68 78.13 141.44 92.09C147.2 78.12 144.95 62.06 141.44 49.57Z" fill="#E6661C"/>
<path d="M138.97 7.39C138.97 10.15 139.89 12.71 141.45 14.78C143.01 12.7 143.92 10.15 143.92 7.39C143.92 4.63 143 2.07 141.45 0C139.89 2.08 138.97 4.63 138.97 7.39Z" fill="#E6661C"/>
<path d="M127.04 210.33C124.38 210.33 120.69 208.83 117.85 201.87C117.84 201.84 117.83 201.81 117.82 201.77C117.58 200.99 111.61 182.72 85.2399 185.54C77.8799 186.79 72.9899 185.6 70.7799 182.01C67.4199 176.54 71.6699 167.09 75.1299 162.42C81.6499 153.94 109.67 130.23 140.38 121.8C141.06 121.61 141.79 121.61 142.47 121.8C173.18 130.22 201.2 153.94 207.71 162.4C211.19 167.09 215.43 176.53 212.08 182C209.87 185.6 204.99 186.79 197.56 185.52C171.26 182.71 165.29 200.98 165.05 201.76C165.05 201.79 165.03 201.82 165.02 201.85C162.14 208.94 158.37 210.37 155.69 210.31C151.58 210.23 148.06 206.57 146.84 203.16C146.63 202.58 146.25 201.66 145.75 200.49C144.69 197.96 143.07 194.09 141.43 189.32C139.79 194.09 138.17 197.96 137.11 200.49C136.62 201.66 136.23 202.59 136.03 203.16C134.8 206.56 131.29 210.22 127.18 210.31C127.13 210.31 127.08 210.31 127.04 210.31V210.33ZM119.98 201.05C121.85 205.64 124.3 208.06 127.05 208.06C127.08 208.06 127.11 208.06 127.15 208.06C130.13 208 132.93 205.14 133.91 202.41C134.14 201.78 134.53 200.83 135.04 199.63C136.29 196.64 138.35 191.74 140.26 185.7C136.06 172.22 132.67 153.43 139.78 137.33C140.07 136.67 140.72 136.25 141.45 136.25C142.18 136.25 142.83 136.67 143.12 137.33C150.23 153.43 146.84 172.22 142.64 185.7C144.56 191.73 146.61 196.64 147.86 199.62C148.36 200.82 148.76 201.77 148.99 202.4C149.97 205.13 152.77 207.99 155.75 208.05C155.78 208.05 155.81 208.05 155.85 208.05C158.61 208.05 161.05 205.63 162.92 201.04C163.34 199.77 170.36 180.32 197.89 183.28C204.39 184.38 208.49 183.55 210.17 180.82C212.77 176.59 209.17 168.14 205.93 163.77C199.57 155.49 172.09 132.27 141.9 123.99C141.61 123.91 141.3 123.91 141.01 123.99C110.82 132.27 83.3399 155.5 76.9699 163.79C73.7399 168.15 70.1399 176.59 72.7399 180.82C74.4099 183.55 78.5199 184.38 84.9499 183.29C112.53 180.33 119.56 199.77 119.99 201.04L119.98 201.05ZM141.44 139.21C135.68 153.17 137.94 169.24 141.44 181.73C144.95 169.24 147.2 153.17 141.44 139.21Z" fill="#E6661C"/>
<path d="M143.92 223.91C143.92 221.15 143 218.59 141.45 216.52C139.89 218.6 138.97 221.15 138.97 223.91C138.97 226.67 139.89 229.23 141.45 231.3C143.01 229.22 143.92 226.67 143.92 223.91Z" fill="#E6661C"/>
<path d="M78.44 185.83C76.52 185.83 74.73 185.44 73.25 184.5C69.74 182.27 68.6 177.53 69.87 170.42C72.76 144.79 54.02 138.97 53.22 138.74C53.19 138.74 53.16 138.72 53.13 138.71C45.88 135.9 44.41 132.2 44.46 129.58C44.54 125.55 48.29 122.1 51.78 120.9C52.37 120.7 53.32 120.32 54.52 119.84C57.1 118.81 61.03 117.24 65.87 115.66C61.03 114.07 57.1 112.5 54.52 111.48C53.32 111 52.37 110.62 51.78 110.42C48.29 109.22 44.54 105.77 44.46 101.74C44.41 99.13 45.87 95.42 53.13 92.61C53.16 92.6 53.19 92.59 53.22 92.58C54.02 92.35 72.75 86.53 69.85 60.83C68.59 53.79 69.73 49.05 73.24 46.82C78.77 43.3 88.59 47.47 93.47 50.92C102.16 57.28 126.46 84.63 135.1 114.62C135.2 114.96 135.25 115.31 135.25 115.66C135.25 116.01 135.2 116.36 135.11 116.7C126.47 146.69 102.18 174.04 93.5 180.39C89.91 182.93 83.69 185.84 78.44 185.84V185.83ZM53.92 136.57C55.18 136.97 75.15 143.82 72.12 170.74C71.02 176.93 71.81 180.89 74.47 182.58C78.78 185.31 87.58 181.78 92.18 178.54C100.66 172.33 124.45 145.52 132.94 116.07C132.98 115.94 133 115.8 133 115.66C133 115.52 132.98 115.38 132.94 115.24C124.46 85.79 100.66 58.98 92.17 52.76C87.59 49.52 78.78 45.99 74.48 48.73C71.82 50.42 71.03 54.38 72.12 60.5C75.16 87.49 55.19 94.34 53.93 94.74C49.18 96.59 46.69 98.99 46.75 101.69C46.81 104.58 49.74 107.31 52.54 108.27C53.18 108.49 54.15 108.88 55.39 109.37C58.46 110.59 63.49 112.6 69.69 114.48C83.49 110.38 102.73 107.07 119.22 114C119.89 114.28 120.33 114.93 120.33 115.66C120.33 116.39 119.89 117.04 119.22 117.32C102.73 124.26 83.49 120.94 69.69 116.84C63.5 118.71 58.46 120.72 55.39 121.95C54.16 122.44 53.19 122.83 52.55 123.05C49.75 124.01 46.82 126.73 46.76 129.63C46.71 132.33 49.19 134.74 53.94 136.58L53.92 136.57ZM73.83 115.65C86.6 119.05 102.99 121.22 117.26 115.65C102.99 110.08 86.6 112.25 73.83 115.65Z" fill="#E6661C"/>
<path d="M30.5199 118.07C33.3499 118.07 35.9699 117.17 38.0999 115.65C35.9699 114.13 33.3499 113.23 30.5199 113.23C27.6899 113.23 25.0699 114.12 22.9399 115.65C25.0699 117.17 27.6899 118.07 30.5199 118.07Z" fill="#E6661C"/>
<path d="M204.44 185.83C199.19 185.83 192.98 182.92 189.4 180.39C180.71 174.03 156.41 146.68 147.77 116.69C147.67 116.35 147.62 116 147.62 115.65C147.62 115.3 147.67 114.94 147.77 114.61C156.4 84.62 180.7 57.28 189.38 50.92C194.28 47.46 204.1 43.29 209.63 46.8C213.14 49.03 214.28 53.77 213.01 60.88C210.12 86.51 228.86 92.33 229.66 92.56C229.69 92.56 229.72 92.58 229.75 92.59C237 95.4 238.47 99.1 238.41 101.72C238.33 105.75 234.58 109.2 231.09 110.4C230.5 110.6 229.55 110.98 228.35 111.46C225.77 112.49 221.84 114.06 217 115.64C221.84 117.23 225.77 118.8 228.35 119.82C229.55 120.3 230.5 120.68 231.09 120.88C234.58 122.08 238.33 125.52 238.41 129.56C238.46 132.17 237 135.88 229.75 138.69C229.72 138.7 229.69 138.71 229.66 138.72C228.86 138.95 210.13 144.77 213.03 170.47C214.29 177.51 213.15 182.25 209.64 184.48C208.16 185.42 206.36 185.81 204.44 185.81V185.83ZM204.46 47.74C199.95 47.74 194.15 50.33 190.71 52.76C182.23 58.97 158.44 85.78 149.95 115.23C149.91 115.36 149.89 115.5 149.89 115.64C149.89 115.78 149.91 115.92 149.95 116.05C158.43 145.51 182.23 172.32 190.72 178.53C195.3 181.77 204.1 185.3 208.41 182.56C211.07 180.87 211.86 176.91 210.77 170.79C207.72 143.8 227.7 136.95 228.96 136.55C233.71 134.7 236.2 132.3 236.14 129.6C236.08 126.71 233.15 123.98 230.35 123.02C229.71 122.8 228.74 122.41 227.51 121.92C224.44 120.7 219.41 118.69 213.21 116.81C199.41 120.91 180.17 124.22 163.68 117.29C163.01 117.01 162.57 116.36 162.57 115.63C162.57 114.9 163 114.25 163.68 113.97C180.16 107.03 199.41 110.35 213.21 114.45C219.4 112.58 224.44 110.57 227.51 109.34C228.74 108.85 229.71 108.46 230.36 108.24C233.16 107.28 236.09 104.56 236.15 101.66C236.2 98.96 233.72 96.55 228.97 94.71C227.71 94.31 207.74 87.46 210.77 60.54C211.87 54.35 211.08 50.39 208.42 48.7C207.34 48.01 205.97 47.72 204.46 47.72V47.74ZM165.63 115.65C179.9 121.22 196.28 119.05 209.06 115.65C196.29 112.25 179.9 110.08 165.63 115.65Z" fill="#E6661C"/>
<path d="M252.37 113.24C249.54 113.24 246.92 114.13 244.79 115.66C246.92 117.18 249.54 118.08 252.37 118.08C255.2 118.08 257.82 117.18 259.95 115.66C257.82 114.14 255.2 113.24 252.37 113.24Z" fill="#E6661C"/>
</g>
<g filter="url(#filter2_d_26_127)">
<path d="M24.74 241.45L14.01 261.12L3.28 241.45H0V269.66H3.29V248.35L14.02 268.01L24.75 248.35V269.66H28.03V241.45H24.75H24.74Z" fill="white"/>
</g>
<g filter="url(#filter3_d_26_127)">
<path d="M115.12 241.45V264.41L97.1999 241.45H93.9099V269.66H97.1999V246.7L115.12 269.66H118.4V241.45H115.12Z" fill="white"/>
</g>
<g filter="url(#filter4_d_26_127)">
<path d="M152.59 241.45H149.02L136.27 269.66H139.85L142.76 263.26H158.87L161.78 269.66H165.35L152.61 241.45H152.59ZM144.1 260.22L150.83 245.4L157.51 260.22H144.1Z" fill="white"/>
</g>
<g filter="url(#filter5_d_26_127)">
<path d="M200.92 265.46L196.59 259.44C201.76 258.83 205.59 255.3 205.59 250.49C205.59 245.2 200.93 241.45 194.95 241.45H183.21V269.66H186.49V259.51H192.88L197.92 266.5C197.92 266.5 198.02 266.64 198.11 266.75C198.68 267.48 200.46 269.33 203.91 269.62L201.11 265.72C201.04 265.63 200.98 265.54 200.91 265.46H200.92ZM186.48 256.48V244.49H194.35C199.05 244.49 202.25 246.7 202.25 250.48C202.25 254.26 199.05 256.48 194.35 256.48H186.48Z" fill="white"/>
</g>
<g filter="url(#filter6_d_26_127)">
<path d="M237.04 267.2C230.81 267.2 225.55 261.86 225.55 255.54C225.55 249.22 230.8 243.92 237.04 243.92C240.2 243.92 243.09 245.31 245.2 247.5L247.43 245.28C244.73 242.61 241.04 240.97 237.04 240.97C229.05 240.97 222.23 247.62 222.23 255.54C222.23 263.46 229.05 270.15 237.04 270.15C241.04 270.15 244.73 268.47 247.43 265.84L245.2 263.63C243.09 265.8 240.2 267.2 237.04 267.2Z" fill="white"/>
</g>
<g filter="url(#filter7_d_26_127)">
<path d="M279.73 241.45H276.15L263.41 269.66H266.99L269.89 263.26H286L288.91 269.66H292.49L279.75 241.45H279.73ZM271.23 260.22L277.96 245.4L284.64 260.22H271.23Z" fill="white"/>
</g>
<g filter="url(#filter8_d_26_127)">
<path d="M54.8701 291.26C54.8701 286.4 58.5401 282.82 64.1001 282.82C66.3801 282.82 68.2401 283.43 69.1901 284C69.1901 285.18 69.2401 286.15 69.3701 287.45H68.3701C67.7401 284.76 65.8801 283.79 63.7001 283.79C60.1601 283.79 58.2701 286.4 58.2701 290.31C58.2701 295.09 61.1801 298.32 65.1601 298.32C66.3401 298.32 68.2001 298.04 69.2501 296.96L69.8301 297.52C68.7801 298.65 66.5801 299.64 63.7801 299.64C58.4301 299.64 54.8701 296.06 54.8701 291.25V291.26Z" fill="#E6661C"/>
<path d="M80.5301 297.25L86.7401 283.05H87.8101L94.1501 297.25C94.6501 298.4 94.9401 298.5 96.3001 298.73V299.34H89.0901V298.73C90.2201 298.5 91.2401 298.4 90.7101 297.25L89.4501 294.44H82.9001L81.6701 297.28C81.1701 298.41 82.1401 298.51 83.2701 298.74V299.35H78.3401V298.74C79.7001 298.51 80.0201 298.41 80.5201 297.26L80.5301 297.25ZM89.0801 293.51L86.1401 286.91L83.3101 293.51H89.0801Z" fill="#E6661C"/>
<path d="M108.68 286.35L108.21 296.71C108.13 298.42 109.05 298.48 110.54 298.73V299.34H104.85V298.73C106.21 298.47 107 298.42 107.08 296.71L107.6 285.86C107.68 284.15 106.76 284.1 105.4 283.84V283.23H110.64C110.74 283.82 111.11 284.46 111.45 285.2L115.85 295.15L119.78 285.2C120.07 284.46 120.38 283.82 120.49 283.23H126.1V283.84C124.74 284.1 123.87 284.15 123.95 285.86L124.45 296.71C124.53 298.42 125.29 298.48 126.65 298.73V299.34H119.15V298.73C120.51 298.47 121.4 298.42 121.33 296.71L120.86 285.3L115.2 299.34H114.41L108.67 286.34L108.68 286.35Z" fill="#E6661C"/>
<path d="M137.88 296.71V285.86C137.88 284.15 137.07 284.1 135.7 283.84V283.23H148.75L148.99 286.91H148.23C147.99 285.09 147.55 284.2 145.66 284.2H143.46C141.47 284.2 141 284.38 141 286.14V290.75H142.89C146.06 290.75 146.38 290.16 146.53 288.6H147.13V293.82H146.53C146.37 292.26 146.06 291.67 142.89 291.67H141V296.43C141 298.2 141.47 298.37 143.46 298.37H145.11C147.18 298.37 148.15 297.65 149.12 295.45H149.88L148.81 299.34H135.7V298.73C137.06 298.47 137.88 298.42 137.88 296.71Z" fill="#E6661C"/>
<path d="M160.73 296.71V285.86C160.73 284.15 159.92 284.1 158.55 283.84V283.23H166.18V283.84C164.82 284.1 163.85 284.15 163.85 285.86V296.4C163.85 298.16 164.32 298.34 166.31 298.34H168.04C170.11 298.34 171.11 297.68 172.05 295.3H172.84L171.77 299.34H158.56V298.73C159.92 298.47 160.74 298.42 160.74 296.71H160.73Z" fill="#E6661C"/>
<path d="M183.27 296.71V285.86C183.27 284.15 182.46 284.1 181.09 283.84V283.23H188.72V283.84C187.36 284.1 186.39 284.15 186.39 285.86V296.4C186.39 298.16 186.86 298.34 188.85 298.34H190.58C192.65 298.34 193.65 297.68 194.59 295.3H195.38L194.31 299.34H181.1V298.73C182.46 298.47 183.28 298.42 183.28 296.71H183.27Z" fill="#E6661C"/>
<path d="M205.81 296.71V285.86C205.81 284.15 205 284.1 203.63 283.84V283.23H211.1V283.84C209.74 284.1 208.92 284.15 208.92 285.86V296.71C208.92 298.42 209.73 298.48 211.1 298.73V299.34H203.63V298.73C204.99 298.47 205.81 298.42 205.81 296.71Z" fill="#E6661C"/>
<path d="M221.83 297.25L228.04 283.05H229.11L235.45 297.25C235.95 298.4 236.24 298.5 237.6 298.73V299.34H230.39V298.73C231.52 298.5 232.54 298.4 232.02 297.25L230.76 294.44H224.21L222.98 297.28C222.48 298.41 223.45 298.51 224.58 298.74V299.35H219.65V298.74C221.01 298.51 221.33 298.41 221.83 297.26V297.25ZM230.37 293.51L227.43 286.91L224.6 293.51H230.37Z" fill="#E6661C"/>
</g>
<g filter="url(#filter9_d_26_127)">
<path d="M204.82 267.11V269.66C204.51 269.66 204.21 269.66 203.92 269.62C200.46 269.34 198.69 267.49 198.12 266.75C198.03 266.63 197.96 266.54 197.93 266.5C197.93 266.47 197.91 266.46 197.91 266.46L200.93 265.46C201 265.55 201.06 265.64 201.13 265.72C202.75 267.74 204.84 267.1 204.84 267.1L204.82 267.11Z" fill="white"/>
</g>
</g>
<defs>
<filter id="filter0_d_26_127" x="41.2799" y="235.6" width="39.3701" height="39.7" filterUnits="userSpaceOnUse" color-interpolation-filters="sRGB">
<feFlood flood-opacity="0" result="BackgroundImageFix"/>
<feColorMatrix in="SourceAlpha" type="matrix" values="0 0 0 0 0 0 0 0 0 0 0 0 0 0 0 0 0 0 127 0" result="hardAlpha"/>
<feOffset/>
<feGaussianBlur stdDeviation="2.45"/>
<feComposite in2="hardAlpha" operator="out"/>
<feColorMatrix type="matrix" values="0 0 0 0 0 0 0 0 0 0 0 0 0 0 0 0 0 0 0.7 0"/>
<feBlend mode="normal" in2="BackgroundImageFix" result="effect1_dropShadow_26_127"/>
<feBlend mode="normal" in="SourceGraphic" in2="effect1_dropShadow_26_127" result="shape"/>
</filter>
<filter id="filter1_d_26_127" x="18.0399" y="-4.9" width="246.81" height="241.1" filterUnits="userSpaceOnUse" color-interpolation-filters="sRGB">
<feFlood flood-opacity="0" result="BackgroundImageFix"/>
<feColorMatrix in="SourceAlpha" type="matrix" values="0 0 0 0 0 0 0 0 0 0 0 0 0 0 0 0 0 0 127 0" result="hardAlpha"/>
<feOffset/>
<feGaussianBlur stdDeviation="2.45"/>
<feComposite in2="hardAlpha" operator="out"/>
<feColorMatrix type="matrix" values="0 0 0 0 0 0 0 0 0 0 0 0 0 0 0 0 0 0 0.7 0"/>
<feBlend mode="normal" in2="BackgroundImageFix" result="effect1_dropShadow_26_127"/>
<feBlend mode="normal" in="SourceGraphic" in2="effect1_dropShadow_26_127" result="shape"/>
</filter>
<filter id="filter2_d_26_127" x="-4.9" y="236.55" width="37.83" height="38.01" filterUnits="userSpaceOnUse" color-interpolation-filters="sRGB">
<feFlood flood-opacity="0" result="BackgroundImageFix"/>
<feColorMatrix in="SourceAlpha" type="matrix" values="0 0 0 0 0 0 0 0 0 0 0 0 0 0 0 0 0 0 127 0" result="hardAlpha"/>
<feOffset/>
<feGaussianBlur stdDeviation="2.45"/>
<feComposite in2="hardAlpha" operator="out"/>
<feColorMatrix type="matrix" values="0 0 0 0 0 0 0 0 0 0 0 0 0 0 0 0 0 0 0.7 0"/>
<feBlend mode="normal" in2="BackgroundImageFix" result="effect1_dropShadow_26_127"/>
<feBlend mode="normal" in="SourceGraphic" in2="effect1_dropShadow_26_127" result="shape"/>
</filter>
<filter id="filter3_d_26_127" x="89.0099" y="236.55" width="34.29" height="38.01" filterUnits="userSpaceOnUse" color-interpolation-filters="sRGB">
<feFlood flood-opacity="0" result="BackgroundImageFix"/>
<feColorMatrix in="SourceAlpha" type="matrix" values="0 0 0 0 0 0 0 0 0 0 0 0 0 0 0 0 0 0 127 0" result="hardAlpha"/>
<feOffset/>
<feGaussianBlur stdDeviation="2.45"/>
<feComposite in2="hardAlpha" operator="out"/>
<feColorMatrix type="matrix" values="0 0 0 0 0 0 0 0 0 0 0 0 0 0 0 0 0 0 0.7 0"/>
<feBlend mode="normal" in2="BackgroundImageFix" result="effect1_dropShadow_26_127"/>
<feBlend mode="normal" in="SourceGraphic" in2="effect1_dropShadow_26_127" result="shape"/>
</filter>
<filter id="filter4_d_26_127" x="131.37" y="236.55" width="38.8801" height="38.01" filterUnits="userSpaceOnUse" color-interpolation-filters="sRGB">
<feFlood flood-opacity="0" result="BackgroundImageFix"/>
<feColorMatrix in="SourceAlpha" type="matrix" values="0 0 0 0 0 0 0 0 0 0 0 0 0 0 0 0 0 0 127 0" result="hardAlpha"/>
<feOffset/>
<feGaussianBlur stdDeviation="2.45"/>
<feComposite in2="hardAlpha" operator="out"/>
<feColorMatrix type="matrix" values="0 0 0 0 0 0 0 0 0 0 0 0 0 0 0 0 0 0 0.7 0"/>
<feBlend mode="normal" in2="BackgroundImageFix" result="effect1_dropShadow_26_127"/>
<feBlend mode="normal" in="SourceGraphic" in2="effect1_dropShadow_26_127" result="shape"/>
</filter>
<filter id="filter5_d_26_127" x="178.31" y="236.55" width="32.1799" height="38.01" filterUnits="userSpaceOnUse" color-interpolation-filters="sRGB">
<feFlood flood-opacity="0" result="BackgroundImageFix"/>
<feColorMatrix in="SourceAlpha" type="matrix" values="0 0 0 0 0 0 0 0 0 0 0 0 0 0 0 0 0 0 127 0" result="hardAlpha"/>
<feOffset/>
<feGaussianBlur stdDeviation="2.45"/>
<feComposite in2="hardAlpha" operator="out"/>
<feColorMatrix type="matrix" values="0 0 0 0 0 0 0 0 0 0 0 0 0 0 0 0 0 0 0.7 0"/>
<feBlend mode="normal" in2="BackgroundImageFix" result="effect1_dropShadow_26_127"/>
<feBlend mode="normal" in="SourceGraphic" in2="effect1_dropShadow_26_127" result="shape"/>
</filter>
<filter id="filter6_d_26_127" x="217.33" y="236.07" width="35" height="38.98" filterUnits="userSpaceOnUse" color-interpolation-filters="sRGB">
<feFlood flood-opacity="0" result="BackgroundImageFix"/>
<feColorMatrix in="SourceAlpha" type="matrix" values="0 0 0 0 0 0 0 0 0 0 0 0 0 0 0 0 0 0 127 0" result="hardAlpha"/>
<feOffset/>
<feGaussianBlur stdDeviation="2.45"/>
<feComposite in2="hardAlpha" operator="out"/>
<feColorMatrix type="matrix" values="0 0 0 0 0 0 0 0 0 0 0 0 0 0 0 0 0 0 0.7 0"/>
<feBlend mode="normal" in2="BackgroundImageFix" result="effect1_dropShadow_26_127"/>
<feBlend mode="normal" in="SourceGraphic" in2="effect1_dropShadow_26_127" result="shape"/>
</filter>
<filter id="filter7_d_26_127" x="258.51" y="236.55" width="38.8801" height="38.01" filterUnits="userSpaceOnUse" color-interpolation-filters="sRGB">
<feFlood flood-opacity="0" result="BackgroundImageFix"/>
<feColorMatrix in="SourceAlpha" type="matrix" values="0 0 0 0 0 0 0 0 0 0 0 0 0 0 0 0 0 0 127 0" result="hardAlpha"/>
<feOffset/>
<feGaussianBlur stdDeviation="2.45"/>
<feComposite in2="hardAlpha" operator="out"/>
<feColorMatrix type="matrix" values="0 0 0 0 0 0 0 0 0 0 0 0 0 0 0 0 0 0 0.7 0"/>
<feBlend mode="normal" in2="BackgroundImageFix" result="effect1_dropShadow_26_127"/>
<feBlend mode="normal" in="SourceGraphic" in2="effect1_dropShadow_26_127" result="shape"/>
</filter>
<filter id="filter8_d_26_127" x="49.9701" y="277.92" width="192.53" height="26.62" filterUnits="userSpaceOnUse" color-interpolation-filters="sRGB">
<feFlood flood-opacity="0" result="BackgroundImageFix"/>
<feColorMatrix in="SourceAlpha" type="matrix" values="0 0 0 0 0 0 0 0 0 0 0 0 0 0 0 0 0 0 127 0" result="hardAlpha"/>
<feOffset/>
<feGaussianBlur stdDeviation="2.45"/>
<feComposite in2="hardAlpha" operator="out"/>
<feColorMatrix type="matrix" values="0 0 0 0 0 0 0 0 0 0 0 0 0 0 0 0 0 0 0.7 0"/>
<feBlend mode="normal" in2="BackgroundImageFix" result="effect1_dropShadow_26_127"/>
<feBlend mode="normal" in="SourceGraphic" in2="effect1_dropShadow_26_127" result="shape"/>
</filter>
<filter id="filter9_d_26_127" x="193.01" y="260.56" width="16.7299" height="14" filterUnits="userSpaceOnUse" color-interpolation-filters="sRGB">
<feFlood flood-opacity="0" result="BackgroundImageFix"/>
<feColorMatrix in="SourceAlpha" type="matrix" values="0 0 0 0 0 0 0 0 0 0 0 0 0 0 0 0 0 0 127 0" result="hardAlpha"/>
<feOffset/>
<feGaussianBlur stdDeviation="2.45"/>
<feComposite in2="hardAlpha" operator="out"/>
<feColorMatrix type="matrix" values="0 0 0 0 0 0 0 0 0 0 0 0 0 0 0 0 0 0 0.7 0"/>
<feBlend mode="normal" in2="BackgroundImageFix" result="effect1_dropShadow_26_127"/>
<feBlend mode="normal" in="SourceGraphic" in2="effect1_dropShadow_26_127" result="shape"/>
</filter>
<clipPath id="clip0_26_127">
<rect width="292.48" height="299.65" fill="white"/>
</clipPath>
</defs>
</svg>
