<svg width="413" height="135" viewBox="0 0 413 135" fill="none" xmlns="http://www.w3.org/2000/svg">
<mask id="path-1-outside-1_86_2293" maskUnits="userSpaceOnUse" x="0" y="-0.793457" width="413" height="135" fill="black">
<rect fill="white" y="-0.793457" width="413" height="135"/>
<path d="M93.8388 121.285C93.8343 121.281 93.8317 121.274 93.8317 121.268V120.787C93.8317 120.525 93.9363 120.275 94.1129 120.081C98.0896 115.722 98.2939 108.624 98.2939 102.495V47.2305C98.2939 41.1358 98.1001 33.9038 94.0157 29.6074C93.8996 29.4852 93.8317 29.3238 93.8317 29.1552C93.8317 28.8036 94.1167 28.5186 94.4683 28.5186H98.2939C107.595 28.5186 116.574 26.6287 122.148 23.2647C122.259 23.1977 122.385 23.1621 122.514 23.1621C122.901 23.1621 123.214 23.4754 123.214 23.8619V102.509C123.214 108.676 123.353 115.841 127.425 120.204C127.539 120.326 127.605 120.486 127.605 120.653C127.605 121.006 127.319 121.292 126.966 121.292H93.8561C93.8496 121.292 93.8434 121.29 93.8388 121.285Z"/>
<path d="M133.293 100.652C133.293 76.931 156.154 77.8727 170.601 69.8538C170.913 69.6805 171.102 69.3517 171.098 68.9946C171.018 61.6749 169.416 51.6299 165.541 51.6299C159.91 51.6299 160.951 70.7417 147.835 70.7417C141.448 70.7417 136.587 66.1995 136.587 59.3289C136.587 54.2524 139.23 51.0376 141.765 49.3456C142.081 49.1349 142.49 49.148 142.812 49.3482C144.924 50.6608 146.797 51.4299 149.973 51.4299C156.075 51.4299 160.338 48.1304 169.676 48.1304C185.671 48.1304 196.022 60.5716 196.022 81.4832V102.523C196.022 108.69 196.215 115.856 200.303 120.218C200.417 120.34 200.484 120.501 200.484 120.668C200.484 121.021 200.198 121.307 199.845 121.307H176.339C175.917 121.307 175.54 121.041 175.398 120.643L173.421 115.113C173.122 114.276 171.927 114.202 171.445 114.949C168.276 119.85 163.211 122.207 156.004 122.207C141.106 122.207 133.293 113.336 133.293 100.681V100.652ZM171.101 97.424V74.5534C171.101 73.7817 170.26 73.3061 169.607 73.7168C159.64 79.9823 158.199 86.0211 158.199 96.0528C158.199 107.608 160.324 115.579 165.199 115.579C170.075 115.579 171.101 108.151 171.101 97.424Z"/>
<path d="M218.86 119.578C218.86 119.57 218.854 119.564 218.846 119.564C216.226 119.565 213.989 119.95 212.415 120.858C212.067 121.059 211.633 121.092 211.304 120.862C208.788 119.099 206.229 115.377 206.229 108.98C206.229 102.866 210.62 98.3953 215.695 98.3953C227.642 98.3953 238.349 118.336 244.721 118.336C246.161 118.336 246.846 117.164 246.846 115.522C246.846 106.166 207.598 89.1251 207.598 64.6425C207.598 51.5156 220.158 48.0732 227.842 48.0732C237.935 48.0732 245.962 50.6158 250.139 50.6158C252.625 50.6158 253.994 50.1792 255.363 49.3259C255.695 49.1194 256.115 49.0972 256.441 49.3134C259.011 51.0219 261.943 54.3815 261.943 60.7287C261.943 66.8422 258.849 71.7987 252.063 71.7987C240.117 71.7987 233.331 51.787 227.015 51.787C225.575 51.787 224.62 52.8869 224.62 54.7438C224.62 64.4425 264.082 84.04 264.082 106.18C264.082 115.122 257.909 122.135 243.909 122.135C237.397 122.135 228.677 119.595 218.875 119.593C218.867 119.593 218.86 119.586 218.86 119.578Z"/>
<path d="M282.886 119.578C282.886 119.57 282.879 119.564 282.871 119.564C280.252 119.565 278.015 119.95 276.441 120.858C276.092 121.059 275.658 121.092 275.329 120.862C272.813 119.099 270.255 115.377 270.255 108.98C270.255 102.866 274.646 98.3953 279.721 98.3953C291.668 98.3953 302.374 118.336 308.747 118.336C310.187 118.336 310.871 117.164 310.871 115.522C310.871 106.166 271.623 89.1251 271.623 64.6425C271.623 51.5156 284.183 48.0732 291.867 48.0732C301.961 48.0732 309.987 50.6158 314.164 50.6158C316.65 50.6158 318.019 50.1792 319.389 49.3259C319.72 49.1194 320.141 49.0972 320.466 49.3134C323.036 51.0219 325.969 54.3815 325.969 60.7287C325.969 66.8422 322.875 71.7987 316.089 71.7987C304.142 71.7987 297.356 51.787 291.04 51.787C289.6 51.787 288.645 52.8869 288.645 54.7438C288.645 64.4425 328.107 84.04 328.107 106.18C328.107 115.122 321.934 122.135 307.934 122.135C301.422 122.135 292.703 119.595 282.9 119.593C282.892 119.593 282.886 119.586 282.886 119.578Z"/>
<path d="M333.81 100.652C333.81 76.931 356.67 77.8727 371.117 69.8538C371.429 69.6805 371.618 69.3517 371.614 68.9946C371.534 61.6749 369.932 51.6299 366.057 51.6299C360.426 51.6299 361.467 70.7417 348.351 70.7417C341.964 70.7417 337.103 66.1995 337.103 59.3289C337.103 54.2524 339.746 51.0376 342.281 49.3456C342.597 49.1349 343.006 49.148 343.328 49.3482C345.44 50.6608 347.313 51.4299 350.49 51.4299C356.591 51.4299 360.854 48.1304 370.192 48.1304C386.188 48.1304 396.538 60.5716 396.538 81.4832V102.523C396.538 108.69 396.732 115.856 400.819 120.218C400.933 120.34 401 120.501 401 120.668C401 121.021 400.714 121.307 400.361 121.307H376.856C376.433 121.307 376.056 121.041 375.914 120.643L373.937 115.113C373.638 114.276 372.444 114.202 371.961 114.949C368.792 119.85 363.727 122.207 356.52 122.207C341.622 122.207 333.81 113.336 333.81 100.681V100.652ZM371.618 97.424V74.5534C371.618 73.7817 370.777 73.3061 370.123 73.7168C360.156 79.9823 358.715 86.0211 358.715 96.0528C358.715 107.608 360.84 115.579 365.715 115.579C370.591 115.579 371.618 108.151 371.618 97.424Z"/>
<path d="M80.502 54.3438C80.5098 54.3438 80.5162 54.3375 80.5162 54.3296V49.7135C80.5162 49.3283 80.2039 49.016 79.8187 49.016C79.6876 49.016 79.5605 49.0524 79.4488 49.121C73.9444 52.4973 64.9797 54.3724 55.5961 54.3724H51.775C51.4287 54.3724 51.1481 54.6531 51.1481 54.9993C51.1481 55.165 51.2146 55.3237 51.3286 55.4439C55.4022 59.7399 55.5961 66.9739 55.5961 73.07V97.4097C55.5961 108.137 54.6409 115.565 49.6939 115.565C44.7469 115.565 41.3111 110.608 41.3111 85.097V64.4425C41.1258 61.2715 40.5841 58.2433 39.5148 55.458C39.358 55.0723 39.1869 54.6867 39.0159 54.3153C38.4314 53.0012 37.747 51.8013 36.9059 50.7729C34.1402 47.3305 29.8347 45.8164 23.0772 48.4018C18.0778 50.3228 13.4604 53.1796 12.0162 54.2885C12.0063 54.2962 12.004 54.3091 12.0096 54.3203L12.0206 54.3424C12.0243 54.3496 12.019 54.3581 12.0109 54.3581C12.0049 54.3581 12 54.363 12 54.369V54.9846C12 55.1505 12.0666 55.3092 12.181 55.4295C14.9634 58.3555 15.9131 62.6506 16.2341 67.0279C16.2341 67.1136 16.2341 67.1993 16.2341 67.2708C16.3625 69.2276 16.3767 71.1845 16.3767 73.0414V85.0827C16.3767 106.194 25.5721 122.135 40.47 122.135C41.4109 122.135 42.2948 122.092 43.1645 122.007C49.1869 121.465 53.5066 118.983 56.2174 114.39C56.7106 113.555 58.0905 113.665 58.3312 114.605L59.8372 120.483C59.9505 120.926 60.3492 121.235 60.8059 121.235H84.2964C84.6495 121.235 84.9357 120.949 84.9357 120.596C84.9357 120.429 84.8697 120.269 84.7556 120.147C84.1483 119.498 83.6238 118.79 83.1822 118.036C80.6303 113.693 80.4877 107.723 80.4877 102.466V54.3581C80.4877 54.3502 80.4941 54.3438 80.502 54.3438Z"/>
<path d="M67.0297 48.3338C67.0297 48.3378 67.0248 48.3398 67.022 48.3369L66.922 48.2368C66.9089 48.2236 66.9023 48.2054 66.9039 48.1869C67.033 46.6825 67.2886 45.1783 67.6427 43.6881C67.8565 43.0167 68.0561 42.274 68.2415 41.5169C70.635 33.8643 75.8063 27.3554 82.6187 23.3088C83.2165 22.9537 83.9676 23.3368 84.0213 24.03C84.873 35.0206 77.7872 45.343 67.033 48.3294C67.031 48.33 67.0297 48.3317 67.0297 48.3338Z"/>
<path d="M63.5083 48.8303C63.517 48.8477 63.5148 48.8686 63.5027 48.8838L63.4752 48.9183C63.4688 48.9262 63.4635 48.935 63.4594 48.9443L63.4551 48.9539C63.4263 49.0189 63.3647 49.0639 63.294 49.0717C51.8534 50.3285 41.3248 43.052 38.3165 32.0791C38.1362 31.4216 38.6885 30.8109 39.3622 30.9156C47.4248 32.1686 54.7849 36.4699 59.8587 42.9596L60.0726 43.2453C60.429 43.7166 60.7283 44.1309 60.9992 44.5165L61.0549 44.6169C61.0652 44.6356 61.0782 44.6528 61.0933 44.6679C61.1066 44.6812 61.1181 44.6961 61.1281 44.7121C61.1329 44.72 61.1386 44.7289 61.1442 44.7375C61.1604 44.7624 61.1787 44.786 61.1954 44.8106C62.069 46.0992 62.8446 47.4437 63.5083 48.8303Z"/>
<path d="M66.5214 40.9835C66.5143 40.9906 66.5022 41.0173 66.5022 41.0273C66.5022 41.0282 66.5021 41.0317 66.5019 41.0326C66.3024 41.832 66.1172 42.5457 65.9177 43.1739C65.7591 43.7036 65.5805 44.2373 65.384 44.7707C65.1351 45.4465 64.2688 45.6005 63.7979 45.0557C63.4342 44.6348 63.0824 44.2082 62.7385 43.7738L61.598 42.2026L61.5267 42.0883L61.4839 42.0311L61.4554 41.9883C61.4554 41.9883 61.4269 41.9454 61.4127 41.9169C58.9178 38.2174 57.2498 34.0893 56.4372 29.6327C55.4015 23.8798 55.9209 18.0423 57.9289 12.62C58.1786 11.9457 59.0426 11.7882 59.514 12.3311C63.3046 16.6959 65.8241 21.9668 66.8729 27.733C67.671 32.1881 67.5572 36.629 66.5317 40.97C66.531 40.9727 66.5297 40.9752 66.5277 40.9771L66.5214 40.9835Z"/>
</mask>
<path d="M93.8388 121.285C93.8343 121.281 93.8317 121.274 93.8317 121.268V120.787C93.8317 120.525 93.9363 120.275 94.1129 120.081C98.0896 115.722 98.2939 108.624 98.2939 102.495V47.2305C98.2939 41.1358 98.1001 33.9038 94.0157 29.6074C93.8996 29.4852 93.8317 29.3238 93.8317 29.1552C93.8317 28.8036 94.1167 28.5186 94.4683 28.5186H98.2939C107.595 28.5186 116.574 26.6287 122.148 23.2647C122.259 23.1977 122.385 23.1621 122.514 23.1621C122.901 23.1621 123.214 23.4754 123.214 23.8619V102.509C123.214 108.676 123.353 115.841 127.425 120.204C127.539 120.326 127.605 120.486 127.605 120.653C127.605 121.006 127.319 121.292 126.966 121.292H93.8561C93.8496 121.292 93.8434 121.29 93.8388 121.285Z" fill="white"/>
<path d="M133.293 100.652C133.293 76.931 156.154 77.8727 170.601 69.8538C170.913 69.6805 171.102 69.3517 171.098 68.9946C171.018 61.6749 169.416 51.6299 165.541 51.6299C159.91 51.6299 160.951 70.7417 147.835 70.7417C141.448 70.7417 136.587 66.1995 136.587 59.3289C136.587 54.2524 139.23 51.0376 141.765 49.3456C142.081 49.1349 142.49 49.148 142.812 49.3482C144.924 50.6608 146.797 51.4299 149.973 51.4299C156.075 51.4299 160.338 48.1304 169.676 48.1304C185.671 48.1304 196.022 60.5716 196.022 81.4832V102.523C196.022 108.69 196.215 115.856 200.303 120.218C200.417 120.34 200.484 120.501 200.484 120.668C200.484 121.021 200.198 121.307 199.845 121.307H176.339C175.917 121.307 175.54 121.041 175.398 120.643L173.421 115.113C173.122 114.276 171.927 114.202 171.445 114.949C168.276 119.85 163.211 122.207 156.004 122.207C141.106 122.207 133.293 113.336 133.293 100.681V100.652ZM171.101 97.424V74.5534C171.101 73.7817 170.26 73.3061 169.607 73.7168C159.64 79.9823 158.199 86.0211 158.199 96.0528C158.199 107.608 160.324 115.579 165.199 115.579C170.075 115.579 171.101 108.151 171.101 97.424Z" fill="white"/>
<path d="M218.86 119.578C218.86 119.57 218.854 119.564 218.846 119.564C216.226 119.565 213.989 119.95 212.415 120.858C212.067 121.059 211.633 121.092 211.304 120.862C208.788 119.099 206.229 115.377 206.229 108.98C206.229 102.866 210.62 98.3953 215.695 98.3953C227.642 98.3953 238.349 118.336 244.721 118.336C246.161 118.336 246.846 117.164 246.846 115.522C246.846 106.166 207.598 89.1251 207.598 64.6425C207.598 51.5156 220.158 48.0732 227.842 48.0732C237.935 48.0732 245.962 50.6158 250.139 50.6158C252.625 50.6158 253.994 50.1792 255.363 49.3259C255.695 49.1194 256.115 49.0972 256.441 49.3134C259.011 51.0219 261.943 54.3815 261.943 60.7287C261.943 66.8422 258.849 71.7987 252.063 71.7987C240.117 71.7987 233.331 51.787 227.015 51.787C225.575 51.787 224.62 52.8869 224.62 54.7438C224.62 64.4425 264.082 84.04 264.082 106.18C264.082 115.122 257.909 122.135 243.909 122.135C237.397 122.135 228.677 119.595 218.875 119.593C218.867 119.593 218.86 119.586 218.86 119.578Z" fill="white"/>
<path d="M282.886 119.578C282.886 119.57 282.879 119.564 282.871 119.564C280.252 119.565 278.015 119.95 276.441 120.858C276.092 121.059 275.658 121.092 275.329 120.862C272.813 119.099 270.255 115.377 270.255 108.98C270.255 102.866 274.646 98.3953 279.721 98.3953C291.668 98.3953 302.374 118.336 308.747 118.336C310.187 118.336 310.871 117.164 310.871 115.522C310.871 106.166 271.623 89.1251 271.623 64.6425C271.623 51.5156 284.183 48.0732 291.867 48.0732C301.961 48.0732 309.987 50.6158 314.164 50.6158C316.65 50.6158 318.019 50.1792 319.389 49.3259C319.72 49.1194 320.141 49.0972 320.466 49.3134C323.036 51.0219 325.969 54.3815 325.969 60.7287C325.969 66.8422 322.875 71.7987 316.089 71.7987C304.142 71.7987 297.356 51.787 291.04 51.787C289.6 51.787 288.645 52.8869 288.645 54.7438C288.645 64.4425 328.107 84.04 328.107 106.18C328.107 115.122 321.934 122.135 307.934 122.135C301.422 122.135 292.703 119.595 282.9 119.593C282.892 119.593 282.886 119.586 282.886 119.578Z" fill="white"/>
<path d="M333.81 100.652C333.81 76.931 356.67 77.8727 371.117 69.8538C371.429 69.6805 371.618 69.3517 371.614 68.9946C371.534 61.6749 369.932 51.6299 366.057 51.6299C360.426 51.6299 361.467 70.7417 348.351 70.7417C341.964 70.7417 337.103 66.1995 337.103 59.3289C337.103 54.2524 339.746 51.0376 342.281 49.3456C342.597 49.1349 343.006 49.148 343.328 49.3482C345.44 50.6608 347.313 51.4299 350.49 51.4299C356.591 51.4299 360.854 48.1304 370.192 48.1304C386.188 48.1304 396.538 60.5716 396.538 81.4832V102.523C396.538 108.69 396.732 115.856 400.819 120.218C400.933 120.34 401 120.501 401 120.668C401 121.021 400.714 121.307 400.361 121.307H376.856C376.433 121.307 376.056 121.041 375.914 120.643L373.937 115.113C373.638 114.276 372.444 114.202 371.961 114.949C368.792 119.85 363.727 122.207 356.52 122.207C341.622 122.207 333.81 113.336 333.81 100.681V100.652ZM371.618 97.424V74.5534C371.618 73.7817 370.777 73.3061 370.123 73.7168C360.156 79.9823 358.715 86.0211 358.715 96.0528C358.715 107.608 360.84 115.579 365.715 115.579C370.591 115.579 371.618 108.151 371.618 97.424Z" fill="white"/>
<path d="M80.502 54.3438C80.5098 54.3438 80.5162 54.3375 80.5162 54.3296V49.7135C80.5162 49.3283 80.2039 49.016 79.8187 49.016C79.6876 49.016 79.5605 49.0524 79.4488 49.121C73.9444 52.4973 64.9797 54.3724 55.5961 54.3724H51.775C51.4287 54.3724 51.1481 54.6531 51.1481 54.9993C51.1481 55.165 51.2146 55.3237 51.3286 55.4439C55.4022 59.7399 55.5961 66.9739 55.5961 73.07V97.4097C55.5961 108.137 54.6409 115.565 49.6939 115.565C44.7469 115.565 41.3111 110.608 41.3111 85.097V64.4425C41.1258 61.2715 40.5841 58.2433 39.5148 55.458C39.358 55.0723 39.1869 54.6867 39.0159 54.3153C38.4314 53.0012 37.747 51.8013 36.9059 50.7729C34.1402 47.3305 29.8347 45.8164 23.0772 48.4018C18.0778 50.3228 13.4604 53.1796 12.0162 54.2885C12.0063 54.2962 12.004 54.3091 12.0096 54.3203L12.0206 54.3424C12.0243 54.3496 12.019 54.3581 12.0109 54.3581C12.0049 54.3581 12 54.363 12 54.369V54.9846C12 55.1505 12.0666 55.3092 12.181 55.4295C14.9634 58.3555 15.9131 62.6506 16.2341 67.0279C16.2341 67.1136 16.2341 67.1993 16.2341 67.2708C16.3625 69.2276 16.3767 71.1845 16.3767 73.0414V85.0827C16.3767 106.194 25.5721 122.135 40.47 122.135C41.4109 122.135 42.2948 122.092 43.1645 122.007C49.1869 121.465 53.5066 118.983 56.2174 114.39C56.7106 113.555 58.0905 113.665 58.3312 114.605L59.8372 120.483C59.9505 120.926 60.3492 121.235 60.8059 121.235H84.2964C84.6495 121.235 84.9357 120.949 84.9357 120.596C84.9357 120.429 84.8697 120.269 84.7556 120.147C84.1483 119.498 83.6238 118.79 83.1822 118.036C80.6303 113.693 80.4877 107.723 80.4877 102.466V54.3581C80.4877 54.3502 80.4941 54.3438 80.502 54.3438Z" fill="white"/>
<path d="M67.0297 48.3338C67.0297 48.3378 67.0248 48.3398 67.022 48.3369L66.922 48.2368C66.9089 48.2236 66.9023 48.2054 66.9039 48.1869C67.033 46.6825 67.2886 45.1783 67.6427 43.6881C67.8565 43.0167 68.0561 42.274 68.2415 41.5169C70.635 33.8643 75.8063 27.3554 82.6187 23.3088C83.2165 22.9537 83.9676 23.3368 84.0213 24.03C84.873 35.0206 77.7872 45.343 67.033 48.3294C67.031 48.33 67.0297 48.3317 67.0297 48.3338Z" fill="#FBB916"/>
<path d="M63.5083 48.8303C63.517 48.8477 63.5148 48.8686 63.5027 48.8838L63.4752 48.9183C63.4688 48.9262 63.4635 48.935 63.4594 48.9443L63.4551 48.9539C63.4263 49.0189 63.3647 49.0639 63.294 49.0717C51.8534 50.3285 41.3248 43.052 38.3165 32.0791C38.1362 31.4216 38.6885 30.8109 39.3622 30.9156C47.4248 32.1686 54.7849 36.4699 59.8587 42.9596L60.0726 43.2453C60.429 43.7166 60.7283 44.1309 60.9992 44.5165L61.0549 44.6169C61.0652 44.6356 61.0782 44.6528 61.0933 44.6679C61.1066 44.6812 61.1181 44.6961 61.1281 44.7121C61.1329 44.72 61.1386 44.7289 61.1442 44.7375C61.1604 44.7624 61.1787 44.786 61.1954 44.8106C62.069 46.0992 62.8446 47.4437 63.5083 48.8303Z" fill="#FBB916"/>
<path d="M66.5214 40.9835C66.5143 40.9906 66.5022 41.0173 66.5022 41.0273C66.5022 41.0282 66.5021 41.0317 66.5019 41.0326C66.3024 41.832 66.1172 42.5457 65.9177 43.1739C65.7591 43.7036 65.5805 44.2373 65.384 44.7707C65.1351 45.4465 64.2688 45.6005 63.7979 45.0557C63.4342 44.6348 63.0824 44.2082 62.7385 43.7738L61.598 42.2026L61.5267 42.0883L61.4839 42.0311L61.4554 41.9883C61.4554 41.9883 61.4269 41.9454 61.4127 41.9169C58.9178 38.2174 57.2498 34.0893 56.4372 29.6327C55.4015 23.8798 55.9209 18.0423 57.9289 12.62C58.1786 11.9457 59.0426 11.7882 59.514 12.3311C63.3046 16.6959 65.8241 21.9668 66.8729 27.733C67.671 32.1881 67.5572 36.629 66.5317 40.97C66.531 40.9727 66.5297 40.9752 66.5277 40.9771L66.5214 40.9835Z" fill="#FBB916"/>
<path d="M93.8388 121.285C93.8343 121.281 93.8317 121.274 93.8317 121.268V120.787C93.8317 120.525 93.9363 120.275 94.1129 120.081C98.0896 115.722 98.2939 108.624 98.2939 102.495V47.2305C98.2939 41.1358 98.1001 33.9038 94.0157 29.6074C93.8996 29.4852 93.8317 29.3238 93.8317 29.1552C93.8317 28.8036 94.1167 28.5186 94.4683 28.5186H98.2939C107.595 28.5186 116.574 26.6287 122.148 23.2647C122.259 23.1977 122.385 23.1621 122.514 23.1621C122.901 23.1621 123.214 23.4754 123.214 23.8619V102.509C123.214 108.676 123.353 115.841 127.425 120.204C127.539 120.326 127.605 120.486 127.605 120.653C127.605 121.006 127.319 121.292 126.966 121.292H93.8561C93.8496 121.292 93.8434 121.29 93.8388 121.285Z" stroke="#018562" stroke-width="24" mask="url(#path-1-outside-1_86_2293)"/>
<path d="M133.293 100.652C133.293 76.931 156.154 77.8727 170.601 69.8538C170.913 69.6805 171.102 69.3517 171.098 68.9946C171.018 61.6749 169.416 51.6299 165.541 51.6299C159.91 51.6299 160.951 70.7417 147.835 70.7417C141.448 70.7417 136.587 66.1995 136.587 59.3289C136.587 54.2524 139.23 51.0376 141.765 49.3456C142.081 49.1349 142.49 49.148 142.812 49.3482C144.924 50.6608 146.797 51.4299 149.973 51.4299C156.075 51.4299 160.338 48.1304 169.676 48.1304C185.671 48.1304 196.022 60.5716 196.022 81.4832V102.523C196.022 108.69 196.215 115.856 200.303 120.218C200.417 120.34 200.484 120.501 200.484 120.668C200.484 121.021 200.198 121.307 199.845 121.307H176.339C175.917 121.307 175.54 121.041 175.398 120.643L173.421 115.113C173.122 114.276 171.927 114.202 171.445 114.949C168.276 119.85 163.211 122.207 156.004 122.207C141.106 122.207 133.293 113.336 133.293 100.681V100.652ZM171.101 97.424V74.5534C171.101 73.7817 170.26 73.3061 169.607 73.7168C159.64 79.9823 158.199 86.0211 158.199 96.0528C158.199 107.608 160.324 115.579 165.199 115.579C170.075 115.579 171.101 108.151 171.101 97.424Z" stroke="#018562" stroke-width="24" mask="url(#path-1-outside-1_86_2293)"/>
<path d="M218.86 119.578C218.86 119.57 218.854 119.564 218.846 119.564C216.226 119.565 213.989 119.95 212.415 120.858C212.067 121.059 211.633 121.092 211.304 120.862C208.788 119.099 206.229 115.377 206.229 108.98C206.229 102.866 210.62 98.3953 215.695 98.3953C227.642 98.3953 238.349 118.336 244.721 118.336C246.161 118.336 246.846 117.164 246.846 115.522C246.846 106.166 207.598 89.1251 207.598 64.6425C207.598 51.5156 220.158 48.0732 227.842 48.0732C237.935 48.0732 245.962 50.6158 250.139 50.6158C252.625 50.6158 253.994 50.1792 255.363 49.3259C255.695 49.1194 256.115 49.0972 256.441 49.3134C259.011 51.0219 261.943 54.3815 261.943 60.7287C261.943 66.8422 258.849 71.7987 252.063 71.7987C240.117 71.7987 233.331 51.787 227.015 51.787C225.575 51.787 224.62 52.8869 224.62 54.7438C224.62 64.4425 264.082 84.04 264.082 106.18C264.082 115.122 257.909 122.135 243.909 122.135C237.397 122.135 228.677 119.595 218.875 119.593C218.867 119.593 218.86 119.586 218.86 119.578Z" stroke="#018562" stroke-width="24" mask="url(#path-1-outside-1_86_2293)"/>
<path d="M282.886 119.578C282.886 119.57 282.879 119.564 282.871 119.564C280.252 119.565 278.015 119.95 276.441 120.858C276.092 121.059 275.658 121.092 275.329 120.862C272.813 119.099 270.255 115.377 270.255 108.98C270.255 102.866 274.646 98.3953 279.721 98.3953C291.668 98.3953 302.374 118.336 308.747 118.336C310.187 118.336 310.871 117.164 310.871 115.522C310.871 106.166 271.623 89.1251 271.623 64.6425C271.623 51.5156 284.183 48.0732 291.867 48.0732C301.961 48.0732 309.987 50.6158 314.164 50.6158C316.65 50.6158 318.019 50.1792 319.389 49.3259C319.72 49.1194 320.141 49.0972 320.466 49.3134C323.036 51.0219 325.969 54.3815 325.969 60.7287C325.969 66.8422 322.875 71.7987 316.089 71.7987C304.142 71.7987 297.356 51.787 291.04 51.787C289.6 51.787 288.645 52.8869 288.645 54.7438C288.645 64.4425 328.107 84.04 328.107 106.18C328.107 115.122 321.934 122.135 307.934 122.135C301.422 122.135 292.703 119.595 282.9 119.593C282.892 119.593 282.886 119.586 282.886 119.578Z" stroke="#018562" stroke-width="24" mask="url(#path-1-outside-1_86_2293)"/>
<path d="M333.81 100.652C333.81 76.931 356.67 77.8727 371.117 69.8538C371.429 69.6805 371.618 69.3517 371.614 68.9946C371.534 61.6749 369.932 51.6299 366.057 51.6299C360.426 51.6299 361.467 70.7417 348.351 70.7417C341.964 70.7417 337.103 66.1995 337.103 59.3289C337.103 54.2524 339.746 51.0376 342.281 49.3456C342.597 49.1349 343.006 49.148 343.328 49.3482C345.44 50.6608 347.313 51.4299 350.49 51.4299C356.591 51.4299 360.854 48.1304 370.192 48.1304C386.188 48.1304 396.538 60.5716 396.538 81.4832V102.523C396.538 108.69 396.732 115.856 400.819 120.218C400.933 120.34 401 120.501 401 120.668C401 121.021 400.714 121.307 400.361 121.307H376.856C376.433 121.307 376.056 121.041 375.914 120.643L373.937 115.113C373.638 114.276 372.444 114.202 371.961 114.949C368.792 119.85 363.727 122.207 356.52 122.207C341.622 122.207 333.81 113.336 333.81 100.681V100.652ZM371.618 97.424V74.5534C371.618 73.7817 370.777 73.3061 370.123 73.7168C360.156 79.9823 358.715 86.0211 358.715 96.0528C358.715 107.608 360.84 115.579 365.715 115.579C370.591 115.579 371.618 108.151 371.618 97.424Z" stroke="#018562" stroke-width="24" mask="url(#path-1-outside-1_86_2293)"/>
<path d="M80.502 54.3438C80.5098 54.3438 80.5162 54.3375 80.5162 54.3296V49.7135C80.5162 49.3283 80.2039 49.016 79.8187 49.016C79.6876 49.016 79.5605 49.0524 79.4488 49.121C73.9444 52.4973 64.9797 54.3724 55.5961 54.3724H51.775C51.4287 54.3724 51.1481 54.6531 51.1481 54.9993C51.1481 55.165 51.2146 55.3237 51.3286 55.4439C55.4022 59.7399 55.5961 66.9739 55.5961 73.07V97.4097C55.5961 108.137 54.6409 115.565 49.6939 115.565C44.7469 115.565 41.3111 110.608 41.3111 85.097V64.4425C41.1258 61.2715 40.5841 58.2433 39.5148 55.458C39.358 55.0723 39.1869 54.6867 39.0159 54.3153C38.4314 53.0012 37.747 51.8013 36.9059 50.7729C34.1402 47.3305 29.8347 45.8164 23.0772 48.4018C18.0778 50.3228 13.4604 53.1796 12.0162 54.2885C12.0063 54.2962 12.004 54.3091 12.0096 54.3203L12.0206 54.3424C12.0243 54.3496 12.019 54.3581 12.0109 54.3581C12.0049 54.3581 12 54.363 12 54.369V54.9846C12 55.1505 12.0666 55.3092 12.181 55.4295C14.9634 58.3555 15.9131 62.6506 16.2341 67.0279C16.2341 67.1136 16.2341 67.1993 16.2341 67.2708C16.3625 69.2276 16.3767 71.1845 16.3767 73.0414V85.0827C16.3767 106.194 25.5721 122.135 40.47 122.135C41.4109 122.135 42.2948 122.092 43.1645 122.007C49.1869 121.465 53.5066 118.983 56.2174 114.39C56.7106 113.555 58.0905 113.665 58.3312 114.605L59.8372 120.483C59.9505 120.926 60.3492 121.235 60.8059 121.235H84.2964C84.6495 121.235 84.9357 120.949 84.9357 120.596C84.9357 120.429 84.8697 120.269 84.7556 120.147C84.1483 119.498 83.6238 118.79 83.1822 118.036C80.6303 113.693 80.4877 107.723 80.4877 102.466V54.3581C80.4877 54.3502 80.4941 54.3438 80.502 54.3438Z" stroke="#018562" stroke-width="24" mask="url(#path-1-outside-1_86_2293)"/>
<path d="M67.0297 48.3338C67.0297 48.3378 67.0248 48.3398 67.022 48.3369L66.922 48.2368C66.9089 48.2236 66.9023 48.2054 66.9039 48.1869C67.033 46.6825 67.2886 45.1783 67.6427 43.6881C67.8565 43.0167 68.0561 42.274 68.2415 41.5169C70.635 33.8643 75.8063 27.3554 82.6187 23.3088C83.2165 22.9537 83.9676 23.3368 84.0213 24.03C84.873 35.0206 77.7872 45.343 67.033 48.3294C67.031 48.33 67.0297 48.3317 67.0297 48.3338Z" stroke="#018562" stroke-width="24" mask="url(#path-1-outside-1_86_2293)"/>
<path d="M63.5083 48.8303C63.517 48.8477 63.5148 48.8686 63.5027 48.8838L63.4752 48.9183C63.4688 48.9262 63.4635 48.935 63.4594 48.9443L63.4551 48.9539C63.4263 49.0189 63.3647 49.0639 63.294 49.0717C51.8534 50.3285 41.3248 43.052 38.3165 32.0791C38.1362 31.4216 38.6885 30.8109 39.3622 30.9156C47.4248 32.1686 54.7849 36.4699 59.8587 42.9596L60.0726 43.2453C60.429 43.7166 60.7283 44.1309 60.9992 44.5165L61.0549 44.6169C61.0652 44.6356 61.0782 44.6528 61.0933 44.6679C61.1066 44.6812 61.1181 44.6961 61.1281 44.7121C61.1329 44.72 61.1386 44.7289 61.1442 44.7375C61.1604 44.7624 61.1787 44.786 61.1954 44.8106C62.069 46.0992 62.8446 47.4437 63.5083 48.8303Z" stroke="#018562" stroke-width="24" mask="url(#path-1-outside-1_86_2293)"/>
<path d="M66.5214 40.9835C66.5143 40.9906 66.5022 41.0173 66.5022 41.0273C66.5022 41.0282 66.5021 41.0317 66.5019 41.0326C66.3024 41.832 66.1172 42.5457 65.9177 43.1739C65.7591 43.7036 65.5805 44.2373 65.384 44.7707C65.1351 45.4465 64.2688 45.6005 63.7979 45.0557C63.4342 44.6348 63.0824 44.2082 62.7385 43.7738L61.598 42.2026L61.5267 42.0883L61.4839 42.0311L61.4554 41.9883C61.4554 41.9883 61.4269 41.9454 61.4127 41.9169C58.9178 38.2174 57.2498 34.0893 56.4372 29.6327C55.4015 23.8798 55.9209 18.0423 57.9289 12.62C58.1786 11.9457 59.0426 11.7882 59.514 12.3311C63.3046 16.6959 65.8241 21.9668 66.8729 27.733C67.671 32.1881 67.5572 36.629 66.5317 40.97C66.531 40.9727 66.5297 40.9752 66.5277 40.9771L66.5214 40.9835Z" stroke="#018562" stroke-width="24" mask="url(#path-1-outside-1_86_2293)"/>
</svg>
