<svg width="80" height="80" viewBox="0 0 80 80" fill="none" xmlns="http://www.w3.org/2000/svg">
<g clip-path="url(#clip0_37_15)">
<path d="M40.0034 80.0069C62.0967 80.0069 80.0069 62.0967 80.0069 40.0034C80.0069 17.9102 62.0967 0 40.0034 0C17.9102 0 0 17.9102 0 40.0034C0 62.0967 17.9102 80.0069 40.0034 80.0069Z" fill="#774D94"/>
<path d="M15.7229 21.6623C20.7251 19.1406 25.5825 17.5352 30.9498 18.989C36.827 20.5806 39.7691 25.8308 38.0534 31.6459C37.8881 32.1971 37.8192 32.6726 38.0672 33.2169C38.6598 34.5466 39.0112 35.9591 39.3694 37.5507C40.148 36.6619 40.8026 36.0418 40.2996 34.712C38.9836 31.2463 41.0231 26.32 44.6472 23.7844C49.608 20.3119 56.1053 20.429 61.7 24.0945C62.5268 24.6388 63.3123 25.2313 64.2838 25.9203C63.5396 26.2097 63.0091 26.4233 62.4786 26.6162C59.8121 27.5808 57.7658 29.2413 56.3465 31.7424C54.3552 35.2494 51.4959 37.6127 47.293 37.9434C45.8667 38.0537 44.4612 37.8676 43.159 37.2958C42.3666 36.9513 42.0428 37.2062 41.6638 37.8676C40.5614 39.8175 39.645 41.8363 39.1834 44.0411C39.0387 44.7301 38.8527 45.4949 37.9294 45.302C36.9235 45.0953 37.0337 44.3098 37.2749 43.5657C38.3153 40.3274 37.3851 37.2889 36.3998 34.2435C36.1656 33.5063 35.7384 33.4167 35.0494 33.5545C32.1625 34.147 29.6614 33.3409 27.4773 31.4117C27.2361 31.1981 26.995 30.9914 26.7676 30.7709C25.0795 29.1173 23.6395 27.2226 21.8619 25.6447C20.0843 24.0669 18.0586 22.8818 15.7298 21.6485L15.7229 21.6623ZM42.1255 33.7061C42.6422 33.1342 43.028 32.6932 43.4346 32.266C46.0734 29.4963 49.0637 27.2501 52.7499 26.0444C53.432 25.8239 54.1554 25.5827 54.4724 26.4715C54.7893 27.3604 54.1141 27.6497 53.4182 27.884C49.6769 29.1311 46.7487 31.515 44.1511 34.3951C43.5035 35.1116 43.5241 35.4148 44.5232 35.7111C47.8304 36.6826 51.5372 35.3941 53.7696 32.0525C55.4714 29.5032 57.0699 26.9401 60.0257 25.5345C55.8642 22.5994 50.0834 22.5305 45.9908 25.2589C43.1245 27.1674 41.4502 30.6745 42.1255 33.6992V33.7061ZM20.2634 21.8897C21.104 22.5511 21.917 23.1919 22.7232 23.8327C24.7695 25.4518 26.3129 27.5602 28.1525 29.3791C29.6959 30.9156 31.4597 31.9284 33.7196 31.7837C34.1124 31.7562 34.6291 31.8458 34.8014 31.4117C34.9392 31.0672 34.5602 30.7571 34.3604 30.4609C32.8377 28.2629 30.9361 26.4647 28.6141 25.128C27.9734 24.7559 27.3808 24.3425 27.8769 23.5364C28.373 22.7303 29.062 23.0885 29.6545 23.4675C30.4193 23.9567 31.1703 24.4734 31.9007 25.004C33.6783 26.2924 34.9874 28.0218 36.3585 29.7994C36.951 27.4637 36.3172 25.1487 34.6842 23.433C31.4666 20.0569 25.1553 19.3542 20.2565 21.8828L20.2634 21.8897Z" fill="#FAF3E1"/>
<path d="M62.2029 39.4247C61.8722 38.8252 61.5208 38.2465 61.1143 37.6746C60.377 36.6204 59.7638 36.4826 58.6752 37.1992C57.5246 37.9571 56.367 38.7081 55.2095 39.4522C52.1297 41.4641 49.0499 43.4622 45.9631 45.4534C42.9866 47.4515 40.0101 49.4428 37.0268 51.4271C35.8761 52.1919 34.7255 52.9567 33.5749 53.7146C32.4862 54.4311 32.3622 55.0443 33.0306 56.1467C33.4026 56.7462 33.7954 57.3112 34.2225 57.8486C38.0809 62.7336 44.1442 65.0487 50.0696 64.1116C50.3865 64.0703 50.6966 64.0014 51.0135 63.9394C51.5027 63.8291 51.9919 63.6982 52.4742 63.5466C52.6396 63.4984 52.798 63.4433 52.9634 63.3882C53.6455 63.147 54.3276 62.8714 54.989 62.5338C55.1062 62.4787 55.2233 62.4167 55.3404 62.3547C55.368 62.3409 55.3956 62.3202 55.43 62.3064C55.4438 62.3064 55.4507 62.2995 55.4645 62.2926C55.4989 62.272 55.5334 62.2582 55.5678 62.2375C55.6987 62.1617 55.8365 62.0997 55.9674 62.017C56.1466 61.9137 56.3188 61.8103 56.4911 61.6932C56.6013 61.6312 56.7047 61.5623 56.8149 61.4934C57.1801 61.2454 57.5384 60.9767 57.8897 60.701C64.449 55.5129 66.0958 46.6041 62.2098 39.4385L62.2029 39.4247ZM58.3169 57.635L58.2618 57.6901C58.0689 57.8968 57.8691 58.0966 57.6693 58.2895C57.4694 58.4756 57.2696 58.6478 57.0698 58.827C57.0698 58.8407 57.0492 58.8476 57.0423 58.8545C56.932 58.9441 56.8218 59.0337 56.7047 59.1232C56.6013 59.2128 56.4911 59.2955 56.3739 59.3713C56.2361 59.4815 56.0915 59.5849 55.9399 59.6813C52.426 62.1342 48.1059 62.9265 44.1235 62.017C43.7583 61.9275 43.4 61.8379 43.0418 61.7277C42.8419 61.6656 42.6352 61.5968 42.4354 61.5279C42.0978 61.4038 41.7671 61.2798 41.4364 61.1213C40.1962 60.577 39.0249 59.8398 37.9638 58.9165C37.9363 58.8959 37.9156 58.8683 37.888 58.8476C37.8053 58.7787 37.7296 58.7029 37.6538 58.6272C36.8339 57.9244 36.1035 57.1182 35.4558 56.2088C35.4283 56.1674 35.4007 56.133 35.3869 56.0985C34.9391 55.4371 35.0287 55.0926 35.7452 54.6309C39.3625 52.247 42.9729 49.8562 46.5832 47.4515C50.6139 44.8264 54.6583 42.1876 58.6752 39.5349C59.378 39.0733 59.7225 39.1215 60.1359 39.7416C60.1634 39.7898 60.1979 39.845 60.2323 39.9001C60.8524 40.9198 61.3279 42.0015 61.6655 43.1177C61.6861 43.1728 61.7068 43.2211 61.7206 43.2762C63.3329 48.3748 61.886 53.8524 58.3238 57.6281L58.3169 57.635Z" fill="#FAF3E1"/>
<path d="M47.7477 59.1094C47.7959 60.0671 47.4928 60.3221 45.5842 60.0258C42.9523 59.6193 40.6579 58.51 38.7356 56.6704C37.7503 55.7195 37.8054 55.1959 38.956 54.4311C41.0713 53.0324 43.1934 51.6337 45.3293 50.2626C46.5351 49.491 47.1414 49.8148 47.2447 51.2686C47.4032 53.5767 47.541 55.8849 47.7408 59.1094H47.7477ZM40.6579 55.6782C41.9325 56.8702 43.3794 57.4558 44.909 57.9174C45.4533 58.0828 45.6738 57.9243 45.6394 57.3594C45.5567 56.0434 45.4878 54.7274 45.4189 53.4114C45.3913 52.8533 45.2122 52.6466 44.6748 53.0118C43.3588 53.8937 42.0359 54.7618 40.651 55.6782H40.6579Z" fill="#FAF3E1"/>
<path d="M48.8982 50.6691C48.8775 49.7459 49.4907 49.3049 50.731 49.9181C52.8462 50.9585 54.9545 52.0196 57.0491 53.0944C58.3031 53.7421 58.3858 54.1761 57.5314 55.2992C55.9122 57.4213 53.7901 58.8407 51.2477 59.6261C49.9524 60.0258 49.4632 59.6813 49.3805 58.3584C49.222 55.9607 49.0774 53.5629 48.8982 50.6691ZM51.0823 54.3828C51.2408 55.2234 50.855 57.0217 51.5095 57.194C52.6739 57.4971 53.7419 56.2707 54.7134 55.4508C54.8167 55.3612 54.9063 55.251 55.0097 55.1683C55.4851 54.7687 55.492 54.4655 54.8719 54.1899C54.1277 53.8523 53.4043 53.4665 52.6739 53.1013C51.544 52.5363 51.0111 52.9658 51.0755 54.3897L51.0823 54.3828Z" fill="#FAF3E1"/>
<path d="M60.2393 47.4859C60.198 48.5952 60.0808 49.7734 59.7432 50.9103C59.4745 51.8197 58.9095 52.1642 57.9863 51.6957C55.8021 50.5933 53.5973 49.5185 51.4201 48.3954C50.2763 47.8097 50.2143 47.0725 51.2478 46.3628C53.2666 44.9779 55.3061 43.6206 57.3731 42.3046C58.4755 41.6018 58.9578 41.8016 59.4125 43.0212C59.943 44.4336 60.1704 45.915 60.2324 47.4859H60.2393ZM53.5353 47.231C54.9478 47.9475 56.1122 48.547 57.2766 49.1326C57.6487 49.3187 58.0759 49.5598 58.1516 48.857C58.2894 47.5893 58.2963 46.3353 57.9587 45.0882C57.8278 44.6128 57.6349 44.4888 57.2077 44.7712C56.0502 45.5498 54.8927 46.3215 53.5284 47.231H53.5353Z" fill="#FAF3E1"/>
<path d="M33.9952 43.8551C34.698 41.7812 33.8712 39.6453 32.1694 38.474C32.1625 38.4602 32.1556 38.4602 32.1418 38.4533C31.6457 38.1019 31.067 37.8401 30.4331 37.6885C29.9508 37.5714 29.5925 37.3785 29.248 37.0409C29.2273 37.0202 29.2067 36.9995 29.186 36.972C29.1515 36.9444 29.124 36.9099 29.0964 36.8824C27.3877 34.9738 24.1838 34.8705 22.3373 36.593H22.3304C22.234 36.6757 22.1375 36.7721 22.0479 36.8755C21.9859 36.9375 21.9308 36.9995 21.8688 37.0546C21.4898 37.4129 21.0833 37.5852 20.5804 37.7092C20.0981 37.8332 19.6571 38.0192 19.2575 38.2604C19.2506 38.2604 19.2437 38.2673 19.2368 38.2742C17.7348 39.1699 16.846 40.8166 16.9149 42.5735C17.0596 43.4899 17.5556 44.3305 17.2042 45.3847C16.4946 47.4655 17.3352 49.6082 19.0508 50.7864C19.0508 50.7933 19.0577 50.7864 19.0577 50.7864C19.5606 51.1378 20.1394 51.3996 20.7733 51.5512C21.2556 51.6684 21.607 51.8613 21.9515 52.1989C21.9721 52.2196 21.9928 52.2402 22.0135 52.2678C22.0479 52.2954 22.0755 52.3298 22.1031 52.3574C23.8118 54.2659 27.0225 54.3692 28.869 52.6467C28.9655 52.5641 29.062 52.4676 29.1515 52.3643C29.2135 52.3022 29.2687 52.2402 29.3307 52.1851C29.7096 51.8268 30.1161 51.6546 30.6191 51.5306C31.1014 51.4065 31.5424 51.2205 31.942 50.9794C31.9489 50.9794 31.9558 50.9794 31.9627 50.9794C33.4578 50.0768 34.3466 48.4369 34.2846 46.6869C34.1468 45.7636 33.6438 44.9161 33.9952 43.862V43.8551ZM31.6733 45.2813C31.6733 45.2813 31.7146 45.3295 31.7422 45.3571C32.6723 46.2735 32.4587 47.245 31.9213 48.2165C31.377 49.2086 30.5984 49.8218 29.3582 49.5393C28.869 49.4291 28.4694 49.5187 28.2214 49.8494C28.1318 49.9734 28.056 50.1319 28.0147 50.3248C27.7322 51.5581 26.7676 51.8544 25.741 51.8613C24.7695 51.8682 23.7842 51.7028 23.3708 50.6624C23.3295 50.5797 23.3019 50.4833 23.2744 50.3868C23.233 50.2283 23.1779 50.0974 23.109 49.9872C23.0401 49.877 22.9574 49.7874 22.861 49.7116C22.6129 49.5256 22.2615 49.4842 21.8206 49.5325C21.7034 49.5462 21.5794 49.5531 21.4623 49.5393C21.414 49.5462 21.3589 49.5462 21.3107 49.5462C20.6561 49.5531 20.1807 49.2982 19.8018 48.8986C19.2713 48.4645 18.913 47.8582 18.8992 47.2243C18.7269 46.6318 18.789 46.0461 19.3057 45.5294C19.3402 45.488 19.3815 45.4536 19.4159 45.4122H19.4228C19.8431 44.9299 19.9809 44.4614 19.5262 43.9584C19.5055 43.9309 19.4848 43.9102 19.4573 43.8826C18.5271 42.9663 18.7476 41.9948 19.2781 41.0233C19.8225 40.0311 20.601 39.4179 21.8412 39.7004C22.3304 39.8106 22.73 39.7211 22.9781 39.3903C23.0677 39.2663 23.1434 39.1079 23.1848 38.9149C23.4673 37.6816 24.4319 37.3854 25.4585 37.3785C26.4438 37.3716 27.4221 37.5369 27.8355 38.5911C27.87 38.6738 27.8976 38.7634 27.9251 38.8529C27.9665 39.0114 28.0285 39.1423 28.0974 39.2525C28.1318 39.3077 28.1663 39.3628 28.2076 39.4041C28.2489 39.4524 28.2972 39.4937 28.3385 39.5281C28.5934 39.7142 28.9379 39.7555 29.3789 39.7073C29.496 39.6935 29.6201 39.6866 29.7372 39.7004C29.7854 39.7004 29.8405 39.7004 29.8888 39.7004C30.5433 39.6935 31.0187 39.9484 31.3977 40.3481C31.9282 40.7821 32.2865 41.3885 32.3003 42.0223C32.4725 42.6149 32.4105 43.2005 31.8938 43.7173C31.8524 43.7586 31.818 43.7931 31.7835 43.8344C31.7835 43.8344 31.7835 43.8344 31.7766 43.8344C31.3563 44.3098 31.2185 44.7783 31.6733 45.2813Z" fill="#FAF3E1"/>
<path d="M21.7998 44.5647C21.8205 42.4357 23.5361 40.7614 25.6444 40.8096C27.7046 40.8578 29.3513 42.5321 29.3582 44.5853C29.3582 46.8384 27.7046 48.4851 25.486 48.4437C23.3018 48.4024 21.786 46.8039 21.8067 44.5647H21.7998ZM25.61 42.7802C24.6523 42.7595 23.7772 43.6001 23.7497 44.5853C23.7221 45.5706 24.5214 46.425 25.5273 46.4663C26.4712 46.5077 27.3532 45.6533 27.3807 44.668C27.4083 43.6896 26.5815 42.8008 25.61 42.7802Z" fill="#FAF3E1"/>
</g>
<defs>
<clipPath id="clip0_37_15">
<rect width="80" height="80" fill="white"/>
</clipPath>
</defs>
</svg>
