<svg width="80" height="80" viewBox="0 0 80 80" fill="none" xmlns="http://www.w3.org/2000/svg">
<g clip-path="url(#clip0_37_7)">
<path d="M40.0034 80.0069C62.0967 80.0069 80.0069 62.0967 80.0069 40.0034C80.0069 17.9102 62.0967 0 40.0034 0C17.9102 0 0 17.9102 0 40.0034C0 62.0967 17.9102 80.0069 40.0034 80.0069Z" fill="#56AC45"/>
<path fill-rule="evenodd" clip-rule="evenodd" d="M52.5922 60.0493C57.6175 62.4468 62.6956 61.7595 68.0831 60.1907C66.0163 58.5521 64.2329 57.0064 62.7696 55.1319C61.3149 53.246 60.2286 51.1201 58.8733 49.1767C58.7005 48.9177 58.4979 48.6681 58.2954 48.4184C56.4933 46.113 54.1612 44.8619 51.2158 44.92C50.5353 44.9371 49.8256 44.8327 49.0605 45.1835C48.665 45.3649 48.1402 45.7716 47.8939 46.2714C45.1424 51.6996 47.0833 57.4146 52.5922 60.0493ZM63.6565 59.1352L63.6519 59.13C58.3598 60.7157 52.275 58.8783 49.7249 54.9585C48.4293 52.9767 48.2241 50.5803 49.2365 48.382C50.2657 50.3887 51.2369 52.3354 52.7558 53.927C53.3848 54.5778 54.0334 55.229 54.6924 55.8508C55.1963 56.332 55.8182 56.8153 56.4507 56.1073C57.0732 55.4089 56.57 54.8882 56.0071 54.4059C53.959 52.6674 52.4098 50.5435 51.3092 48.1022C51.1671 47.7749 50.8484 47.4051 51.0507 47.0934C51.2937 46.7036 51.7929 46.8796 52.186 46.9257C54.4365 47.1906 55.9894 48.5169 57.239 50.3108C58.7191 52.4434 59.8507 54.7965 61.5798 56.766C62.2639 57.5539 62.9485 58.3222 63.6519 59.13C63.6568 59.1285 63.6616 59.127 63.6665 59.1256L63.6565 59.1352Z" fill="#FAF3E1"/>
<path fill-rule="evenodd" clip-rule="evenodd" d="M28.6317 65.6872C33.6571 68.0848 38.7351 67.3974 44.1227 65.8286C42.0559 64.19 40.2725 62.6443 38.8092 60.7699C37.3544 58.8839 36.2681 56.758 34.9128 54.8146C34.74 54.5557 34.5375 54.306 34.3349 54.0564C32.5329 51.7509 30.2007 50.4999 27.2554 50.5579C26.5748 50.575 25.8652 50.4706 25.1 50.8214C24.7045 51.0029 24.1797 51.4096 23.9334 51.9094C21.182 57.3375 23.1228 63.0525 28.6317 65.6872ZM39.696 64.7732L39.6914 64.7679C34.3993 66.3536 28.3145 64.5162 25.7645 60.5964C24.4689 58.6147 24.2636 56.2183 25.276 54.0199C26.3053 56.0266 27.2765 57.9733 28.7953 59.5649C29.4243 60.2158 30.073 60.8669 30.732 61.4887C31.2358 61.97 31.8578 62.4533 32.4903 61.7452C33.1127 61.0468 32.6095 60.5262 32.0466 60.0439C29.9985 58.3053 28.4494 56.1814 27.3488 53.7402C27.2066 53.4128 26.888 53.043 27.0903 52.7313C27.3332 52.3416 27.8324 52.5175 28.2256 52.5636C30.4761 52.8285 32.029 54.1549 33.2785 55.9487C34.7586 58.0813 35.8903 60.4345 37.6193 62.4039C38.3035 63.1918 38.988 63.9602 39.6914 64.7679C39.6963 64.7664 39.7012 64.765 39.7061 64.7635L39.696 64.7732Z" fill="#FAF3E1"/>
<path fill-rule="evenodd" clip-rule="evenodd" d="M19.8862 31.6898C14.7055 33.7302 11.7452 37.913 9.21847 42.9232C11.8264 42.5291 14.1732 42.2789 16.542 42.4869C18.9135 42.7091 21.2091 43.3644 23.5547 43.6984C23.862 43.7486 24.1827 43.7708 24.5034 43.7929C27.4186 44.0471 29.924 43.1946 31.8902 41.0008C32.3418 40.4914 32.9021 40.0436 33.1673 39.2447C33.3043 38.8317 33.3648 38.1705 33.1672 37.6495C31.0735 31.9354 25.57 29.4574 19.8862 31.6898ZM13.0092 40.4054L13.0162 40.4057C15.4655 35.4537 20.959 32.2564 25.5649 33.0645C27.8978 33.4684 29.7905 34.9525 30.7079 37.1922C28.5383 36.5764 26.4523 35.9592 24.2523 35.9846C23.3474 36.0008 22.4288 36.0312 21.5246 36.0891C20.829 36.1294 20.0514 36.2547 20.1379 37.2002C20.2242 38.1317 20.9482 38.1188 21.6848 38.036C24.3531 37.7236 26.963 38.039 29.499 38.8989C29.8354 39.0182 30.3232 39.0374 30.4132 39.3978C30.5325 39.8413 30.0634 40.0865 29.7616 40.3426C28.0331 41.8079 26.004 42.0392 23.8398 41.7297C21.2707 41.3579 18.7779 40.5808 16.1583 40.5023C15.1155 40.4654 14.0867 40.4421 13.0162 40.4057C13.014 40.4102 13.0117 40.4148 13.0095 40.4194L13.0092 40.4054Z" fill="#FAF3E1"/>
<path d="M30.3808 12.2536C35.4777 12.0553 40.1073 12.5647 44.0104 15.7854C48.2834 19.318 48.7357 24.779 45.118 28.9552C44.7795 29.355 44.535 29.7152 44.528 30.2593C44.5166 31.5797 44.2669 32.8917 43.9691 34.3481C44.9503 33.8984 45.7222 33.6425 45.809 32.3516C46.0261 28.9856 49.5708 25.6691 53.5316 24.9443C58.9542 23.9448 64.2953 26.4958 67.5437 31.6418C68.0254 32.4001 68.4413 33.1964 68.9959 34.1316C68.2681 34.0847 67.7521 34.076 67.2282 34.0282C64.6557 33.8201 62.3298 34.4185 60.2135 35.9615C57.2391 38.1167 53.9783 38.992 50.3769 37.6846C49.155 37.2369 48.0606 36.555 47.1923 35.582C46.6644 34.9963 46.2963 35.092 45.7367 35.4881C44.0815 36.6919 42.5695 38.0173 41.3491 39.6708C40.9719 40.1805 40.5244 40.7454 39.8369 40.2373C39.0786 39.6825 39.4726 39.0754 39.9564 38.548C42.0396 36.265 42.4219 33.3875 42.7524 30.4961C42.8293 29.7949 42.5146 29.5532 41.8946 29.4149C39.2874 28.8181 37.5083 27.2031 36.4281 24.7758C36.3046 24.5114 36.1811 24.2469 36.0859 23.9808C35.3195 21.9708 34.8303 19.8593 33.9638 17.878C33.0863 15.903 31.8538 14.1476 30.3918 12.2473L30.3808 12.2536ZM47.7088 32.2036C48.3552 31.9326 48.8403 31.7109 49.3381 31.5111C52.5734 30.2125 55.8991 29.4748 59.4118 29.87C60.0675 29.9439 60.7515 30.0161 60.6785 30.8758C60.6055 31.7354 59.9359 31.7133 59.2691 31.6457C55.7064 31.2648 52.3719 32.139 49.126 33.5459C48.32 33.8944 48.2224 34.1551 48.9449 34.7744C51.3171 36.8353 54.8765 37.1597 57.9836 35.2344C60.3589 33.7608 62.6525 32.2469 65.6285 32.1928C63.2868 28.1875 58.5256 25.9585 54.099 26.6603C51.0028 27.1634 48.2954 29.4271 47.7088 32.2036ZM34.0632 14.1565C34.5061 15.0248 34.9411 15.854 35.3713 16.7004C36.4611 18.8155 36.9403 21.1372 37.7749 23.3413C38.481 25.1963 39.5571 26.7063 41.4812 27.4347C41.8174 27.5618 42.2184 27.8266 42.5182 27.5367C42.7649 27.3067 42.5655 26.9108 42.5124 26.5912C42.0799 24.1987 41.1826 21.987 39.7609 20.0051C39.3712 19.4564 39.0425 18.8871 39.7444 18.4089C40.4573 17.9243 40.8988 18.4869 41.2368 19.0216C41.6805 19.7143 42.1086 20.4306 42.5195 21.1422C43.5072 22.8783 43.9345 24.8067 44.3997 26.8008C45.7751 25.087 46.1214 22.931 45.4162 20.9004C44.0309 16.8829 39.0674 13.9241 34.0523 14.1629L34.0632 14.1565Z" fill="#FAF3E1"/>
</g>
<defs>
<clipPath id="clip0_37_7">
<rect width="80" height="80" fill="white"/>
</clipPath>
</defs>
</svg>
