<svg width="80" height="80" viewBox="0 0 80 80" fill="none" xmlns="http://www.w3.org/2000/svg">
<g clip-path="url(#clip0_31_2729)">
<path d="M40.0034 80.0069C62.0967 80.0069 80.0069 62.0967 80.0069 40.0034C80.0069 17.9102 62.0967 0 40.0034 0C17.9102 0 0 17.9102 0 40.0034C0 62.0967 17.9102 80.0069 40.0034 80.0069Z" fill="#FBB916"/>
<path d="M44.2202 61.7828C38.8666 60.1361 34.2503 57.9382 31.3772 53.1772C28.2353 47.9614 29.7442 42.1325 35.0082 39.1215C35.5043 38.839 35.8832 38.5428 36.0899 37.9778C36.586 36.6067 37.3095 35.3458 38.15 33.9471C36.9719 34.0505 36.0762 34.0436 35.5181 35.3527C34.0712 38.7701 29.193 40.9129 24.8179 40.2308C18.8304 39.3007 14.221 34.7257 12.719 28.2077C12.4985 27.2431 12.34 26.2716 12.1127 25.1003C12.8499 25.4104 13.3804 25.6171 13.9041 25.8445C16.4947 26.9951 19.1198 27.2087 21.8758 26.3888C25.7411 25.2381 29.4411 25.5069 32.7 28.1733C33.8093 29.0759 34.6913 30.1921 35.2356 31.5081C35.5663 32.3073 35.9797 32.3486 36.71 32.1282C38.8597 31.4805 40.9129 30.6606 42.7733 29.3859C43.352 28.9863 44.0135 28.566 44.5509 29.3446C45.1365 30.1921 44.5095 30.6813 43.8205 31.0533C40.8303 32.6656 39.3971 35.5112 38.0054 38.3912C37.6677 39.0871 37.9158 39.4454 38.5014 39.8174C40.9956 41.3883 42.2427 43.7034 42.4839 46.6041C42.5114 46.921 42.5459 47.238 42.5528 47.5549C42.6286 49.9182 42.353 52.2815 42.5459 54.6516C42.7388 57.0218 43.3796 59.2817 44.2064 61.7759L44.2202 61.7828ZM33.4924 34.8222C32.7276 34.8773 32.142 34.9255 31.5563 34.9531C27.7323 35.1253 24.0186 34.6775 20.5254 32.9963C19.8777 32.6863 19.1956 32.3555 19.5746 31.4943C19.9604 30.633 20.6494 30.888 21.3108 31.2049C24.873 32.893 28.6418 33.203 32.5071 32.9136C33.4717 32.8447 33.6646 32.6105 33.1479 31.7079C31.4323 28.7176 27.8633 27.0778 23.9428 27.9459C20.9457 28.6074 18.0174 29.3515 14.9169 28.3249C15.8884 33.327 20.0155 37.3715 24.8592 38.2396C28.2491 38.8459 31.8801 37.4679 33.4924 34.8153V34.8222ZM41.099 58.4756C40.9543 57.4145 40.8096 56.3948 40.6649 55.3682C40.3066 52.7844 40.6511 50.1938 40.5891 47.6031C40.5409 45.4328 39.969 43.476 38.2327 42.0153C37.9365 41.7673 37.6195 41.3401 37.1923 41.533C36.8547 41.6846 36.9098 42.1738 36.8547 42.5252C36.4275 45.1641 36.5653 47.7823 37.3164 50.3523C37.5231 51.0619 37.6609 51.7716 36.7445 52.0128C35.8281 52.2539 35.5801 51.5167 35.4147 50.8346C35.2011 49.9526 35.0151 49.0638 34.8566 48.1681C34.4639 46.0115 34.7188 43.8481 34.9531 41.6226C32.9136 42.9041 31.7699 45.0125 31.763 47.3758C31.7492 52.0403 35.8143 56.9116 41.1059 58.4756H41.099Z" fill="#FAF3E1"/>
<path d="M51.0757 29.1104C57.4697 25.9065 65.7721 29.448 67.8047 36.2347C67.9632 36.7583 67.9218 37.027 67.3293 37.027C63.7602 37.027 60.5219 38.467 57.1458 39.3352C53.7422 40.2102 50.4005 40.3825 47.3827 38.1156C46.9486 37.7918 46.6248 37.9089 46.3354 38.281C45.8393 38.9287 45.3501 39.5763 44.8747 40.2447C44.5233 40.7407 44.0686 40.851 43.5725 40.5616C43.0764 40.2722 42.9593 39.8037 43.2004 39.2663C43.2555 39.1423 43.3107 39.0113 43.4002 38.908C45.1985 36.9237 46.4112 34.5948 47.5411 32.1902C48.2232 30.7295 49.6013 29.8063 51.0757 29.1104ZM48.6091 34.2366C50.807 33.2857 52.7224 32.7759 54.7068 32.5692C56.8427 32.3418 58.9786 32.3763 61.0869 32.831C61.7277 32.9688 62.2031 33.3202 62.0171 34.0712C61.8517 34.7326 61.3212 34.8429 60.7217 34.7464C60.4944 34.712 60.2739 34.65 60.0534 34.6155C56.4155 34.1125 52.8878 34.4364 49.5324 36.028C49.2774 36.152 48.8365 36.1727 48.8571 36.5861C48.8778 36.9512 49.2774 37.0408 49.5461 37.1717C51.7578 38.2328 54.0522 38.095 56.3466 37.53C58.951 36.8892 61.4383 35.8144 64.0979 35.4079C65.2209 35.2356 65.0349 34.7809 64.5526 34.1057C62.0653 30.6193 57.511 29.069 53.2736 30.3368C51.3444 30.9156 49.7666 31.9973 48.6229 34.2435L48.6091 34.2366Z" fill="#FAF3E1"/>
</g>
<defs>
<clipPath id="clip0_31_2729">
<rect width="80" height="80" fill="white"/>
</clipPath>
</defs>
</svg>
