<svg width="187" height="37" viewBox="0 0 187 37" fill="none" xmlns="http://www.w3.org/2000/svg">
<g clip-path="url(#clip0_5_95)">
<path d="M29.5247 9.09326C29.5247 3.87696 33.8813 -0.5 38.9929 -0.5C44.1044 -0.5 48.4301 3.87696 48.4301 9.09326C48.4301 14.3096 44.1292 18.7114 38.9929 18.7114C33.8565 18.7114 29.5247 14.3096 29.5247 9.09326ZM46.3075 9.09326C46.3075 4.95877 42.972 1.44601 38.9929 1.44601C35.0137 1.44601 31.6535 4.95877 31.6535 9.09326C31.6535 13.2277 35.0137 16.7654 38.9929 16.7654C42.972 16.7654 46.3075 13.2526 46.3075 9.09326Z" fill="white"/>
<path d="M15.8175 0.115479L8.96075 12.749L2.10404 0.115479H0V18.2388H2.10404V4.5484L8.96075 17.1757L15.8175 4.5484V18.2388H17.9091V0.115479H15.8175Z" fill="white"/>
<path d="M73.6044 0.115479V14.8629L62.1497 0.115479H60.0457V18.2388H62.1497V3.49146L73.6044 18.2388H75.696V0.115479H73.6044Z" fill="white"/>
<path d="M97.5596 0.115479H95.2822L87.126 18.2388H89.4095L91.266 14.123H101.57L103.426 18.2388H105.703L97.5596 0.115479ZM92.1324 12.1708L96.4395 2.65213L100.709 12.1708H92.1324Z" fill="white"/>
<path d="M128.458 15.5343L125.686 11.6672C128.996 11.2755 131.441 9.00618 131.441 5.91619C131.441 2.51534 128.458 0.109253 124.64 0.109253H117.133V18.2326H119.225V11.7169H123.309L126.533 16.2058C126.533 16.2058 126.595 16.2928 126.657 16.3674C127.022 16.8399 128.161 18.0274 130.37 18.2077L128.582 15.7022C128.538 15.6462 128.501 15.5903 128.452 15.5343H128.458ZM119.231 9.7709V2.0677H124.262C127.27 2.0677 129.312 3.49145 129.312 5.91619C129.312 8.34093 127.27 9.76469 124.262 9.76469H119.231V9.7709Z" fill="white"/>
<path d="M151.559 16.6535C147.574 16.6535 144.214 13.2216 144.214 9.16169C144.214 5.10181 147.574 1.70096 151.559 1.70096C153.577 1.70096 155.427 2.59625 156.776 4.00135L158.199 2.57138C156.473 0.855407 154.115 -0.195312 151.559 -0.195312C146.448 -0.195312 142.091 4.07596 142.091 9.16791C142.091 14.2599 146.454 18.556 151.559 18.556C154.115 18.556 156.479 17.4804 158.199 15.7893L156.776 14.3656C155.427 15.7644 153.577 16.6597 151.559 16.6597V16.6535Z" fill="white"/>
<path d="M178.85 0.115479H176.566L168.416 18.2388H170.7L172.55 14.123H182.854L184.71 18.2388H186.994L178.844 0.115479H178.85ZM173.417 12.1708L177.724 2.65213L181.994 12.1708H173.417Z" fill="white"/>
<path d="M35.0818 32.1096C35.0818 28.9886 37.4272 26.6882 40.9793 26.6882C42.4398 26.6882 43.628 27.0799 44.2282 27.4467C44.2282 28.2052 44.2592 28.8269 44.3458 29.6662H43.7084C43.3062 27.9441 42.118 27.3161 40.7256 27.3161C38.4607 27.3161 37.254 28.9948 37.254 31.5066C37.254 34.5779 39.1166 36.6483 41.6601 36.6483C42.415 36.6483 43.6032 36.4679 44.2716 35.7778L44.6429 36.1384C43.9745 36.8596 42.5636 37.5 40.7689 37.5C37.353 37.5 35.0695 35.1996 35.0695 32.1096H35.0818Z" fill="#E6661C"/>
<path d="M51.4872 35.9581L55.4602 26.8374H56.1471L60.2004 35.9581C60.5161 36.698 60.7017 36.7602 61.5743 36.9094V37.3011H56.9639V36.9094C57.6818 36.7602 58.3378 36.698 58.0036 35.9581L57.1991 34.1489H53.0096L52.2236 35.9706C51.9019 36.6918 52.5269 36.7602 53.2447 36.9094V37.3011H50.0948V36.9094C50.9674 36.7602 51.1654 36.698 51.4872 35.9581ZM56.9516 33.5583L55.0765 29.3181L53.2695 33.5583H56.9577H56.9516Z" fill="#E6661C"/>
<path d="M69.4829 28.9575L69.1797 35.6099C69.1302 36.7104 69.7181 36.7415 70.6711 36.9094V37.301H67.0323V36.9094C67.9049 36.7477 68.4062 36.7104 68.4557 35.6099L68.7898 28.6404C68.8394 27.5399 68.2515 27.5088 67.3789 27.341V26.9493H70.733C70.8011 27.3285 71.0362 27.7389 71.2528 28.2114L74.0685 34.6027L76.581 28.2114C76.7666 27.7327 76.9647 27.3223 77.0327 26.9493H80.622V27.341C79.7494 27.5026 79.1987 27.5399 79.2482 28.6404L79.5638 35.6099C79.6133 36.7104 80.1022 36.7415 80.9747 36.9094V37.301H76.1788V36.9094C77.0513 36.7477 77.6206 36.7104 77.5711 35.6099L77.2679 28.2798L73.6477 37.301H73.1465L69.4768 28.9512L69.4829 28.9575Z" fill="#E6661C"/>
<path d="M88.1532 35.6099V28.6404C88.1532 27.5399 87.6334 27.5088 86.7609 27.341V26.9493H95.109L95.2575 29.3181H94.7686C94.6201 28.1492 94.3354 27.5772 93.1287 27.5772H91.7239C90.4491 27.5772 90.1459 27.6954 90.1459 28.8269V31.7863H91.3526C93.3824 31.7863 93.5804 31.4071 93.6795 30.4061H94.0631V33.7572H93.6795C93.5804 32.7562 93.3762 32.377 91.3526 32.377H90.1459V35.4359C90.1459 36.5674 90.4491 36.6855 91.7239 36.6855H92.7821C94.1065 36.6855 94.7253 36.2255 95.3441 34.8141H95.833L95.1461 37.3135H86.7671V36.9218C87.6396 36.7601 88.1594 36.7228 88.1594 35.6224L88.1532 35.6099Z" fill="#E6661C"/>
<path d="M102.77 35.6099V28.6404C102.77 27.5399 102.25 27.5088 101.378 27.341V26.9493H106.254V27.341C105.382 27.5026 104.763 27.5399 104.763 28.6404V35.411C104.763 36.5425 105.066 36.6607 106.341 36.6607H107.449C108.773 36.6607 109.41 36.2317 110.011 34.7022H110.512L109.825 37.301H101.378V36.9094C102.25 36.7477 102.77 36.7104 102.77 35.6099Z" fill="#E6661C"/>
<path d="M117.177 35.6099V28.6404C117.177 27.5399 116.657 27.5088 115.784 27.341V26.9493H120.661V27.341C119.788 27.5026 119.169 27.5399 119.169 28.6404V35.411C119.169 36.5425 119.473 36.6607 120.747 36.6607H121.855C123.179 36.6607 123.817 36.2317 124.417 34.7022H124.918L124.231 37.301H115.784V36.9094C116.657 36.7477 117.177 36.7104 117.177 35.6099Z" fill="#E6661C"/>
<path d="M131.589 35.6099V28.6404C131.589 27.5399 131.07 27.5088 130.197 27.341V26.9493H134.974V27.341C134.102 27.5026 133.582 27.5399 133.582 28.6404V35.6099C133.582 36.7104 134.102 36.7415 134.974 36.9094V37.301H130.197V36.9094C131.07 36.7477 131.589 36.7104 131.589 35.6099Z" fill="#E6661C"/>
<path d="M141.831 35.9581L145.804 26.8374H146.491L150.544 35.9581C150.86 36.698 151.046 36.7602 151.918 36.9094V37.3011H147.308V36.9094C148.026 36.7602 148.682 36.698 148.347 35.9581L147.543 34.1489H143.353L142.568 35.9706C142.252 36.6918 142.871 36.7602 143.589 36.9094V37.3011H140.439V36.9094C141.311 36.7602 141.509 36.698 141.831 35.9581ZM147.295 33.5583L145.42 29.3181L143.613 33.5583H147.302H147.295Z" fill="#E6661C"/>
<path d="M130.958 16.5975V18.2389C130.76 18.2389 130.568 18.2327 130.383 18.214H130.376C128.167 18.0337 127.029 16.84 126.663 16.3737C126.608 16.2991 126.564 16.2369 126.54 16.2121C126.534 16.1934 126.527 16.1872 126.527 16.1872L128.458 15.5406C128.501 15.5965 128.539 15.6525 128.588 15.7085C129.622 17.0016 130.958 16.5975 130.958 16.5975Z" fill="white"/>
</g>
<defs>
<clipPath id="clip0_5_95">
<rect width="187" height="37" fill="white"/>
</clipPath>
</defs>
</svg>
