<svg width="216" height="211" viewBox="0 0 216 211" fill="none" xmlns="http://www.w3.org/2000/svg">
<g clip-path="url(#clip0_100_2328)">
<path d="M28.4083 32.8578C27.2656 34.7166 26.5843 36.7071 26.2693 38.7561C26.9652 35.024 28.4962 32.3456 30.2763 30.4209C29.5072 31.2259 28.8991 32.0602 28.4083 32.8578ZM34.657 36.6851C34.1296 37.5487 33.7779 38.5 33.5875 39.5245C34.005 37.7536 34.7596 36.3192 35.8364 35.2142C35.3822 35.6533 34.994 36.1436 34.657 36.6851ZM36.6642 37.9146C36.3052 38.5 36.0562 39.1733 35.917 39.8977C36.232 38.6756 36.7521 37.6804 37.4627 36.9266C37.1477 37.2267 36.884 37.556 36.6642 37.9146ZM38.4663 36.0997C38.1439 36.3046 37.8436 36.5461 37.5726 36.8169C38.393 36.0631 39.4992 35.5289 40.8837 35.2142C39.9826 35.3679 39.1695 35.6533 38.4663 36.0997ZM181.336 36.6851C180.999 36.1363 180.61 35.646 180.156 35.2142C181.248 36.3266 182.002 37.7902 182.42 39.5977C182.229 38.5512 181.878 37.5633 181.336 36.6851ZM179.329 37.9146C179.101 37.5487 178.838 37.2194 178.523 36.9193C179.219 37.6584 179.731 38.6171 180.054 39.8026C179.915 39.1147 179.673 38.4781 179.329 37.9146ZM178.786 34.1092C177.878 33.5311 176.86 33.1579 175.761 32.9456C177.541 33.3701 178.984 34.1019 180.09 35.1557C179.695 34.7605 179.263 34.4092 178.786 34.1092ZM177.526 36.0997C176.852 35.6679 176.076 35.3899 175.219 35.2362C176.538 35.5435 177.6 36.0631 178.398 36.8022C178.134 36.5315 177.841 36.2973 177.526 36.0997ZM107.993 99.2687C107.824 99.2687 107.663 99.2614 107.495 99.2394C107.67 99.7663 107.832 100.301 107.993 100.827C108.161 100.301 108.322 99.7663 108.498 99.2394C108.33 99.2614 108.161 99.2687 107.993 99.2687ZM97.6491 93.6192C96.6308 93.2387 95.6126 92.8362 94.6017 92.4264C95.0339 93.4289 95.4441 94.4315 95.847 95.4414C96.8286 95.8293 97.8102 96.1952 98.7992 96.5537C98.4256 95.5731 98.0447 94.5925 97.6491 93.6192Z" fill="#002A68"/>
<path d="M97.649 93.6192C96.6308 93.2387 95.6125 92.8362 94.6016 92.4264C95.0338 93.429 95.444 94.4315 95.8469 95.4414C96.8285 95.8293 97.8102 96.1952 98.7991 96.5537C98.4255 95.5731 98.0446 94.5925 97.649 93.6192ZM181.336 36.6852C180.999 36.1363 180.61 35.646 180.156 35.2142C181.248 36.3266 182.002 37.7902 182.42 39.5977C182.229 38.5512 181.878 37.5633 181.336 36.6852ZM177.526 36.0997C176.852 35.668 176.076 35.3899 175.219 35.2362C176.537 35.5435 177.6 36.0631 178.398 36.8022C178.134 36.5315 177.841 36.2973 177.526 36.0997ZM97.649 93.6192C96.6308 93.2387 95.6125 92.8362 94.6016 92.4264C95.0338 93.429 95.444 94.4315 95.8469 95.4414C96.8285 95.8293 97.8102 96.1952 98.7991 96.5537C98.4255 95.5731 98.0446 94.5925 97.649 93.6192ZM34.6569 36.6852C34.1295 37.5487 33.7779 38.5 33.5874 39.5245C34.005 37.7536 34.7595 36.3193 35.8363 35.2142C35.3822 35.6533 34.9939 36.1436 34.6569 36.6852ZM38.4662 36.0997C38.1439 36.3046 37.8435 36.5461 37.5725 36.8169C38.3929 36.0631 39.4991 35.5289 40.8836 35.2142C39.9826 35.3679 39.1694 35.6533 38.4662 36.0997Z" fill="#002A68"/>
<path d="M206.711 105.503C211.531 102.759 215.868 97.6951 215.993 91.2114C216.073 87.0767 214.403 79.4514 202.367 74.7971C202.14 74.702 201.898 74.6215 201.664 74.5556C200.148 74.0799 187.423 69.4989 189.555 49.7476C190.302 45.43 190.28 41.8807 189.76 38.9608C189.753 38.9316 189.745 38.9023 189.745 38.873C189.43 36.7874 188.749 34.753 187.584 32.8576C187.035 31.9721 186.339 31.0428 185.453 30.1573C185.328 30.0256 185.204 29.9011 185.072 29.7767C184.984 29.6889 184.896 29.6084 184.808 29.5353C184.691 29.4255 184.566 29.323 184.442 29.2133C184.317 29.1108 184.193 29.0084 184.061 28.8986H184.053C182.325 27.5521 180.068 26.3958 177.109 25.7518C177.05 25.7372 176.984 25.7226 176.926 25.7153C175.38 25.3859 173.651 25.203 171.71 25.203C169.769 25.203 167.615 25.3933 165.344 25.7665C163.769 25.9275 162.238 26.008 160.773 26.008C143.998 26.008 139.932 15.2944 139.507 14.0064C139.434 13.7869 139.361 13.5747 139.265 13.3332C134.54 1.73415 126.973 0.00710306 122.878 0.00710306H122.644C115.948 0.146145 110.732 4.61013 108 9.4766C105.26 4.61745 100.037 0.146145 93.305 0.00710306H93.0486C88.983 -0.00021494 81.445 1.73415 76.7347 13.3259C76.6468 13.5381 76.5589 13.7796 76.4857 14.0064C76.0681 15.2798 72.0098 26.0153 55.249 26.0153C53.8059 26.0153 52.2822 25.9348 50.7218 25.7738C48.4216 25.4006 46.2606 25.2103 44.29 25.2103C42.488 25.2103 40.869 25.3713 39.4112 25.6567H39.3893C35.9902 26.308 33.4776 27.6326 31.6242 29.1547C31.4997 29.2498 31.3752 29.3523 31.258 29.4621C31.1481 29.5572 31.0382 29.6597 30.9283 29.7694C30.8184 29.8719 30.7085 29.9743 30.5987 30.0841C30.4961 30.1939 30.3862 30.311 30.2763 30.4207C28.4962 32.3454 26.9652 35.0238 26.2693 38.7559C26.2546 38.7925 26.2473 38.8291 26.2473 38.873C25.7125 41.7856 25.6832 45.3421 26.4304 49.6744C28.5768 69.5428 15.7938 74.1019 14.358 74.5483C14.1163 74.6142 13.8892 74.6947 13.6547 74.7825C1.58963 79.4587 -0.0805819 87.0767 -1.26846e-06 91.2041C0.124532 97.6951 4.46123 102.759 9.28142 105.503C4.46123 108.248 0.124532 113.312 -1.26846e-06 119.796C-0.0805819 123.93 1.58963 131.556 13.6914 136.239C13.9038 136.32 14.1236 136.393 14.3214 136.451C15.7938 136.905 28.5768 141.457 26.4378 161.259C25.6906 165.577 25.7125 169.126 26.2327 172.046C26.24 172.075 26.2473 172.097 26.2473 172.127C26.5623 174.212 27.2436 176.247 28.4083 178.142C28.7893 178.764 29.2434 179.408 29.8002 180.045C29.9174 180.176 30.0273 180.308 30.1445 180.44C30.2617 180.564 30.3789 180.689 30.4961 180.813C30.7452 181.069 31.0016 181.318 31.258 181.545C31.3752 181.647 31.485 181.75 31.6023 181.845C32.1517 182.313 32.7157 182.723 33.2725 183.074C34.9134 184.113 36.7521 184.838 38.7666 185.233H38.7812C40.3929 185.599 42.2169 185.804 44.2827 185.804C46.2386 185.804 48.3777 185.614 50.6486 185.24C52.2236 185.079 53.7619 184.992 55.2197 184.992C71.9951 184.992 76.0608 195.705 76.4857 196.993C76.5589 197.235 76.6468 197.469 76.7274 197.666C81.445 209.273 88.983 211 93.0486 211H93.349C100.044 210.861 105.26 206.389 107.993 201.53C110.732 206.389 115.941 210.861 122.622 211H122.966C127.024 211 134.54 209.273 139.287 197.622C139.361 197.418 139.441 197.205 139.507 196.993C139.925 195.727 143.976 184.984 160.729 184.984C162.179 184.984 163.711 185.065 165.271 185.226C167.571 185.606 169.732 185.797 171.703 185.797C173.673 185.797 175.468 185.606 177.05 185.262C177.072 185.262 177.094 185.255 177.116 185.248C179.167 184.86 181.043 184.135 182.72 183.074C183.533 182.562 184.354 181.933 185.138 181.157C185.262 181.047 185.379 180.93 185.497 180.806C185.709 180.594 185.907 180.374 186.112 180.14C186.214 180.023 186.31 179.906 186.405 179.781C186.493 179.664 186.588 179.554 186.676 179.437C187.028 178.998 187.321 178.566 187.584 178.142C188.691 176.334 189.372 174.41 189.701 172.419C190.28 169.456 190.339 165.804 189.562 161.333C187.416 141.464 200.199 136.905 201.708 136.437C201.92 136.371 202.125 136.305 202.316 136.232C214.403 131.556 216.073 123.93 215.993 119.796C215.868 113.304 211.531 108.24 206.711 105.503ZM36.6642 37.9144C36.8839 37.5558 37.1477 37.2265 37.4627 36.9264C36.7521 37.6802 36.232 38.6754 35.917 39.8975C36.0562 39.1731 36.3052 38.4998 36.6642 37.9144ZM37.4553 174.073C37.155 173.78 36.8839 173.451 36.6642 173.085C36.3199 172.522 36.0855 171.892 35.939 171.204C36.2613 172.383 36.7667 173.341 37.4553 174.073ZM34.657 36.6849C34.994 36.1434 35.3822 35.6531 35.8364 35.214C34.7595 36.319 34.005 37.7534 33.5875 39.5243C33.7779 38.4998 34.1296 37.5485 34.657 36.6849ZM34.657 174.322C34.1222 173.444 33.7633 172.463 33.5728 171.417C33.9904 173.188 34.7229 174.629 35.7778 175.734C35.3456 175.31 34.972 174.842 34.657 174.322ZM37.2063 176.898C36.7008 176.576 36.2466 176.21 35.8364 175.793C36.9572 176.883 38.4443 177.644 40.283 178.069C39.1695 177.864 38.1293 177.483 37.2063 176.898ZM38.4663 174.907C38.1146 174.688 37.7923 174.424 37.5066 174.124C38.3271 174.9 39.4332 175.456 40.8251 175.771C39.946 175.625 39.1475 175.339 38.4663 174.907ZM37.5725 36.8167C37.8436 36.5459 38.1439 36.3044 38.4663 36.0995C39.1695 35.6531 39.9826 35.3677 40.8837 35.214C39.4992 35.5287 38.393 36.0629 37.5725 36.8167ZM95.847 95.4412C95.4441 94.4313 95.0338 93.4287 94.6016 92.4262C95.6126 92.836 96.6308 93.2385 97.6491 93.619C98.0446 94.5923 98.4256 95.5729 98.7991 96.5535C97.8102 96.195 96.8286 95.8291 95.847 95.4412ZM101.554 105.825C101.561 105.723 101.568 105.613 101.568 105.503C101.568 105.394 101.568 105.284 101.554 105.181C101.905 105.291 102.257 105.401 102.608 105.503C102.257 105.606 101.905 105.708 101.554 105.825ZM107.993 100.827C107.832 100.3 107.67 99.7661 107.495 99.2392C107.663 99.2612 107.824 99.2685 107.993 99.2685C108.161 99.2685 108.33 99.2612 108.498 99.2392C108.322 99.7661 108.161 100.3 107.993 100.827ZM114.432 105.825C114.08 105.708 113.729 105.606 113.37 105.503C113.729 105.401 114.08 105.291 114.432 105.181C114.424 105.284 114.417 105.394 114.417 105.503C114.417 105.613 114.424 105.723 114.432 105.825ZM177.526 174.907C176.823 175.354 176.003 175.639 175.102 175.793C176.53 175.471 177.658 174.915 178.486 174.124C178.2 174.424 177.878 174.688 177.526 174.907ZM175.219 35.236C176.076 35.3897 176.852 35.6677 177.526 36.0995C177.841 36.2971 178.134 36.5313 178.398 36.802C177.6 36.0629 176.537 35.5433 175.219 35.236ZM179.328 173.085C179.109 173.444 178.852 173.766 178.545 174.059C179.233 173.327 179.739 172.368 180.054 171.197C179.915 171.885 179.673 172.522 179.328 173.085ZM178.523 36.9191C178.838 37.2192 179.101 37.5485 179.328 37.9144C179.673 38.4779 179.915 39.1145 180.054 39.8024C179.731 38.6169 179.219 37.6582 178.523 36.9191ZM175.761 32.9454C176.86 33.1577 177.878 33.5309 178.786 34.109C179.263 34.409 179.695 34.7603 180.09 35.1555C178.984 34.1017 177.541 33.3699 175.761 32.9454ZM181.336 174.322C180.999 174.864 180.61 175.354 180.156 175.793C181.226 174.695 181.98 173.268 182.398 171.512C182.207 172.522 181.856 173.466 181.336 174.322ZM180.156 35.214C180.61 35.6458 180.999 36.1361 181.336 36.6849C181.878 37.5631 182.229 38.551 182.42 39.5975C182.002 37.79 181.248 36.3264 180.156 35.214Z" fill="#002A68"/>
<path d="M180.156 175.793C180.61 175.354 180.999 174.864 181.336 174.322C181.856 173.466 182.207 172.522 182.398 171.512C181.98 173.268 181.226 174.695 180.156 175.793ZM178.545 174.059C178.852 173.766 179.109 173.444 179.328 173.085C179.673 172.522 179.914 171.885 180.054 171.197C179.739 172.368 179.233 173.327 178.545 174.059ZM175.102 175.793C176.003 175.639 176.823 175.354 177.526 174.908C177.878 174.688 178.2 174.425 178.486 174.125C177.658 174.915 176.53 175.471 175.102 175.793ZM33.5728 171.417C33.7632 172.463 34.1222 173.444 34.6569 174.322C34.9719 174.842 35.3455 175.31 35.7777 175.735C34.7229 174.63 33.9903 173.188 33.5728 171.417ZM35.9389 171.205C36.0854 171.893 36.3198 172.522 36.6641 173.085C36.8839 173.451 37.1549 173.781 37.4553 174.073C36.7667 173.342 36.2612 172.383 35.9389 171.205ZM35.8363 175.793C36.2466 176.21 36.7007 176.576 37.2062 176.898C38.1292 177.484 39.1694 177.864 40.2829 178.069C38.4442 177.645 36.9571 176.883 35.8363 175.793ZM37.5066 174.125C37.7922 174.425 38.1146 174.688 38.4662 174.908C39.1475 175.339 39.9459 175.625 40.825 175.771C39.4332 175.456 38.327 174.9 37.5066 174.125Z" fill="#002A68"/>
<path d="M180.156 175.793C180.61 175.354 180.999 174.864 181.336 174.322C181.856 173.466 182.207 172.522 182.398 171.512C181.98 173.268 181.226 174.695 180.156 175.793ZM175.102 175.793C176.003 175.639 176.823 175.354 177.526 174.908C177.878 174.688 178.2 174.425 178.486 174.125C177.658 174.915 176.53 175.471 175.102 175.793ZM33.5728 171.417C33.7632 172.463 34.1222 173.444 34.6569 174.322C34.9719 174.842 35.3455 175.31 35.7777 175.735C34.7229 174.63 33.9903 173.188 33.5728 171.417ZM37.5066 174.125C37.7922 174.425 38.1146 174.688 38.4662 174.908C39.1475 175.339 39.9459 175.625 40.825 175.771C39.4332 175.456 38.327 174.9 37.5066 174.125Z" fill="#002A68"/>
<path d="M102.608 105.504C102.257 105.401 101.905 105.291 101.554 105.182C101.561 105.284 101.568 105.394 101.568 105.504C101.568 105.613 101.568 105.723 101.554 105.826C101.905 105.709 102.257 105.606 102.608 105.504ZM97.6491 93.6192C96.6309 93.2387 95.6126 92.8362 94.6017 92.4264C95.0339 93.429 95.4441 94.4315 95.847 95.4414C96.8286 95.8293 97.8102 96.1952 98.7992 96.5537C98.4256 95.5731 98.0447 94.5925 97.6491 93.6192ZM34.657 36.6852C34.1296 37.5487 33.778 38.5 33.5875 39.5245C34.0051 37.7536 34.7596 36.3193 35.8364 35.2142C35.3823 35.6533 34.994 36.1436 34.657 36.6852ZM33.2798 27.9328C32.7304 28.2768 32.1737 28.6866 31.6243 29.1549C33.4776 27.6328 35.9903 26.3082 39.3893 25.6569C37.1331 26.0228 35.0892 26.7839 33.2798 27.9328ZM36.6642 37.9146C36.3053 38.5 36.0562 39.1733 35.917 39.8978C36.232 38.6757 36.7521 37.6804 37.4627 36.9266C37.1477 37.2267 36.884 37.556 36.6642 37.9146ZM38.4663 36.0997C38.144 36.3046 37.8436 36.5461 37.5726 36.8169C38.393 36.0631 39.4992 35.5289 40.8837 35.2142C39.9827 35.3679 39.1695 35.6533 38.4663 36.0997ZM33.5729 171.417C33.7633 172.463 34.1223 173.444 34.657 174.322C34.972 174.842 35.3456 175.31 35.7778 175.735C34.723 174.63 33.9904 173.188 33.5729 171.417ZM35.939 171.205C36.0855 171.893 36.3199 172.522 36.6642 173.085C36.884 173.451 37.155 173.781 37.4554 174.073C36.7668 173.342 36.2613 172.383 35.939 171.205ZM35.8364 175.793C36.2467 176.21 36.7008 176.576 37.2063 176.898C38.1293 177.484 39.1695 177.864 40.283 178.069C38.4443 177.645 36.9572 176.883 35.8364 175.793ZM37.5067 174.125C37.7923 174.425 38.1147 174.688 38.4663 174.908C39.1476 175.339 39.946 175.625 40.8251 175.771C39.4333 175.456 38.3271 174.9 37.5067 174.125Z" fill="#002A68"/>
<path d="M97.6491 93.6192C96.6308 93.2387 95.6126 92.8362 94.6017 92.4264C95.0339 93.429 95.4441 94.4315 95.847 95.4414C96.8286 95.8293 97.8102 96.1952 98.7992 96.5537C98.4256 95.5731 98.0447 94.5925 97.6491 93.6192ZM36.6642 37.9146C36.3053 38.5 36.0562 39.1733 35.917 39.8978C36.232 38.6757 36.7521 37.6804 37.4627 36.9267C37.1477 37.2267 36.884 37.556 36.6642 37.9146ZM35.939 171.205C36.0855 171.893 36.3199 172.522 36.6642 173.085C36.884 173.451 37.155 173.781 37.4554 174.073C36.7668 173.342 36.2613 172.383 35.939 171.205ZM35.8364 175.793C36.2467 176.21 36.7008 176.576 37.2063 176.898C38.1293 177.484 39.1695 177.864 40.283 178.069C38.4443 177.645 36.9572 176.883 35.8364 175.793Z" fill="#002A68"/>
<path d="M114.432 105.182C114.08 105.291 113.728 105.401 113.369 105.504C113.728 105.606 114.08 105.709 114.432 105.826C114.424 105.723 114.417 105.613 114.417 105.504C114.417 105.394 114.424 105.284 114.432 105.182ZM182.713 27.9328C181.035 26.8644 179.16 26.1399 177.109 25.7521C180.068 26.396 182.324 27.5523 184.053 28.8988C183.614 28.5329 183.16 28.2182 182.713 27.9328ZM181.335 36.6852C180.998 36.1363 180.61 35.646 180.156 35.2142C181.248 36.3266 182.002 37.7902 182.42 39.5977C182.229 38.5513 181.878 37.5633 181.335 36.6852ZM180.156 175.793C180.61 175.354 180.998 174.864 181.335 174.322C181.856 173.466 182.207 172.522 182.398 171.512C181.98 173.268 181.226 174.695 180.156 175.793ZM179.328 37.9146C179.101 37.5487 178.837 37.2194 178.522 36.9193C179.218 37.6585 179.731 38.6171 180.054 39.8026C179.914 39.1147 179.673 38.4781 179.328 37.9146ZM178.544 174.059C178.852 173.766 179.109 173.444 179.328 173.085C179.673 172.522 179.914 171.885 180.054 171.197C179.739 172.368 179.233 173.327 178.544 174.059ZM178.786 34.1092C177.878 33.5311 176.86 33.1579 175.761 32.9457C177.541 33.3701 178.984 34.1019 180.09 35.1557C179.695 34.7605 179.262 34.4093 178.786 34.1092ZM177.526 36.0997C176.852 35.668 176.076 35.3899 175.219 35.2362C176.537 35.5436 177.599 36.0631 178.398 36.8022C178.134 36.5315 177.841 36.2973 177.526 36.0997ZM175.101 175.793C176.003 175.639 176.823 175.354 177.526 174.908C177.878 174.688 178.2 174.425 178.486 174.125C177.658 174.915 176.53 175.471 175.101 175.793ZM114.432 105.182C114.08 105.291 113.728 105.401 113.369 105.504C113.728 105.606 114.08 105.709 114.432 105.826C114.424 105.723 114.417 105.613 114.417 105.504C114.417 105.394 114.424 105.284 114.432 105.182Z" fill="#002A68"/>
<path d="M178.544 174.059C178.852 173.766 179.109 173.444 179.328 173.085C179.673 172.522 179.914 171.885 180.053 171.197C179.738 172.368 179.233 173.327 178.544 174.059ZM179.328 37.9146C179.101 37.5487 178.837 37.2194 178.522 36.9193C179.218 37.6585 179.731 38.6171 180.053 39.8026C179.914 39.1147 179.673 38.4781 179.328 37.9146ZM178.786 34.1092C177.878 33.5311 176.86 33.1579 175.761 32.9457C177.541 33.3701 178.984 34.1019 180.09 35.1557C179.695 34.7605 179.262 34.4093 178.786 34.1092Z" fill="#002A68"/>
<path fill-rule="evenodd" clip-rule="evenodd" d="M94.606 17.8813C100.179 17.9978 104.524 21.7358 106.81 25.7984C106.881 25.6715 106.954 25.5449 107.029 25.4187C109.362 21.5003 113.615 17.9941 119.026 17.8813H119.278C122.35 17.8815 127.8 19.0672 131.724 26.5041C132.132 27.2751 132.523 28.1134 132.893 29.0244C132.972 29.2261 133.033 29.4037 133.094 29.587C133.449 30.664 136.841 39.6231 150.836 39.6233C152.058 39.6233 153.335 39.5554 154.649 39.4208C154.96 39.3696 155.269 39.3236 155.575 39.2806C157.01 39.0784 158.376 38.969 159.651 38.9535C159.755 38.9523 159.857 38.9497 159.96 38.9496C160.169 38.9496 160.375 38.9514 160.579 38.9565C160.643 38.958 160.707 38.9612 160.77 38.9633C160.91 38.9679 161.049 38.9729 161.186 38.9798C161.269 38.984 161.351 38.9904 161.433 38.9954C161.539 39.0019 161.644 39.008 161.747 39.0158C161.861 39.0244 161.974 39.0348 162.086 39.045C162.159 39.0518 162.232 39.0581 162.305 39.0655C162.415 39.0767 162.525 39.0896 162.633 39.1025C162.708 39.1114 162.783 39.1201 162.857 39.1297C162.994 39.1475 163.129 39.167 163.262 39.1872C163.287 39.1909 163.311 39.1941 163.335 39.1979C163.709 39.2559 164.07 39.3228 164.419 39.3994C164.434 39.4029 164.45 39.4055 164.464 39.4091C164.468 39.41 164.472 39.4111 164.477 39.412C164.501 39.4175 164.526 39.4221 164.55 39.4276H164.563C166.243 39.7581 167.778 40.3636 169.146 41.2324C169.611 41.526 170.081 41.8689 170.54 42.2603C170.637 42.3398 170.73 42.4259 170.827 42.5115C171.041 42.7011 171.255 42.9097 171.462 43.1238C171.56 43.2277 171.658 43.3314 171.756 43.4353C171.776 43.4584 171.796 43.4822 171.816 43.5054C172.01 43.7194 172.193 43.9347 172.363 44.1508C172.371 44.1598 172.378 44.169 172.385 44.178C172.482 44.3015 172.575 44.4247 172.665 44.5479C172.677 44.5644 172.688 44.5812 172.7 44.5976C172.882 44.8509 173.05 45.1022 173.203 45.3501C174.166 46.9192 174.731 48.6034 174.997 50.3292C175 50.3484 175.004 50.3675 175.007 50.3867C175.007 50.4111 175.014 50.4295 175.02 50.4538C175.074 50.7589 175.121 51.0724 175.162 51.3942C175.202 51.716 175.237 52.0462 175.264 52.3852C175.277 52.5549 175.288 52.7269 175.298 52.9011C175.317 53.2488 175.327 53.6054 175.331 53.9709C175.339 54.8846 175.297 55.8546 175.199 56.8844C175.119 57.7086 175.004 58.5712 174.848 59.4738C173.327 73.6027 180.876 78.4469 183.882 79.8013C184.396 80.0324 184.777 80.1625 184.957 80.2179C185.039 80.2424 185.126 80.27 185.215 80.2997C185.246 80.3102 185.278 80.3217 185.309 80.3328C185.366 80.353 185.425 80.3734 185.482 80.3951C185.899 80.5567 186.3 80.7229 186.688 80.8925C193.882 84.0256 196.142 88.4979 196.727 91.8623C196.755 92.0214 196.78 92.1777 196.801 92.3315C196.836 92.5964 196.861 92.8532 196.878 93.1005C196.895 93.3476 196.903 93.5852 196.905 93.8121C196.906 93.9258 196.906 94.0369 196.904 94.145C196.897 94.4839 196.877 94.8182 196.844 95.1477C196.777 95.8064 196.659 96.4457 196.495 97.0644C196.413 97.3736 196.32 97.6778 196.216 97.9765C196.111 98.2756 195.996 98.5693 195.871 98.8575C195.747 99.1454 195.612 99.4278 195.468 99.7044C194.173 102.194 192.135 104.218 189.909 105.643C189.661 105.802 189.412 105.953 189.161 106.096C192.932 108.242 196.348 112.101 196.844 117.049C196.877 117.379 196.897 117.714 196.904 118.053C196.971 121.504 195.578 127.874 185.513 131.784C185.337 131.851 185.163 131.91 184.983 131.961H184.986C184.002 132.268 177.295 134.657 175.245 143.584C175.161 143.953 175.084 144.332 175.016 144.723C174.62 147 174.519 149.665 174.854 152.78C175.502 156.518 175.452 159.572 174.969 162.05C174.927 162.302 174.876 162.553 174.82 162.803C174.789 162.944 174.758 163.085 174.722 163.226C174.706 163.289 174.689 163.353 174.672 163.416C174.354 164.599 173.876 165.748 173.204 166.842C172.795 167.509 172.287 168.207 171.646 168.879C171.554 168.971 171.462 169.069 171.377 169.161C171.285 169.252 171.194 169.338 171.102 169.424C171.011 169.515 170.919 169.601 170.827 169.681C170.776 169.729 170.721 169.776 170.667 169.821C170.167 170.262 169.654 170.638 169.145 170.96C167.746 171.847 166.181 172.453 164.47 172.777C164.452 172.783 164.433 172.789 164.415 172.789C163.707 172.943 162.948 173.058 162.143 173.133C162.095 173.138 162.046 173.143 161.997 173.147C161.876 173.158 161.754 173.168 161.631 173.176C161.553 173.182 161.474 173.186 161.395 173.191C161.298 173.197 161.201 173.204 161.103 173.208C160.73 173.226 160.348 173.237 159.955 173.237C158.311 173.237 156.508 173.076 154.589 172.764C153.287 172.63 152.016 172.563 150.813 172.563C136.83 172.563 133.444 181.54 133.095 182.605C133.053 182.736 133.002 182.872 132.952 183.003C132.938 183.044 132.925 183.085 132.911 183.125C132.689 183.67 132.459 184.189 132.224 184.683C129.383 190.688 125.581 193.039 122.477 193.882C122.271 193.939 122.068 193.989 121.869 194.032C121.474 194.118 121.094 194.181 120.731 194.224C120.716 194.226 120.701 194.228 120.687 194.23C120.463 194.256 120.246 194.273 120.037 194.286C120.01 194.288 119.983 194.291 119.955 194.292C119.751 194.303 119.554 194.308 119.365 194.309C119.342 194.309 119.318 194.311 119.295 194.311H119.007C113.434 194.194 109.088 190.456 106.803 186.393C106.732 186.52 106.659 186.647 106.584 186.773C104.627 190.06 101.32 193.057 97.1115 194.004C96.3024 194.186 95.46 194.293 94.5875 194.311H94.3357C91.2101 194.311 85.6249 193.083 81.6877 185.298C81.3525 184.636 81.0291 183.927 80.7204 183.168C80.6876 183.085 80.6586 183.005 80.6309 182.928C80.625 182.912 80.6183 182.896 80.6124 182.88C80.5797 182.787 80.5496 182.697 80.5191 182.605C80.1646 181.528 76.7723 172.569 62.7775 172.569C61.5555 172.569 60.2781 172.637 58.9644 172.771C58.751 172.806 58.5384 172.839 58.3275 172.871C56.7861 173.099 55.3224 173.222 53.9612 173.239C53.8581 173.24 53.7557 173.242 53.654 173.242L53.652 173.241C53.6433 173.241 53.6345 173.241 53.6258 173.241C53.4257 173.241 53.2284 173.239 53.0337 173.235C52.9695 173.233 52.9057 173.23 52.8421 173.228C52.7024 173.223 52.564 173.218 52.427 173.211C52.2613 173.203 52.0977 173.192 51.936 173.18C51.9247 173.179 51.9133 173.179 51.902 173.178C51.7504 173.167 51.6008 173.153 51.4528 173.139C51.407 173.135 51.3612 173.131 51.3157 173.127C51.2025 173.115 51.0905 173.102 50.9793 173.089C50.9043 173.08 50.8298 173.071 50.7557 173.061C50.6189 173.044 50.4839 173.024 50.3503 173.004C50.3259 173 50.3016 172.997 50.2773 172.993C49.9018 172.935 49.5386 172.868 49.1874 172.791C49.1747 172.788 49.1618 172.786 49.1495 172.783C49.1451 172.782 49.1404 172.78 49.1359 172.779C49.1118 172.774 49.087 172.77 49.063 172.764H49.0504C47.37 172.434 45.8359 171.828 44.4672 170.96C44.0029 170.666 43.5321 170.323 43.074 169.932C42.9763 169.852 42.8839 169.766 42.7862 169.681C42.5724 169.491 42.3589 169.282 42.1513 169.068C42.0536 168.964 41.9553 168.861 41.8577 168.757C41.8368 168.733 41.8169 168.709 41.7964 168.686C41.6021 168.472 41.4195 168.256 41.249 168.04C41.2418 168.031 41.2348 168.022 41.2277 168.013C41.1303 167.889 41.0366 167.765 40.9467 167.641C40.9352 167.625 40.924 167.609 40.9126 167.594C40.7307 167.341 40.5632 167.09 40.41 166.842C39.4383 165.257 38.8702 163.555 38.6074 161.811C38.6074 161.808 38.6057 161.805 38.6055 161.802C38.605 161.78 38.5997 161.762 38.5938 161.738C38.1599 159.297 38.1416 156.329 38.765 152.718C38.7978 152.414 38.825 152.113 38.8495 151.817C39.9616 138.38 32.6709 133.714 29.7308 132.39C29.2168 132.159 28.836 132.03 28.6565 131.974C28.5732 131.949 28.4855 131.921 28.3959 131.89C28.365 131.88 28.3343 131.869 28.3036 131.858C28.2464 131.838 28.1882 131.819 28.1315 131.797C27.7145 131.635 27.3127 131.468 26.9249 131.299C19.9772 128.272 17.6296 123.998 16.9506 120.678C16.7498 119.699 16.6948 118.803 16.7095 118.047C16.7452 116.183 17.1966 114.46 17.9365 112.907L18.1455 112.489C18.3613 112.074 18.5978 111.671 18.8523 111.283C18.937 111.153 19.0233 111.025 19.1119 110.899C20.532 108.876 22.4419 107.243 24.4525 106.096C24.4059 106.069 24.36 106.041 24.3135 106.014C20.4434 103.763 16.9838 99.7092 16.7251 94.5276C16.7186 94.3988 16.712 94.2694 16.7095 94.1392C16.6423 90.688 18.0356 84.318 28.1004 80.4078C28.2762 80.3418 28.448 80.2813 28.6273 80.2296C29.6526 79.9105 36.8824 77.3337 38.5977 67.4697C38.6966 66.9005 38.7769 66.307 38.8369 65.6883C38.8769 65.2758 38.9073 64.8521 38.9283 64.417C39.0018 62.8938 38.955 61.2297 38.7591 59.4125C38.731 59.2493 38.7058 59.0872 38.6804 58.9267C38.1186 55.4082 38.1827 52.5124 38.6444 50.1423C38.6874 49.8822 38.7395 49.6238 38.797 49.3665C38.8271 49.2305 38.859 49.0948 38.8933 48.9596C38.9091 48.8979 38.9243 48.8361 38.9409 48.7746C39.258 47.5928 39.7381 46.444 40.409 45.3501C40.8184 44.6832 41.326 43.9856 41.9675 43.3126C42.0591 43.2209 42.1514 43.123 42.2368 43.0313C42.3283 42.9398 42.4196 42.8539 42.511 42.7685C42.6025 42.6769 42.6947 42.5909 42.7862 42.5115C42.8389 42.462 42.894 42.4143 42.9495 42.3684C43.4486 41.9279 43.9605 41.5529 44.4682 41.2324C45.8676 40.3452 47.4327 39.7392 49.1437 39.415C49.1617 39.4089 49.1801 39.4033 49.1981 39.4033C49.9057 39.2491 50.6645 39.1333 51.4693 39.0577C51.5177 39.053 51.5663 39.0484 51.6152 39.0441C51.7363 39.0335 51.8585 39.0235 51.9817 39.0149C52.06 39.0092 52.1387 39.0051 52.2179 39.0003C52.3146 38.9945 52.4118 38.9874 52.5096 38.9827C52.8825 38.9648 53.2654 38.9555 53.6588 38.9555C55.3026 38.9555 57.1059 39.1156 59.0247 39.4276C60.326 39.5622 61.5972 39.6291 62.8009 39.6291C76.7833 39.6291 80.1696 30.6522 80.5181 29.587C80.5605 29.4557 80.61 29.3188 80.6601 29.1879C80.6747 29.1475 80.6887 29.107 80.7029 29.0672C80.9503 28.4585 81.2067 27.8821 81.4709 27.3364C84.3058 21.4521 88.0703 19.1401 91.1458 18.3067C91.3484 18.2518 91.5476 18.2015 91.7437 18.1588C92.1385 18.073 92.5192 18.0105 92.8822 17.967C92.8968 17.9653 92.9114 17.9629 92.9259 17.9612C93.1495 17.9352 93.3664 17.9177 93.5754 17.9047C93.6028 17.903 93.63 17.9004 93.6571 17.8989C93.8621 17.8876 94.0595 17.8834 94.2482 17.8823C94.2715 17.8822 94.2951 17.8813 94.3182 17.8813H94.606Z" fill="white"/>
<g clip-path="url(#clip1_100_2328)">
<path d="M107.793 101.477C107.526 101.477 107.26 101.44 107.004 101.371C83.8035 95.0328 62.6444 77.1964 57.7303 70.8263C55.1028 67.3015 51.8996 60.1935 54.4312 56.0794C56.0994 53.3721 59.7876 52.4803 65.3999 53.4305C85.2639 55.5433 89.7675 41.7997 89.9541 41.2158C89.9594 41.1946 89.9701 41.168 89.9807 41.1468C92.118 35.9127 94.9107 34.782 96.9201 34.782C96.9574 34.782 96.9947 34.782 97.0267 34.782C100.129 34.8457 102.788 37.6008 103.71 40.1594C103.865 40.5894 104.158 41.2848 104.531 42.166C105.33 44.0718 106.556 46.9861 107.793 50.5693C109.029 46.9861 110.255 44.0718 111.055 42.166C111.428 41.2848 111.715 40.5894 111.875 40.1541C112.803 37.5955 115.457 34.8404 118.559 34.7767C120.579 34.7554 123.43 35.8065 125.605 41.1362C125.615 41.1574 125.621 41.184 125.631 41.2105C125.813 41.7944 130.322 55.538 150.234 53.4199C155.793 52.4803 159.486 53.3721 161.154 56.0794C163.686 60.1935 160.483 67.3015 157.866 70.8157C152.941 77.1964 131.782 95.0328 108.587 101.371C108.331 101.44 108.065 101.477 107.798 101.477H107.793ZM61.4132 54.763C58.6417 54.763 56.803 55.5008 55.8969 56.9713C53.9355 60.1563 56.6484 66.5052 59.1001 69.7964C63.9022 76.0232 84.6563 93.4933 107.457 99.7254C107.67 99.7838 107.915 99.7838 108.129 99.7254C130.935 93.4986 151.683 76.0232 156.496 69.7858C158.937 66.5052 161.655 60.1563 159.694 56.9713C158.431 54.9169 155.324 54.2905 150.473 55.1133C129.645 57.3429 124.331 42.7128 124.011 41.7626C122.578 38.2696 120.685 36.4435 118.602 36.4913C116.347 36.5391 114.236 38.689 113.496 40.7381C113.325 41.2105 113.027 41.9271 112.643 42.8296C111.699 45.0751 110.149 48.7697 108.699 53.3031C111.87 63.4422 114.434 77.5786 109.061 89.6872C108.843 90.1809 108.347 90.4994 107.798 90.4994C107.249 90.4994 106.753 90.1809 106.535 89.6872C101.163 77.5786 103.726 63.4422 106.897 53.3031C105.448 48.7644 103.897 45.0751 102.953 42.8243C102.575 41.9218 102.271 41.2052 102.101 40.7327C101.36 38.6784 99.2438 36.5285 96.9947 36.486C94.8894 36.4329 93.0134 38.2643 91.5796 41.7573C91.2812 42.6438 86.6709 55.3469 69.3332 55.3469C68.0168 55.3469 66.6364 55.2726 65.1707 55.1186C63.769 54.885 62.5165 54.763 61.4132 54.763ZM107.793 56.2918C105.144 65.6877 103.444 77.775 107.793 88.2804C112.142 77.775 110.442 65.6877 107.793 56.2918Z" fill="#002A68"/>
<path d="M105.927 24.5632C105.927 26.6442 106.62 28.5658 107.798 30.1265C108.976 28.5658 109.669 26.6442 109.669 24.5632C109.669 22.4823 108.976 20.5607 107.798 19C106.62 20.5607 105.927 22.4823 105.927 24.5632Z" fill="#002A68"/>
<path d="M96.9201 177.218C94.9161 177.218 92.118 176.093 89.9807 170.853C89.9701 170.832 89.9647 170.805 89.9541 170.779C89.7729 170.195 85.2639 156.451 65.3519 158.569C59.793 159.514 56.0994 158.617 54.4312 155.91C51.8943 151.796 55.1028 144.688 57.7197 141.174C62.6444 134.793 83.8035 116.957 106.999 110.618C107.51 110.48 108.065 110.48 108.576 110.618C131.777 116.957 152.936 134.793 157.85 141.163C160.477 144.688 163.681 151.796 161.149 155.91C159.481 158.617 155.798 159.509 150.18 158.559C130.311 156.441 125.807 170.19 125.626 170.774C125.621 170.795 125.61 170.821 125.6 170.843C123.425 176.172 120.579 177.25 118.554 177.202C115.452 177.138 112.792 174.383 111.87 171.825C111.715 171.395 111.422 170.694 111.049 169.813C110.25 167.907 109.024 164.993 107.787 161.409C106.551 164.993 105.325 167.907 104.526 169.813C104.158 170.694 103.865 171.389 103.705 171.819C102.777 174.378 100.123 177.133 97.0213 177.197C96.984 177.197 96.952 177.197 96.9147 177.197L96.9201 177.218ZM91.5797 170.237C92.992 173.688 94.8415 175.509 96.9201 175.509C96.9414 175.509 96.968 175.509 96.9947 175.509C99.2439 175.466 101.36 173.311 102.101 171.262C102.271 170.789 102.57 170.078 102.953 169.17C103.897 166.92 105.453 163.23 106.897 158.692C103.726 148.552 101.163 134.421 106.535 122.308C106.753 121.814 107.249 121.495 107.798 121.495C108.347 121.495 108.843 121.814 109.061 122.308C114.434 134.416 111.87 148.552 108.699 158.692C110.143 163.23 111.699 166.92 112.643 169.165C113.021 170.068 113.325 170.784 113.496 171.257C114.236 173.311 116.352 175.461 118.602 175.503C118.623 175.503 118.65 175.503 118.671 175.503C120.755 175.503 122.599 173.683 124.011 170.232C124.331 169.282 129.629 154.647 150.42 156.871C155.324 157.699 158.431 157.073 159.694 155.018C161.655 151.833 158.942 145.484 156.491 142.193C151.689 135.966 130.935 118.496 108.134 112.264C107.921 112.206 107.676 112.206 107.462 112.264C84.6616 118.491 63.9075 135.966 59.0948 142.204C56.6537 145.484 53.9409 151.833 55.8969 155.018C57.1601 157.073 60.2673 157.699 65.1174 156.876C85.9514 154.647 91.2599 169.277 91.5797 170.227V170.237ZM107.793 123.72C103.444 134.225 105.144 146.312 107.793 155.708C110.442 146.312 112.142 134.225 107.793 123.72Z" fill="#002A68"/>
<path d="M109.664 187.437C109.664 185.356 108.971 183.434 107.793 181.874C106.615 183.434 105.922 185.356 105.922 187.437C105.922 189.518 106.615 191.439 107.793 193C108.971 191.439 109.664 189.518 109.664 187.437Z" fill="#002A68"/>
<path d="M60.9186 158.948C59.4689 158.948 58.1151 158.656 56.9959 157.945C54.347 156.267 53.4889 152.705 54.4429 147.354C56.6228 128.074 42.4723 123.7 41.87 123.519C41.8487 123.514 41.822 123.503 41.8007 123.498C36.3217 121.385 35.2185 118.598 35.2558 116.634C35.3144 113.598 38.1498 111.007 40.7881 110.105C41.2358 109.951 41.95 109.67 42.856 109.309C44.8014 108.534 47.7754 107.355 51.4263 106.161C47.7701 104.966 44.8014 103.788 42.856 103.013C41.95 102.652 41.2304 102.365 40.7881 102.217C38.1498 101.314 35.3144 98.7236 35.2558 95.6872C35.2185 93.723 36.3217 90.9361 41.8007 88.8234C41.822 88.8127 41.8487 88.8074 41.87 88.8021C42.4723 88.6269 56.6228 84.2528 54.4323 64.9142C53.4836 59.6163 54.3417 56.0544 56.9905 54.3769C61.1691 51.7333 68.5828 54.8653 72.271 57.4664C78.8372 62.2546 97.1876 82.8248 103.711 105.38C103.786 105.635 103.823 105.901 103.823 106.166C103.823 106.431 103.786 106.697 103.711 106.946C97.1876 129.507 78.8372 150.077 72.2816 154.855C69.5741 156.761 64.8733 158.953 60.9132 158.953L60.9186 158.948ZM42.3923 121.895C43.341 122.198 58.4296 127.347 56.1378 147.598C55.3063 152.259 55.9086 155.237 57.9126 156.506C61.1637 158.56 67.8153 155.906 71.285 153.464C77.686 148.793 95.658 128.626 102.064 106.469C102.091 106.368 102.107 106.262 102.107 106.155C102.107 106.049 102.091 105.943 102.064 105.842C95.658 83.6848 77.686 63.518 71.2743 58.8413C67.8153 56.4047 61.1584 53.7505 57.9126 55.8102C55.9033 57.0789 55.3063 60.0569 56.1271 64.6647C58.4243 84.9694 43.341 90.1186 42.3923 90.4212C38.8054 91.812 36.9293 93.6169 36.9666 95.65C37.0093 97.8265 39.2211 99.8755 41.337 100.597C41.822 100.762 42.5576 101.054 43.4849 101.426C45.8034 102.344 49.6035 103.857 54.283 105.264C64.708 102.179 79.2423 99.6844 91.6926 104.903C92.1989 105.115 92.5294 105.603 92.5294 106.155C92.5294 106.707 92.1989 107.196 91.6926 107.408C79.2423 112.626 64.708 110.131 54.283 107.047C49.6035 108.459 45.8034 109.967 43.4849 110.891C42.5576 111.262 41.822 111.549 41.337 111.719C39.2211 112.441 37.0093 114.49 36.9666 116.666C36.9293 118.699 38.8001 120.509 42.3923 121.895ZM57.4329 106.161C67.0798 108.719 79.4555 110.354 90.2323 106.161C79.4555 101.972 67.0798 103.602 57.4329 106.161Z" fill="#002A68"/>
<path d="M24.7242 107.976C26.8614 107.976 28.8387 107.302 30.4483 106.161C28.8441 105.019 26.8667 104.345 24.7242 104.345C22.5816 104.345 20.6096 105.019 19 106.161C20.6043 107.302 22.5816 107.976 24.7242 107.976Z" fill="#002A68"/>
<path d="M156.082 158.948C152.122 158.948 147.426 156.761 144.724 154.86C138.158 150.072 119.807 129.502 113.284 106.946C113.209 106.692 113.172 106.431 113.172 106.161C113.172 105.89 113.209 105.63 113.284 105.375C119.807 82.8195 138.158 62.244 144.713 57.4664C148.417 54.86 155.826 51.728 160.01 54.3716C162.658 56.0491 163.517 59.611 162.563 64.9619C160.383 84.2475 174.533 88.6163 175.135 88.7968C175.157 88.8021 175.183 88.8127 175.205 88.8181C180.684 90.9308 181.787 93.7177 181.75 95.6819C181.691 98.7183 178.856 101.309 176.217 102.211C175.77 102.365 175.055 102.647 174.149 103.008C172.204 103.783 169.235 104.961 165.579 106.155C169.235 107.35 172.204 108.528 174.149 109.303C175.055 109.664 175.775 109.946 176.217 110.1C178.856 111.002 181.686 113.593 181.75 116.629C181.787 118.593 180.684 121.38 175.205 123.493C175.183 123.503 175.157 123.509 175.135 123.514C174.533 123.689 160.383 128.063 162.573 147.402C163.522 152.7 162.664 156.262 160.01 157.939C158.89 158.645 157.537 158.943 156.087 158.943L156.082 158.948ZM156.098 55.0776C152.692 55.0776 148.316 57.0258 145.715 58.8572C139.314 63.5233 121.342 83.6954 114.936 105.853C114.904 105.954 114.893 106.06 114.893 106.166C114.893 106.272 114.909 106.378 114.936 106.474C121.342 128.631 139.314 148.798 145.731 153.48C149.19 155.917 155.842 158.571 159.093 156.511C161.097 155.243 161.699 152.265 160.878 147.657C158.576 127.352 173.664 122.203 174.613 121.9C178.2 120.509 180.076 118.705 180.039 116.671C179.996 114.495 177.784 112.446 175.668 111.724C175.183 111.559 174.448 111.267 173.521 110.896C171.202 109.977 167.397 108.465 162.722 107.053C152.297 110.137 137.763 112.632 125.313 107.414C124.806 107.201 124.476 106.713 124.476 106.166C124.476 105.619 124.806 105.126 125.313 104.913C137.763 99.695 152.297 102.19 162.717 105.274C167.397 103.867 171.197 102.355 173.515 101.436C174.443 101.065 175.178 100.773 175.663 100.608C177.779 99.8861 179.991 97.8371 180.033 95.6606C180.071 93.6275 178.2 91.8173 174.608 90.4318C173.654 90.1292 158.571 84.9801 160.862 64.7284C161.694 60.0675 161.092 57.0895 159.088 55.8208C158.272 55.3059 157.238 55.0829 156.098 55.0829V55.0776ZM126.768 106.161C137.545 110.349 149.92 108.719 159.567 106.161C149.92 103.602 137.545 101.967 126.768 106.161Z" fill="#002A68"/>
<path d="M192.276 104.34C190.139 104.34 188.161 105.014 186.552 106.155C188.156 107.297 190.133 107.971 192.276 107.971C194.418 107.971 196.391 107.297 198 106.155C196.396 105.014 194.418 104.34 192.276 104.34Z" fill="#002A68"/>
</g>
</g>
<defs>
<clipPath id="clip0_100_2328">
<rect width="216" height="211" fill="white"/>
</clipPath>
<clipPath id="clip1_100_2328">
<rect width="179" height="174" fill="white" transform="translate(19 19)"/>
</clipPath>
</defs>
</svg>
