<svg width="1920" height="260" viewBox="0 0 1920 260" fill="none" xmlns="http://www.w3.org/2000/svg">
<path d="M-35.2745 122.957C-35.6669 122.957 -36.0593 122.901 -36.4517 122.807C-70.9094 113.352 -102.321 86.7611 -109.628 77.2684C-113.533 72.0175 -118.279 61.4223 -114.523 55.2745C-112.057 51.2382 -106.563 49.9115 -98.2289 51.3317C-68.7418 54.471 -62.0334 33.9907 -61.7717 33.1125C-61.7717 33.0751 -61.7531 33.0377 -61.7344 33.0003C-58.5577 25.1894 -54.4093 23.5076 -51.4382 23.5076C-51.3821 23.5076 -51.3261 23.5076 -51.27 23.5076C-46.6545 23.6011 -42.7116 27.7121 -41.3475 31.5241C-41.1233 32.1594 -40.6748 33.2059 -40.1329 34.5139C-38.937 37.3543 -37.1244 41.6895 -35.2932 47.0525C-33.4619 41.7082 -31.6306 37.3543 -30.4534 34.5326C-29.9115 33.2246 -29.463 32.1781 -29.2388 31.5428C-27.856 27.7308 -23.9131 23.6198 -19.3163 23.5263C-16.3077 23.489 -12.0847 25.0586 -8.85193 33.0191C-8.85193 33.0564 -8.83321 33.0938 -8.81451 33.1312C-8.55291 34.0094 -1.84451 54.4897 27.7174 51.3317C35.9767 49.9302 41.4518 51.2569 43.9371 55.2932C47.6931 61.4223 42.9468 72.0175 39.06 77.2684C31.7536 86.7798 0.323112 113.371 -34.1159 122.826C-34.4896 122.938 -34.9007 122.975 -35.2932 122.975L-35.2745 122.957ZM-104.153 53.3124C-108.264 53.3124 -111.01 54.415 -112.337 56.6013C-115.252 61.3476 -111.216 70.8216 -107.572 75.7174C-100.434 85.0045 -69.6201 111.053 -35.7603 120.341C-35.4426 120.434 -35.0876 120.434 -34.7512 120.341C-0.891495 111.053 29.9224 85.0046 37.0793 75.6988C40.7044 70.8029 44.7407 61.3289 41.8256 56.6013C39.9383 53.5367 35.3414 52.6024 28.1285 53.8357C-2.79752 57.1618 -10.6832 35.3548 -11.169 33.9347C-13.2993 28.7212 -16.1022 25.993 -19.2041 26.0677C-22.549 26.1425 -25.6883 29.3378 -26.7908 32.4024C-27.0524 33.1125 -27.4823 34.1776 -28.0615 35.523C-29.463 38.8679 -31.7614 44.3803 -33.9104 51.1448C-29.2014 66.2621 -25.3894 87.3404 -33.3685 105.391C-33.6861 106.12 -34.4336 106.606 -35.2371 106.606C-36.0406 106.606 -36.7881 106.139 -37.1057 105.391C-45.0848 87.3404 -41.2728 66.2621 -36.5638 51.1448C-38.7128 44.3803 -41.0112 38.8866 -42.4127 35.523C-42.9733 34.1776 -43.4217 33.1125 -43.6833 32.4024C-44.7858 29.3378 -47.9251 26.1425 -51.27 26.0677C-54.3906 25.993 -57.1936 28.7212 -59.3052 33.9347C-59.7537 35.2614 -66.5929 54.1907 -92.3427 54.1907C-94.2861 54.1907 -96.3603 54.0786 -98.5279 53.8544C-100.602 53.4993 -102.471 53.3311 -104.115 53.3311L-104.153 53.3124ZM-35.2745 55.5922C-39.1986 69.607 -41.7399 87.6206 -35.2745 103.28C-28.809 87.6206 -31.3503 69.607 -35.2745 55.5922Z" fill="#0049BF"/>
<path d="M-51.4196 235.897C-54.3907 235.897 -58.5391 234.215 -61.7158 226.405C-61.7158 226.367 -61.7345 226.33 -61.7532 226.292C-62.0148 225.414 -68.7232 204.934 -98.285 208.092C-106.544 209.493 -112.02 208.167 -114.505 204.13C-118.261 198.001 -113.514 187.406 -109.628 182.155C-102.321 172.644 -70.8908 146.053 -36.4518 136.598C-35.6856 136.392 -34.8634 136.392 -34.0973 136.598C0.360428 146.053 31.7722 172.644 39.0786 182.136C42.9841 187.387 47.7491 197.982 43.9744 204.13C41.5078 208.167 36.0327 209.493 27.6799 208.073C-1.8259 204.915 -8.51563 225.414 -8.77724 226.292C-8.77724 226.33 -8.79591 226.367 -8.8146 226.405C-12.0473 234.346 -16.2705 235.953 -19.279 235.897C-23.8758 235.804 -27.8373 231.693 -29.2015 227.881C-29.4257 227.245 -29.8742 226.199 -30.4161 224.891C-31.612 222.051 -33.4246 217.715 -35.2558 212.371C-37.0871 217.715 -38.9184 222.069 -40.0956 224.91C-40.6376 226.218 -41.086 227.264 -41.3103 227.899C-42.693 231.711 -46.6359 235.822 -51.2327 235.916C-51.2888 235.916 -51.3448 235.916 -51.4009 235.916L-51.4196 235.897ZM-59.3426 225.489C-57.2497 230.628 -54.5029 233.356 -51.4196 233.356C-51.3822 233.356 -51.3449 233.356 -51.3075 233.356C-47.9626 233.281 -44.8233 230.086 -43.7208 227.021C-43.4592 226.311 -43.0294 225.246 -42.4501 223.901C-41.0486 220.556 -38.7502 215.043 -36.6012 208.279C-41.3102 193.161 -45.1223 172.083 -37.1432 154.032C-36.8255 153.303 -36.078 152.818 -35.2745 152.818C-34.471 152.818 -33.7236 153.285 -33.4059 154.032C-25.4268 172.083 -29.2388 193.161 -33.9478 208.279C-31.7989 215.043 -29.5004 220.537 -28.099 223.901C-27.5384 225.246 -27.0899 226.311 -26.8283 227.021C-25.7258 230.086 -22.5865 233.281 -19.2416 233.356C-19.2043 233.356 -19.1669 233.356 -19.1295 233.356C-16.0463 233.356 -13.2993 230.646 -11.2065 225.489C-10.7393 224.069 -2.87234 202.243 28.0163 205.569C35.304 206.803 39.9008 205.868 41.7881 202.804C44.7032 198.057 40.667 188.583 37.0231 183.687C29.8849 174.4 -0.928925 148.351 -34.7887 139.064C-35.1063 138.971 -35.4614 138.971 -35.7977 139.064C-69.6575 148.351 -100.471 174.4 -107.628 183.706C-111.253 188.602 -115.29 198.057 -112.375 202.804C-110.506 205.868 -105.89 206.803 -98.6774 205.569C-67.7328 202.243 -59.8658 224.05 -59.38 225.47L-59.3426 225.489ZM-35.2745 156.125C-41.7213 171.784 -39.1987 189.817 -35.2745 203.813C-31.3504 189.798 -28.809 171.784 -35.2745 156.125Z" fill="#0049BF"/>
<path d="M35.3974 208.409C29.5111 208.409 22.5411 205.139 18.5236 202.318C8.76926 195.179 -18.4755 164.515 -28.1551 130.88C-28.2672 130.506 -28.3232 130.113 -28.3232 129.702C-28.3232 129.291 -28.2672 128.917 -28.1551 128.525C-18.4755 94.8896 8.78794 64.2252 18.5236 57.1057C24.0173 53.2189 35.0236 48.5473 41.2275 52.4902C45.1703 54.9941 46.441 60.3011 45.0208 68.2802C41.7881 97.0385 62.7916 103.56 63.6885 103.822C63.7259 103.822 63.7633 103.84 63.8006 103.859C71.9292 107.017 73.5736 111.165 73.5176 114.099C73.4241 118.621 69.2197 122.489 65.3142 123.835C64.6602 124.059 63.5951 124.489 62.231 125.031C59.3346 126.189 54.9246 127.946 49.5056 129.721C54.9246 131.496 59.3533 133.253 62.231 134.411C63.5764 134.953 64.6416 135.364 65.2956 135.607C69.2197 136.953 73.4241 140.821 73.4989 145.343C73.5549 148.277 71.9106 152.425 63.782 155.583C63.7446 155.583 63.7072 155.602 63.6698 155.62C62.7729 155.882 41.7694 162.403 45.0208 191.237C46.4223 199.141 45.1516 204.448 41.2088 206.952C39.5457 208.017 37.5276 208.447 35.3787 208.447L35.3974 208.409ZM35.416 53.5366C30.3707 53.5366 23.8491 56.433 19.9997 59.1612C10.4884 66.1312 -16.1958 96.1976 -25.7072 129.235C-25.7445 129.385 -25.7819 129.534 -25.7819 129.702C-25.7819 129.871 -25.7632 130.02 -25.7259 130.169C-16.2145 163.207 10.4697 193.273 19.9997 200.243C25.1385 203.869 35.0049 207.83 39.8447 204.766C42.8158 202.878 43.7128 198.431 42.4982 191.573C39.0786 161.301 61.4835 153.621 62.885 153.172C68.2106 151.098 70.9949 148.407 70.9389 145.38C70.8828 142.129 67.594 139.083 64.4547 137.999C63.7259 137.756 62.6421 137.326 61.2593 136.766C57.821 135.402 52.1777 133.141 45.2264 131.048C29.754 135.645 8.17129 139.363 -10.3282 131.59C-11.0757 131.272 -11.5803 130.543 -11.5803 129.721C-11.5803 128.899 -11.0944 128.17 -10.3282 127.852C8.1526 120.079 29.7353 123.797 45.2264 128.394C52.1777 126.301 57.821 124.04 61.2593 122.676C62.6421 122.134 63.7259 121.686 64.4547 121.443C67.594 120.359 70.8828 117.313 70.9389 114.062C70.9949 111.035 68.2106 108.325 62.885 106.27C61.4649 105.821 39.0785 98.141 42.4795 67.9438C43.7128 60.9924 42.8158 56.5638 39.8447 54.6578C38.6301 53.8916 37.0978 53.5553 35.3974 53.5553L35.416 53.5366ZM-8.14196 129.702C7.85359 135.944 26.241 133.514 40.5548 129.702C26.2223 125.89 7.85359 123.461 -8.14196 129.702Z" fill="#0049BF"/>
<path d="M89.1394 126.993C85.9627 126.993 83.0289 128.002 80.6371 129.702C83.0289 131.403 85.9627 132.412 89.1394 132.412C92.3161 132.412 95.2499 131.403 97.6417 129.702C95.2499 128.002 92.3161 126.993 89.1394 126.993Z" fill="#0049BF"/>
<path d="M213.554 122.957C213.161 122.957 212.769 122.901 212.376 122.807C177.919 113.352 146.507 86.7611 139.2 77.2684C135.295 72.0175 130.53 61.4223 134.305 55.2745C136.771 51.2382 142.265 49.9115 150.599 51.3317C180.086 54.471 186.795 33.9907 187.056 33.1125C187.056 33.0751 187.075 33.0377 187.094 33.0003C190.27 25.1894 194.419 23.5076 197.39 23.5076C197.446 23.5076 197.502 23.5076 197.558 23.5076C202.174 23.6011 206.116 27.7121 207.48 31.5241C207.705 32.1594 208.153 33.2059 208.695 34.5139C209.891 37.3543 211.704 41.6895 213.535 47.0525C215.366 41.7082 217.197 37.3543 218.375 34.5326C218.917 33.2246 219.365 32.1781 219.589 31.5428C220.972 27.7308 224.915 23.6198 229.512 23.5263C232.52 23.489 236.743 25.0586 239.976 33.0191C239.976 33.0564 239.995 33.0938 240.013 33.1312C240.275 34.0094 246.983 54.4897 276.545 51.3317C284.805 49.9302 290.28 51.2569 292.765 55.2932C296.521 61.4223 291.775 72.0175 287.888 77.2684C280.582 86.7798 249.151 113.371 214.712 122.826C214.338 122.938 213.946 122.975 213.535 122.975L213.554 122.957ZM144.676 53.3124C140.564 53.3124 137.818 54.415 136.491 56.6013C133.576 61.3476 137.612 70.8216 141.256 75.7174C148.394 85.0045 179.208 111.053 213.068 120.341C213.385 120.434 213.74 120.434 214.077 120.341C247.937 111.053 278.75 85.0046 285.907 75.6988C289.532 70.8029 293.569 61.3289 290.654 56.6013C288.766 53.5367 284.169 52.6024 276.956 53.8357C246.03 57.1618 238.126 35.3548 237.659 33.9347C235.529 28.7212 232.726 25.993 229.624 26.0677C226.279 26.1425 223.14 29.3378 222.037 32.4024C221.776 33.1125 221.346 34.1776 220.767 35.523C219.365 38.8679 217.067 44.3803 214.918 51.1448C219.627 66.2621 223.439 87.3404 215.46 105.391C215.142 106.12 214.394 106.606 213.591 106.606C212.787 106.606 212.04 106.139 211.722 105.391C203.743 87.3404 207.555 66.2621 212.264 51.1448C210.115 44.3803 207.817 38.8866 206.415 35.523C205.855 34.1776 205.406 33.1125 205.145 32.4024C204.042 29.3378 200.903 26.1425 197.558 26.0677C194.437 25.993 191.634 28.7212 189.523 33.9347C189.074 35.2614 182.235 54.1907 156.485 54.1907C154.542 54.1907 152.468 54.0786 150.3 53.8544C148.226 53.4993 146.357 53.3311 144.713 53.3311L144.676 53.3124ZM213.554 55.5922C209.629 69.607 207.088 87.6206 213.554 103.28C220.019 87.6206 217.478 69.607 213.554 55.5922Z" fill="#0049BF"/>
<path d="M210.769 8.29694C210.769 11.3989 211.797 14.2579 213.554 16.5937C215.31 14.2579 216.338 11.3989 216.338 8.29694C216.338 5.195 215.31 2.33598 213.554 0.000183105C211.797 2.33598 210.769 5.195 210.769 8.29694Z" fill="#0049BF"/>
<path d="M197.39 235.897C194.419 235.897 190.27 234.215 187.093 226.405C187.093 226.367 187.075 226.33 187.056 226.292C186.794 225.414 180.086 204.934 150.524 208.092C142.265 209.493 136.79 208.167 134.304 204.13C130.548 198.001 135.295 187.406 139.182 182.155C146.488 172.644 177.918 146.053 212.357 136.598C213.124 136.392 213.946 136.392 214.712 136.598C249.17 146.053 280.581 172.644 287.888 182.136C291.793 187.387 296.558 197.982 292.784 204.13C290.317 208.167 284.842 209.493 276.489 208.073C246.983 204.915 240.294 225.414 240.032 226.292C240.032 226.33 240.013 226.367 239.995 226.405C236.762 234.346 232.539 235.953 229.53 235.897C224.915 235.804 220.972 231.693 219.608 227.881C219.384 227.245 218.935 226.199 218.393 224.891C217.197 222.051 215.385 217.715 213.553 212.371C211.722 217.715 209.891 222.069 208.714 224.91C208.172 226.218 207.723 227.264 207.499 227.899C206.116 231.711 202.173 235.822 197.576 235.916C197.52 235.916 197.464 235.916 197.408 235.916L197.39 235.897ZM189.467 225.489C191.56 230.628 194.306 233.356 197.39 233.356C197.427 233.356 197.464 233.356 197.502 233.356C200.847 233.281 203.986 230.086 205.088 227.021C205.35 226.311 205.78 225.246 206.359 223.901C207.761 220.556 210.059 215.043 212.208 208.279C207.499 193.161 203.687 172.083 211.666 154.032C211.984 153.303 212.731 152.818 213.535 152.818C214.338 152.818 215.086 153.285 215.403 154.032C223.382 172.083 219.57 193.161 214.861 208.279C217.01 215.043 219.309 220.537 220.71 223.901C221.271 225.246 221.719 226.311 221.981 227.021C223.083 230.086 226.223 233.281 229.568 233.356C229.605 233.356 229.642 233.356 229.68 233.356C232.763 233.356 235.51 230.646 237.603 225.489C238.07 224.069 245.937 202.243 276.826 205.569C284.113 206.803 288.71 205.868 290.597 202.804C293.512 198.057 289.476 188.583 285.832 183.687C278.694 174.4 247.88 148.351 214.02 139.064C213.703 138.971 213.348 138.971 213.011 139.064C179.152 148.351 148.338 174.4 141.181 183.706C137.556 188.602 133.52 198.057 136.435 202.804C138.303 205.868 142.919 206.803 150.132 205.569C181.076 202.243 188.943 224.05 189.429 225.47L189.467 225.489ZM213.553 156.125C207.107 171.784 209.629 189.817 213.553 203.813C217.477 189.798 220.019 171.784 213.553 156.125Z" fill="#0049BF"/>
<path d="M216.319 251.127C216.319 248.025 215.291 245.166 213.535 242.83C211.778 245.166 210.75 248.025 210.75 251.127C210.75 254.229 211.778 257.088 213.535 259.423C215.291 257.088 216.319 254.229 216.319 251.127Z" fill="#0049BF"/>
<path d="M142.881 208.409C140.732 208.409 138.714 207.98 137.051 206.915C133.108 204.411 131.838 199.104 133.258 191.125C136.491 162.366 115.487 155.845 114.59 155.583C114.553 155.583 114.516 155.564 114.497 155.546C106.368 152.388 104.724 148.239 104.78 145.306C104.873 140.783 109.078 136.915 113.002 135.57C113.656 135.346 114.721 134.916 116.066 134.374C118.963 133.215 123.373 131.459 128.792 129.684C123.373 127.908 118.963 126.152 116.066 124.993C114.721 124.452 113.656 124.04 112.983 123.797C109.059 122.452 104.855 118.584 104.761 114.062C104.705 111.128 106.35 106.98 114.478 103.822C114.516 103.822 114.553 103.803 114.59 103.784C115.487 103.523 136.491 97.0012 133.239 68.1681C131.838 60.2638 133.109 54.9568 137.033 52.4529C143.237 48.51 154.243 53.1816 159.718 57.0497C169.472 64.1879 196.717 94.8523 206.397 128.488C206.509 128.862 206.565 129.254 206.565 129.665C206.565 130.076 206.509 130.45 206.397 130.824C196.717 164.459 169.453 195.123 159.718 202.262C155.7 205.102 148.712 208.372 142.825 208.372L142.881 208.409ZM115.375 153.172C116.777 153.621 139.182 161.301 135.781 191.498C134.547 198.45 135.444 202.878 138.415 204.784C143.237 207.849 153.122 203.887 158.279 200.244C167.79 193.273 194.475 163.207 203.986 130.17C204.023 130.02 204.042 129.871 204.042 129.702C204.042 129.534 204.023 129.385 203.967 129.235C194.456 96.1977 167.772 66.1313 158.242 59.1613C153.103 55.5361 143.218 51.5746 138.397 54.6391C135.426 56.5265 134.529 60.9738 135.743 67.8317C139.163 98.1037 116.758 105.784 115.356 106.232C110.031 108.306 107.247 110.997 107.303 114.024C107.359 117.276 110.647 120.322 113.787 121.406C114.516 121.649 115.599 122.078 116.982 122.639C120.42 124.003 126.064 126.264 133.015 128.357C148.487 123.76 170.07 120.042 188.57 127.815C189.317 128.133 189.803 128.861 189.803 129.684C189.803 130.506 189.317 131.235 188.551 131.552C170.051 139.326 148.487 135.607 132.996 131.01C126.045 133.103 120.402 135.364 116.963 136.728C115.581 137.27 114.497 137.719 113.768 137.962C110.629 139.046 107.34 142.091 107.284 145.343C107.228 148.37 110.012 151.08 115.338 153.135L115.375 153.172ZM137.705 129.702C152.038 133.514 170.407 135.944 186.421 129.702C170.425 123.461 152.038 125.89 137.705 129.702Z" fill="#0049BF"/>
<path d="M89.1395 132.412C92.3162 132.412 95.25 131.403 97.6418 129.702C95.25 128.002 92.3162 126.993 89.1395 126.993C85.9628 126.993 83.0291 128.002 80.6372 129.702C83.0291 131.403 85.9628 132.412 89.1395 132.412Z" fill="#0049BF"/>
<path d="M284.207 208.409C278.32 208.409 271.35 205.139 267.333 202.318C257.579 195.179 230.334 164.515 220.654 130.88C220.542 130.506 220.486 130.113 220.486 129.702C220.486 129.291 220.542 128.917 220.654 128.525C230.334 94.8896 257.597 64.2252 267.333 57.1057C272.827 53.2189 283.833 48.5473 290.037 52.4902C293.98 54.9941 295.25 60.3011 293.83 68.2802C290.597 97.0385 311.601 103.56 312.498 103.822C312.535 103.822 312.573 103.84 312.591 103.859C320.72 107.017 322.364 111.165 322.308 114.099C322.215 118.621 318.01 122.489 314.105 123.835C313.451 124.059 312.386 124.489 311.022 125.031C308.125 126.189 303.715 127.946 298.296 129.721C303.715 131.496 308.144 133.253 311.022 134.411C312.367 134.953 313.432 135.364 314.086 135.607C318.01 136.953 322.215 140.821 322.289 145.343C322.346 148.277 320.701 152.425 312.573 155.583C312.535 155.583 312.498 155.602 312.46 155.62C311.563 155.882 290.56 162.403 293.811 191.237C295.213 199.141 293.942 204.448 289.999 206.952C288.336 208.017 286.318 208.447 284.169 208.447L284.207 208.409ZM284.225 53.5366C279.18 53.5366 272.658 56.433 268.809 59.1612C259.298 66.1312 232.614 96.1976 223.102 129.235C223.065 129.385 223.027 129.534 223.027 129.702C223.027 129.871 223.046 130.02 223.084 130.169C232.595 163.207 259.279 193.273 268.809 200.243C273.948 203.869 283.814 207.83 288.654 204.766C291.625 202.878 292.522 198.431 291.308 191.573C287.888 161.301 310.293 153.621 311.713 153.172C317.039 151.098 319.823 148.407 319.767 145.38C319.711 142.129 316.422 139.083 313.283 137.999C312.554 137.756 311.47 137.326 310.087 136.766C306.649 135.402 301.006 133.141 294.054 131.048C278.582 135.645 256.999 139.363 238.5 131.59C237.752 131.272 237.266 130.543 237.266 129.721C237.266 128.899 237.752 128.17 238.518 127.852C256.999 120.079 278.582 123.797 294.073 128.394C301.024 126.301 306.668 124.04 310.106 122.676C311.489 122.134 312.573 121.686 313.301 121.443C316.441 120.359 319.73 117.313 319.786 114.062C319.842 111.035 317.057 108.325 311.732 106.27C310.312 105.821 287.925 98.141 291.326 67.9438C292.559 60.9924 291.663 56.5638 288.691 54.6578C287.477 53.8916 285.944 53.5553 284.244 53.5553L284.225 53.5366ZM240.686 129.702C256.682 135.944 275.069 133.514 289.383 129.702C275.05 125.89 256.682 123.461 240.686 129.702Z" fill="#0049BF"/>
<path d="M337.949 126.993C334.772 126.993 331.838 128.002 329.446 129.702C331.838 131.403 334.772 132.412 337.949 132.412C341.125 132.412 344.059 131.403 346.451 129.702C344.059 128.002 341.125 126.993 337.949 126.993Z" fill="#0049BF"/>
<path d="M462.363 122.957C461.97 122.957 461.578 122.901 461.186 122.807C426.728 113.352 395.316 86.7611 388.01 77.2684C384.104 72.0175 379.339 61.4223 383.114 55.2745C385.581 51.2382 391.074 49.9115 399.408 51.3317C428.896 54.471 435.604 33.9907 435.866 33.1125C435.866 33.0751 435.884 33.0377 435.903 33.0003C439.08 25.1894 443.228 23.5076 446.199 23.5076C446.255 23.5076 446.311 23.5076 446.367 23.5076C450.964 23.6011 454.926 27.7121 456.29 31.5241C456.514 32.1594 456.963 33.2059 457.504 34.5139C458.7 37.3543 460.513 41.6895 462.344 47.0525C464.175 41.7082 466.007 37.3543 467.184 34.5326C467.726 33.2246 468.174 32.1781 468.399 31.5428C469.781 27.7308 473.724 23.6198 478.321 23.5263C481.329 23.489 485.553 25.0586 488.785 33.0191C488.785 33.0564 488.804 33.0938 488.823 33.1312C489.084 34.0094 495.793 54.4897 525.355 51.3317C533.614 49.9302 539.089 51.2569 541.574 55.2932C545.33 61.4223 540.584 72.0175 536.697 77.2684C529.391 86.7798 497.96 113.371 463.521 122.826C463.148 122.938 462.755 122.975 462.344 122.975L462.363 122.957ZM393.485 53.3124C389.374 53.3124 386.627 54.415 385.3 56.6013C382.385 61.3476 386.421 70.8216 390.065 75.7174C397.203 85.0045 428.017 111.053 461.877 120.341C462.195 120.434 462.55 120.434 462.886 120.341C496.746 111.053 527.56 85.0046 534.716 75.6988C538.342 70.8029 542.378 61.3289 539.463 56.6013C537.576 53.5367 532.979 52.6024 525.766 53.8357C494.84 57.1618 486.954 35.3548 486.468 33.9347C484.338 28.7212 481.535 25.993 478.433 26.0677C475.088 26.1425 471.949 29.3378 470.846 32.4024C470.585 33.1125 470.155 34.1776 469.576 35.523C468.174 38.8679 465.876 44.3803 463.727 51.1448C468.436 66.2621 472.248 87.3404 464.269 105.391C463.951 106.12 463.204 106.606 462.4 106.606C461.597 106.606 460.849 106.139 460.532 105.391C452.553 87.3404 456.365 66.2621 461.073 51.1448C458.925 44.3803 456.626 38.8866 455.225 35.523C454.664 34.1776 454.216 33.1125 453.954 32.4024C452.851 29.3378 449.712 26.1425 446.367 26.0677C443.247 25.993 440.444 28.7212 438.332 33.9347C437.884 35.2614 431.044 54.1907 405.295 54.1907C403.351 54.1907 401.277 54.0786 399.109 53.8544C397.035 53.4993 395.167 53.3311 393.522 53.3311L393.485 53.3124ZM462.363 55.5922C458.439 69.607 455.897 87.6206 462.363 103.28C468.828 87.6206 466.287 69.607 462.363 55.5922Z" fill="#0049BF"/>
<path d="M459.597 8.29694C459.597 11.3989 460.625 14.2579 462.381 16.5937C464.138 14.2579 465.166 11.3989 465.166 8.29694C465.166 5.195 464.138 2.33598 462.381 0.000183105C460.625 2.33598 459.597 5.195 459.597 8.29694Z" fill="#0049BF"/>
<path d="M446.218 235.897C443.247 235.897 439.098 234.215 435.922 226.405C435.922 226.367 435.903 226.33 435.884 226.292C435.623 225.414 428.914 204.934 399.352 208.092C391.093 209.493 385.618 208.167 383.132 204.13C379.377 198.001 384.123 187.406 388.01 182.155C395.316 172.644 426.747 146.053 461.186 136.598C461.952 136.392 462.774 136.392 463.54 136.598C497.998 146.053 529.41 172.644 536.716 182.136C540.621 187.387 545.386 197.982 541.612 204.13C539.145 208.167 533.67 209.493 525.317 208.073C495.811 204.915 489.122 225.414 488.86 226.292C488.86 226.33 488.841 226.367 488.823 226.405C485.59 234.346 481.367 235.953 478.358 235.897C473.743 235.804 469.8 231.693 468.436 227.881C468.212 227.245 467.763 226.199 467.221 224.891C466.025 222.051 464.213 217.715 462.382 212.371C460.55 217.715 458.719 222.069 457.542 224.91C457 226.218 456.551 227.264 456.327 227.899C454.944 231.711 451.002 235.822 446.405 235.916C446.349 235.916 446.293 235.916 446.236 235.916L446.218 235.897ZM438.295 225.489C440.388 230.628 443.135 233.356 446.218 233.356C446.255 233.356 446.293 233.356 446.33 233.356C449.675 233.281 452.814 230.086 453.917 227.021C454.178 226.311 454.608 225.246 455.187 223.901C456.589 220.556 458.887 215.043 461.036 208.279C456.327 193.161 452.515 172.083 460.494 154.032C460.812 153.303 461.559 152.818 462.363 152.818C463.166 152.818 463.914 153.285 464.231 154.032C472.211 172.083 468.399 193.161 463.69 208.279C465.839 215.043 468.137 220.537 469.538 223.901C470.099 225.246 470.548 226.311 470.809 227.021C471.912 230.086 475.051 233.281 478.396 233.356C478.433 233.356 478.471 233.356 478.508 233.356C481.591 233.356 484.338 230.646 486.431 225.489C486.898 224.069 494.765 202.243 525.654 205.569C532.941 206.803 537.538 205.868 539.425 202.804C542.341 198.057 538.304 188.583 534.66 183.687C527.522 174.4 496.708 148.351 462.849 139.064C462.531 138.971 462.176 138.971 461.84 139.064C427.98 148.351 397.166 174.4 390.009 183.706C386.384 188.602 382.348 198.057 385.263 202.804C387.131 205.868 391.747 206.803 398.96 205.569C429.905 202.243 437.772 224.05 438.257 225.47L438.295 225.489ZM462.363 156.125C455.916 171.784 458.439 189.817 462.363 203.813C466.287 189.798 468.828 171.784 462.363 156.125Z" fill="#0049BF"/>
<path d="M465.147 251.127C465.147 248.025 464.119 245.166 462.363 242.83C460.606 245.166 459.578 248.025 459.578 251.127C459.578 254.229 460.606 257.088 462.363 259.423C464.119 257.088 465.147 254.229 465.147 251.127Z" fill="#0049BF"/>
<path d="M391.71 208.409C389.561 208.409 387.543 207.98 385.879 206.915C381.937 204.411 380.666 199.104 382.086 191.125C385.319 162.366 364.315 155.845 363.418 155.583C363.381 155.583 363.344 155.564 363.306 155.546C355.178 152.388 353.533 148.239 353.589 145.306C353.683 140.783 357.887 136.915 361.811 135.57C362.465 135.346 363.531 134.916 364.876 134.374C367.772 133.215 372.182 131.459 377.601 129.684C372.182 127.908 367.772 126.152 364.876 124.993C363.531 124.452 362.465 124.04 361.793 123.797C357.868 122.452 353.664 118.584 353.571 114.062C353.515 111.128 355.159 106.98 363.288 103.822C363.325 103.822 363.362 103.803 363.4 103.784C364.297 103.523 385.3 97.0012 382.049 68.1681C380.647 60.2638 381.918 54.9568 385.861 52.4529C392.065 48.51 403.071 53.1816 408.546 57.0497C418.3 64.1879 445.545 94.8523 455.225 128.488C455.337 128.862 455.393 129.254 455.393 129.665C455.393 130.076 455.337 130.45 455.225 130.824C445.545 164.459 418.282 195.123 408.546 202.262C404.528 205.102 397.54 208.372 391.653 208.372L391.71 208.409ZM364.203 153.172C365.605 153.621 388.01 161.301 384.609 191.498C383.375 198.45 384.272 202.878 387.243 204.784C392.065 207.849 401.95 203.887 407.107 200.244C416.619 193.273 443.303 163.207 452.814 130.17C452.851 130.02 452.87 129.871 452.87 129.702C452.87 129.534 452.851 129.385 452.795 129.235C443.284 96.1977 416.6 66.1313 407.07 59.1613C401.931 55.5361 392.046 51.5746 387.225 54.6391C384.254 56.5265 383.357 60.9738 384.571 67.8317C387.991 98.1037 365.586 105.784 364.166 106.232C358.84 108.306 356.056 110.997 356.112 114.024C356.168 117.276 359.457 120.322 362.596 121.406C363.325 121.649 364.409 122.078 365.792 122.639C369.23 124.003 374.873 126.264 381.825 128.357C397.297 123.76 418.88 120.042 437.379 127.815C438.127 128.133 438.612 128.861 438.612 129.684C438.612 130.506 438.127 131.235 437.36 131.552C418.861 139.326 397.297 135.607 381.806 131.01C374.854 133.103 369.211 135.364 365.773 136.728C364.39 137.27 363.306 137.719 362.577 137.962C359.438 139.046 356.149 142.091 356.093 145.343C356.037 148.37 358.822 151.08 364.147 153.135L364.203 153.172ZM386.533 129.702C400.866 133.514 419.235 135.944 435.23 129.702C419.235 123.461 400.847 125.89 386.533 129.702Z" fill="#0049BF"/>
<path d="M337.949 132.412C341.125 132.412 344.059 131.403 346.451 129.702C344.059 128.002 341.125 126.993 337.949 126.993C334.772 126.993 331.838 128.002 329.446 129.702C331.838 131.403 334.772 132.412 337.949 132.412Z" fill="#0049BF"/>
<path d="M533.016 208.409C527.13 208.409 520.16 205.139 516.142 202.318C506.388 195.179 479.143 164.515 469.464 130.88C469.351 130.506 469.295 130.113 469.295 129.702C469.295 129.291 469.351 128.917 469.464 128.525C479.143 94.8896 506.406 64.2252 516.142 57.1057C521.636 53.2189 532.642 48.5473 538.846 52.4902C542.789 54.9941 544.06 60.3011 542.639 68.2802C539.407 97.0385 560.41 103.56 561.307 103.822C561.345 103.822 561.382 103.84 561.401 103.859C569.529 107.017 571.174 111.165 571.118 114.099C571.024 118.621 566.82 122.489 562.914 123.835C562.26 124.059 561.195 124.489 559.831 125.031C556.934 126.189 552.525 127.946 547.105 129.721C552.525 131.496 556.953 133.253 559.831 134.411C561.176 134.953 562.241 135.364 562.895 135.607C566.82 136.953 571.024 140.821 571.099 145.343C571.155 148.277 569.51 152.425 561.382 155.583C561.345 155.583 561.307 155.602 561.27 155.62C560.373 155.882 539.369 162.403 542.621 191.237C544.022 199.141 542.752 204.448 538.827 206.952C537.164 208.017 535.146 208.447 532.997 208.447L533.016 208.409ZM533.053 53.5366C528.008 53.5366 521.486 56.433 517.637 59.1612C508.126 66.1312 481.442 96.1976 471.93 129.235C471.893 129.385 471.855 129.534 471.855 129.702C471.855 129.871 471.874 130.02 471.911 130.169C481.423 163.207 508.107 193.273 517.637 200.243C522.776 203.869 532.642 207.83 537.482 204.766C540.453 202.878 541.35 198.431 540.135 191.573C536.716 161.301 559.121 153.621 560.522 153.172C565.848 151.098 568.632 148.407 568.576 145.38C568.52 142.129 565.231 139.083 562.092 137.999C561.363 137.756 560.279 137.326 558.897 136.766C555.458 135.402 549.815 133.141 542.864 131.048C527.391 135.645 505.809 139.363 487.309 131.59C486.562 131.272 486.076 130.543 486.076 129.721C486.076 128.899 486.562 128.17 487.328 127.852C505.809 120.079 527.391 123.797 542.882 128.394C549.834 126.301 555.477 124.04 558.915 122.676C560.298 122.134 561.382 121.686 562.111 121.443C565.25 120.359 568.539 117.313 568.595 114.062C568.651 111.035 565.867 108.325 560.541 106.27C559.121 105.821 536.735 98.141 540.135 67.9438C541.369 60.9924 540.472 56.5638 537.501 54.6578C536.286 53.8916 534.754 53.5553 533.053 53.5553V53.5366ZM489.495 129.702C505.491 135.944 523.878 133.514 538.192 129.702C523.86 125.89 505.491 123.461 489.495 129.702Z" fill="#0049BF"/>
<path d="M586.777 126.993C583.6 126.993 580.666 128.002 578.274 129.702C580.666 131.403 583.6 132.412 586.777 132.412C589.953 132.412 592.887 131.403 595.279 129.702C592.887 128.002 589.953 126.993 586.777 126.993Z" fill="#0049BF"/>
<path d="M711.191 122.957C710.798 122.957 710.406 122.901 710.014 122.807C675.556 113.352 644.144 86.7611 636.838 77.2684C632.932 72.0175 628.167 61.4223 631.942 55.2745C634.409 51.2382 639.902 49.9115 648.236 51.3317C677.724 54.471 684.432 33.9907 684.694 33.1125C684.694 33.0751 684.712 33.0377 684.731 33.0003C687.908 25.1894 692.056 23.5076 695.027 23.5076C695.083 23.5076 695.139 23.5076 695.195 23.5076C699.811 23.6011 703.754 27.7121 705.118 31.5241C705.342 32.1594 705.791 33.2059 706.332 34.5139C707.528 37.3543 709.341 41.6895 711.172 47.0525C713.004 41.7082 714.835 37.3543 716.012 34.5326C716.554 33.2246 717.002 32.1781 717.227 31.5428C718.609 27.7308 722.552 23.6198 727.149 23.5263C730.158 23.489 734.381 25.0586 737.613 33.0191C737.613 33.0564 737.632 33.0938 737.651 33.1312C737.912 34.0094 744.621 54.4897 774.183 51.3317C782.442 49.9302 787.917 51.2569 790.402 55.2932C794.158 61.4223 789.412 72.0175 785.525 77.2684C778.219 86.7798 746.788 113.371 712.349 122.826C711.976 122.938 711.565 122.975 711.172 122.975L711.191 122.957ZM642.313 53.3124C638.202 53.3124 635.455 54.415 634.128 56.6013C631.213 61.3476 635.249 70.8216 638.893 75.7174C646.031 85.0045 676.845 111.053 710.705 120.341C711.023 120.434 711.378 120.434 711.714 120.341C745.574 111.053 776.388 85.0046 783.545 75.6988C787.17 70.8029 791.206 61.3289 788.291 56.6013C786.404 53.5367 781.807 52.6024 774.594 53.8357C743.668 57.1618 735.763 35.3548 735.296 33.9347C733.166 28.7212 730.363 25.993 727.261 26.0677C723.916 26.1425 720.777 29.3378 719.675 32.4024C719.413 33.1125 718.983 34.1776 718.404 35.523C717.002 38.8679 714.704 44.3803 712.555 51.1448C717.264 66.2621 721.076 87.3404 713.097 105.391C712.779 106.12 712.032 106.606 711.228 106.606C710.425 106.606 709.677 106.139 709.36 105.391C701.381 87.3404 705.192 66.2621 709.901 51.1448C707.753 44.3803 705.454 38.8866 704.053 35.523C703.492 34.1776 703.044 33.1125 702.782 32.4024C701.679 29.3378 698.54 26.1425 695.195 26.0677C692.075 25.993 689.272 28.7212 687.16 33.9347C686.712 35.2614 679.872 54.1907 654.123 54.1907C652.179 54.1907 650.105 54.0786 647.937 53.8544C645.863 53.4993 643.995 53.3311 642.35 53.3311L642.313 53.3124ZM711.191 55.5922C707.267 69.607 704.725 87.6206 711.191 103.28C717.656 87.6206 715.115 69.607 711.191 55.5922Z" fill="#0049BF"/>
<path d="M708.406 8.29694C708.406 11.3989 709.434 14.2579 711.191 16.5937C712.947 14.2579 713.975 11.3989 713.975 8.29694C713.975 5.195 712.947 2.33598 711.191 0.000183105C709.434 2.33598 708.406 5.195 708.406 8.29694Z" fill="#0049BF"/>
<path d="M695.027 235.897C692.056 235.897 687.907 234.215 684.731 226.405C684.731 226.367 684.712 226.33 684.693 226.292C684.432 225.414 677.723 204.934 648.161 208.092C639.902 209.493 634.427 208.167 631.942 204.13C628.186 198.001 632.932 187.406 636.819 182.155C644.125 172.644 675.556 146.053 709.995 136.598C710.761 136.392 711.583 136.392 712.349 136.598C746.807 146.053 778.219 172.644 785.525 182.136C789.43 187.387 794.196 197.982 790.421 204.13C787.954 208.167 782.479 209.493 774.126 208.073C744.621 204.915 737.931 225.414 737.669 226.292C737.669 226.33 737.651 226.367 737.632 226.405C734.399 234.346 730.176 235.953 727.167 235.897C722.552 235.804 718.609 231.693 717.245 227.881C717.021 227.245 716.572 226.199 716.03 224.891C714.834 222.051 713.022 217.715 711.191 212.371C709.359 217.715 707.528 222.069 706.351 224.91C705.809 226.218 705.36 227.264 705.136 227.899C703.753 231.711 699.811 235.822 695.214 235.916C695.158 235.916 695.102 235.916 695.046 235.916L695.027 235.897ZM687.104 225.489C689.197 230.628 691.944 233.356 695.027 233.356C695.064 233.356 695.102 233.356 695.139 233.356C698.484 233.281 701.623 230.086 702.726 227.021C702.987 226.311 703.417 225.246 703.996 223.901C705.398 220.556 707.696 215.043 709.845 208.279C705.136 193.161 701.324 172.083 709.303 154.032C709.621 153.303 710.368 152.818 711.172 152.818C711.975 152.818 712.723 153.285 713.041 154.032C721.02 172.083 717.208 193.161 712.499 208.279C714.648 215.043 716.946 220.537 718.347 223.901C718.908 225.246 719.356 226.311 719.618 227.021C720.721 230.086 723.86 233.281 727.205 233.356C727.242 233.356 727.28 233.356 727.317 233.356C730.4 233.356 733.147 230.646 735.24 225.489C735.707 224.069 743.574 202.243 774.463 205.569C781.75 206.803 786.347 205.868 788.235 202.804C791.15 198.057 787.113 188.583 783.47 183.687C776.331 174.4 745.517 148.351 711.658 139.064C711.34 138.971 710.985 138.971 710.649 139.064C676.789 148.351 645.975 174.4 638.818 183.706C635.193 188.602 631.157 198.057 634.072 202.804C635.941 205.868 640.556 206.803 647.769 205.569C678.714 202.243 686.581 224.05 687.066 225.47L687.104 225.489ZM711.191 156.125C704.744 171.784 707.266 189.817 711.191 203.813C715.115 189.798 717.656 171.784 711.191 156.125Z" fill="#0049BF"/>
<path d="M713.956 251.127C713.956 248.025 712.929 245.166 711.172 242.83C709.416 245.166 708.388 248.025 708.388 251.127C708.388 254.229 709.416 257.088 711.172 259.423C712.929 257.088 713.956 254.229 713.956 251.127Z" fill="#0049BF"/>
<path d="M640.519 208.409C638.37 208.409 636.352 207.98 634.689 206.915C630.746 204.411 629.475 199.104 630.895 191.125C634.128 162.366 613.125 155.845 612.228 155.583C612.19 155.583 612.153 155.564 612.116 155.546C603.987 152.388 602.343 148.239 602.399 145.306C602.492 140.783 606.696 136.915 610.621 135.57C611.275 135.346 612.34 134.916 613.685 134.374C616.582 133.215 620.991 131.459 626.411 129.684C620.991 127.908 616.563 126.152 613.685 124.993C612.34 124.452 611.275 124.04 610.621 123.797C606.696 122.452 602.492 118.584 602.399 114.062C602.343 111.128 603.987 106.98 612.116 103.822C612.153 103.822 612.19 103.803 612.228 103.784C613.125 103.523 634.128 97.0012 630.877 68.1681C629.475 60.2638 630.746 54.9568 634.689 52.4529C640.892 48.51 651.899 53.1816 657.374 57.0497C667.128 64.1879 694.373 94.8523 704.053 128.488C704.165 128.862 704.221 129.254 704.221 129.665C704.221 130.076 704.165 130.45 704.053 130.824C694.373 164.459 667.11 195.123 657.374 202.262C653.356 205.102 646.368 208.372 640.481 208.372L640.519 208.409ZM613.012 153.172C614.414 153.621 636.819 161.301 633.418 191.498C632.185 198.45 633.082 202.878 636.053 204.784C640.874 207.849 650.759 203.887 655.916 200.244C665.428 193.273 692.112 163.207 701.623 130.17C701.661 130.02 701.679 129.871 701.679 129.702C701.679 129.534 701.661 129.385 701.605 129.235C692.093 96.1977 665.409 66.1313 655.879 59.1613C650.74 55.5361 640.855 51.5746 636.034 54.6391C633.063 56.5265 632.166 60.9738 633.381 67.8317C636.8 98.1037 614.395 105.784 612.994 106.232C607.668 108.306 604.884 110.997 604.94 114.024C604.996 117.276 608.285 120.322 611.424 121.406C612.153 121.649 613.237 122.078 614.619 122.639C618.058 124.003 623.701 126.264 630.652 128.357C646.125 123.76 667.707 120.042 686.207 127.815C686.954 128.133 687.44 128.861 687.44 129.684C687.44 130.506 686.954 131.235 686.188 131.552C667.689 139.326 646.125 135.607 630.634 131.01C623.682 133.103 618.039 135.364 614.601 136.728C613.218 137.27 612.134 137.719 611.405 137.962C608.266 139.046 604.977 142.091 604.921 145.343C604.865 148.37 607.649 151.08 612.975 153.135L613.012 153.172ZM635.343 129.702C649.675 133.514 668.044 135.944 684.058 129.702C668.063 123.461 649.675 125.89 635.343 129.702Z" fill="#0049BF"/>
<path d="M586.777 132.412C589.953 132.412 592.887 131.403 595.279 129.702C592.887 128.002 589.953 126.993 586.777 126.993C583.6 126.993 580.666 128.002 578.274 129.702C580.666 131.403 583.6 132.412 586.777 132.412Z" fill="#0049BF"/>
<path d="M781.844 208.409C775.958 208.409 768.988 205.139 764.97 202.318C755.216 195.179 727.971 164.515 718.292 130.88C718.179 130.506 718.123 130.113 718.123 129.702C718.123 129.291 718.179 128.917 718.292 128.525C727.971 94.8896 755.234 64.2252 764.97 57.1057C770.464 53.2189 781.47 48.5473 787.674 52.4902C791.617 54.9941 792.888 60.3011 791.467 68.2802C788.235 97.0385 809.238 103.56 810.135 103.822C810.172 103.822 810.21 103.84 810.247 103.859C818.376 107.017 820.02 111.165 819.964 114.099C819.871 118.621 815.666 122.489 811.761 123.835C811.107 124.059 810.042 124.489 808.678 125.031C805.781 126.189 801.371 127.946 795.952 129.721C801.371 131.496 805.8 133.253 808.678 134.411C810.023 134.953 811.088 135.364 811.742 135.607C815.666 136.953 819.871 140.821 819.945 145.343C820.001 148.277 818.357 152.425 810.228 155.583C810.191 155.583 810.154 155.602 810.116 155.62C809.219 155.882 788.216 162.403 791.467 191.237C792.869 199.141 791.598 204.448 787.655 206.952C785.992 208.017 783.974 208.447 781.825 208.447L781.844 208.409ZM781.863 53.5366C776.817 53.5366 770.296 56.433 766.446 59.1612C756.935 66.1312 730.251 96.1976 720.739 129.235C720.702 129.385 720.665 129.534 720.665 129.702C720.665 129.871 720.683 130.02 720.721 130.169C730.232 163.207 756.916 193.273 766.446 200.243C771.585 203.869 781.451 207.83 786.291 204.766C789.262 202.878 790.159 198.431 788.945 191.573C785.525 161.301 807.93 153.621 809.332 153.172C814.657 151.098 817.441 148.407 817.385 145.38C817.329 142.129 814.041 139.083 810.901 137.999C810.172 137.756 809.089 137.326 807.706 136.766C804.268 135.402 798.624 133.141 791.673 131.048C776.201 135.645 754.618 139.363 736.118 131.59C735.371 131.272 734.866 130.543 734.866 129.721C734.866 128.899 735.352 128.17 736.118 127.852C754.599 120.079 776.182 123.797 791.673 128.394C798.624 126.301 804.268 124.04 807.706 122.676C809.089 122.134 810.172 121.686 810.901 121.443C814.041 120.359 817.329 117.313 817.385 114.062C817.441 111.035 814.657 108.325 809.332 106.27C807.911 105.821 785.525 98.141 788.926 67.9438C790.159 60.9924 789.262 56.5638 786.291 54.6578C785.077 53.8916 783.544 53.5553 781.844 53.5553L781.863 53.5366ZM738.305 129.702C754.3 135.944 772.688 133.514 787.001 129.702C772.669 125.89 754.3 123.461 738.305 129.702Z" fill="#0049BF"/>
<path d="M835.586 126.993C832.409 126.993 829.476 128.002 827.084 129.702C829.476 131.403 832.409 132.412 835.586 132.412C838.763 132.412 841.696 131.403 844.088 129.702C841.696 128.002 838.763 126.993 835.586 126.993Z" fill="#0049BF"/>
<path d="M960 122.957C959.607 122.957 959.215 122.901 958.823 122.807C924.365 113.352 892.953 86.7611 885.647 77.2684C881.741 72.0175 876.976 61.4223 880.751 55.2745C883.218 51.2382 888.711 49.9115 897.045 51.3317C926.533 54.471 933.241 33.9907 933.503 33.1125C933.503 33.0751 933.521 33.0377 933.54 33.0003C936.717 25.1894 940.865 23.5076 943.836 23.5076C943.892 23.5076 943.948 23.5076 944.004 23.5076C948.62 23.6011 952.563 27.7121 953.927 31.5241C954.151 32.1594 954.6 33.2059 955.142 34.5139C956.337 37.3543 958.15 41.6895 959.981 47.0525C961.812 41.7082 963.644 37.3543 964.821 34.5326C965.363 33.2246 965.811 32.1781 966.036 31.5428C967.418 27.7308 971.361 23.6198 975.958 23.5263C978.967 23.489 983.19 25.0586 986.422 33.0191C986.422 33.0564 986.441 33.0938 986.46 33.1312C986.721 34.0094 993.43 54.4897 1022.99 51.3317C1031.25 49.9302 1036.73 51.2569 1039.21 55.2932C1042.97 61.4223 1038.22 72.0175 1034.33 77.2684C1027.03 86.7798 995.597 113.371 961.158 122.826C960.785 122.938 960.392 122.975 959.981 122.975L960 122.957ZM891.122 53.3124C887.011 53.3124 884.264 54.415 882.937 56.6013C880.022 61.3476 884.058 70.8216 887.702 75.7174C894.84 85.0045 925.654 111.053 959.514 120.341C959.832 120.434 960.187 120.434 960.523 120.341C994.383 111.053 1025.2 85.0046 1032.35 75.6988C1035.98 70.8029 1040.02 61.3289 1037.1 56.6013C1035.21 53.5367 1030.62 52.6024 1023.4 53.8357C992.477 57.1618 984.573 35.3548 984.105 33.9347C981.975 28.7212 979.172 25.993 976.07 26.0677C972.725 26.1425 969.586 29.3378 968.483 32.4024C968.222 33.1125 967.792 34.1776 967.213 35.523C965.811 38.8679 963.513 44.3803 961.364 51.1448C966.073 66.2621 969.885 87.3404 961.906 105.391C961.588 106.12 960.841 106.606 960.037 106.606C959.234 106.606 958.486 106.139 958.169 105.391C950.19 87.3404 954.002 66.2621 958.711 51.1448C956.562 44.3803 954.263 38.8866 952.862 35.523C952.301 34.1776 951.853 33.1125 951.591 32.4024C950.489 29.3378 947.349 26.1425 944.004 26.0677C940.884 25.993 938.081 28.7212 935.969 33.9347C935.521 35.2614 928.682 54.1907 902.932 54.1907C900.988 54.1907 898.914 54.0786 896.747 53.8544C894.672 53.4993 892.804 53.3311 891.159 53.3311L891.122 53.3124ZM960 55.5922C956.076 69.607 953.534 87.6206 960 103.28C966.465 87.6206 963.924 69.607 960 55.5922Z" fill="#0049BF"/>
<path d="M957.216 8.29694C957.216 11.3989 958.243 14.2579 960 16.5937C961.756 14.2579 962.784 11.3989 962.784 8.29694C962.784 5.195 961.756 2.33598 960 0.000183105C958.243 2.33598 957.216 5.195 957.216 8.29694Z" fill="#0049BF"/>
<path d="M943.855 235.897C940.884 235.897 936.735 234.215 933.559 226.405C933.559 226.367 933.54 226.33 933.521 226.292C933.26 225.414 926.551 204.934 896.99 208.092C888.73 209.493 883.255 208.167 880.77 204.13C877.014 198.001 881.76 187.406 885.647 182.155C892.953 172.644 924.384 146.053 958.823 136.598C959.589 136.392 960.411 136.392 961.177 136.598C995.635 146.053 1027.05 172.644 1034.35 182.136C1038.26 187.387 1043.02 197.982 1039.25 204.13C1036.78 208.167 1031.31 209.493 1022.95 208.073C993.449 204.915 986.759 225.414 986.497 226.292C986.497 226.33 986.479 226.367 986.46 226.405C983.227 234.346 979.004 235.953 975.996 235.897C971.38 235.804 967.437 231.693 966.073 227.881C965.849 227.245 965.4 226.199 964.858 224.891C963.663 222.051 961.85 217.715 960.019 212.371C958.187 217.715 956.356 222.069 955.179 224.91C954.637 226.218 954.189 227.264 953.964 227.899C952.582 231.711 948.639 235.822 944.042 235.916C943.986 235.916 943.93 235.916 943.874 235.916L943.855 235.897ZM935.913 225.489C938.006 230.628 940.753 233.356 943.836 233.356C943.874 233.356 943.911 233.356 943.948 233.356C947.293 233.281 950.433 230.086 951.535 227.021C951.797 226.311 952.227 225.246 952.806 223.901C954.207 220.556 956.506 215.043 958.655 208.279C953.946 193.161 950.134 172.083 958.113 154.032C958.43 153.303 959.178 152.818 959.981 152.818C960.785 152.818 961.532 153.285 961.85 154.032C969.829 172.083 966.017 193.161 961.308 208.279C963.457 215.043 965.755 220.537 967.157 223.901C967.718 225.246 968.166 226.311 968.428 227.021C969.53 230.086 972.669 233.281 976.014 233.356C976.052 233.356 976.089 233.356 976.126 233.356C979.21 233.356 981.957 230.646 984.049 225.489C984.517 224.069 992.384 202.243 1023.27 205.569C1030.56 206.803 1035.16 205.868 1037.04 202.804C1039.96 198.057 1035.92 188.583 1032.28 183.687C1025.14 174.4 994.327 148.351 960.467 139.064C960.15 138.971 959.795 138.971 959.458 139.064C925.598 148.351 894.785 174.4 887.628 183.706C884.003 188.602 879.966 198.057 882.881 202.804C884.75 205.868 889.365 206.803 896.578 205.569C927.523 202.243 935.39 224.05 935.876 225.47L935.913 225.489ZM960 156.125C953.553 171.784 956.076 189.817 960 203.813C963.924 189.798 966.466 171.784 960 156.125Z" fill="#0049BF"/>
<path d="M962.784 251.127C962.784 248.025 961.757 245.166 960 242.83C958.244 245.166 957.216 248.025 957.216 251.127C957.216 254.229 958.244 257.088 960 259.423C961.757 257.088 962.784 254.229 962.784 251.127Z" fill="#0049BF"/>
<path d="M889.347 208.409C887.198 208.409 885.18 207.98 883.517 206.915C879.574 204.411 878.303 199.104 879.723 191.125C882.956 162.366 861.952 155.845 861.056 155.583C861.018 155.583 860.981 155.564 860.962 155.546C852.834 152.388 851.189 148.239 851.245 145.306C851.339 140.783 855.543 136.915 859.467 135.57C860.121 135.346 861.186 134.916 862.532 134.374C865.428 133.215 869.838 131.459 875.257 129.684C869.838 127.908 865.428 126.152 862.532 124.993C861.186 124.452 860.121 124.04 859.449 123.797C855.524 122.452 851.32 118.584 851.226 114.062C851.17 111.128 852.815 106.98 860.943 103.822C860.981 103.822 861.018 103.803 861.056 103.784C861.952 103.523 882.956 97.0012 879.705 68.1681C878.303 60.2638 879.574 54.9568 883.498 52.4529C889.702 48.51 900.708 53.1816 906.183 57.0497C915.937 64.1879 943.182 94.8523 952.862 128.488C952.974 128.862 953.03 129.254 953.03 129.665C953.03 130.076 952.974 130.45 952.862 130.824C943.182 164.459 915.919 195.123 906.183 202.262C902.166 205.102 895.177 208.372 889.291 208.372L889.347 208.409ZM861.84 153.172C863.242 153.621 885.647 161.301 882.246 191.498C881.013 198.45 881.91 202.878 884.881 204.784C889.702 207.849 899.587 203.887 904.744 200.244C914.256 193.273 940.94 163.207 950.451 130.17C950.489 130.02 950.507 129.871 950.507 129.702C950.507 129.534 950.489 129.385 950.433 129.235C940.921 96.1977 914.237 66.1313 904.707 59.1613C899.568 55.5361 889.683 51.5746 884.862 54.6391C881.891 56.5265 880.994 60.9738 882.209 67.8317C885.628 98.1037 863.223 105.784 861.803 106.232C856.477 108.306 853.693 110.997 853.749 114.024C853.805 117.276 857.094 120.322 860.233 121.406C860.962 121.649 862.046 122.078 863.429 122.639C866.867 124.003 872.51 126.264 879.462 128.357C894.934 123.76 916.517 120.042 935.016 127.815C935.764 128.133 936.25 128.861 936.25 129.684C936.25 130.506 935.764 131.235 934.998 131.552C916.498 139.326 894.934 135.607 879.443 131.01C872.492 133.103 866.848 135.364 863.41 136.728C862.027 137.27 860.943 137.719 860.215 137.962C857.075 139.046 853.787 142.091 853.73 145.343C853.674 148.37 856.459 151.08 861.784 153.135L861.84 153.172ZM884.171 129.702C898.503 133.514 916.872 135.944 932.867 129.702C916.872 123.461 898.484 125.89 884.171 129.702Z" fill="#0049BF"/>
<path d="M835.586 132.412C838.763 132.412 841.696 131.403 844.088 129.702C841.696 128.002 838.763 126.993 835.586 126.993C832.409 126.993 829.476 128.002 827.084 129.702C829.476 131.403 832.409 132.412 835.586 132.412Z" fill="#0049BF"/>
<path d="M1030.65 208.409C1024.77 208.409 1017.8 205.139 1013.78 202.318C1004.03 195.179 976.78 164.515 967.101 130.88C966.989 130.506 966.933 130.113 966.933 129.702C966.933 129.291 966.989 128.917 967.101 128.525C976.78 94.8896 1004.04 64.2252 1013.78 57.1057C1019.27 53.2189 1030.28 48.5473 1036.48 52.4902C1040.43 54.9941 1041.7 60.3011 1040.28 68.2802C1037.04 97.0385 1058.05 103.56 1058.94 103.822C1058.98 103.822 1059.02 103.84 1059.04 103.859C1067.17 107.017 1068.81 111.165 1068.75 114.099C1068.66 118.621 1064.46 122.489 1060.55 123.835C1059.9 124.059 1058.83 124.489 1057.47 125.031C1054.57 126.189 1050.16 127.946 1044.74 129.721C1050.16 131.496 1054.59 133.253 1057.47 134.411C1058.81 134.953 1059.88 135.364 1060.53 135.607C1064.46 136.953 1068.66 140.821 1068.74 145.343C1068.79 148.277 1067.15 152.425 1059.02 155.583C1058.98 155.583 1058.94 155.602 1058.91 155.62C1058.01 155.882 1037.01 162.403 1040.26 191.237C1041.66 199.141 1040.39 204.448 1036.45 206.952C1034.78 208.017 1032.76 208.447 1030.62 208.447L1030.65 208.409ZM1030.67 53.5366C1025.63 53.5366 1019.1 56.433 1015.26 59.1612C1005.74 66.1312 979.06 96.1976 969.549 129.235C969.511 129.385 969.474 129.534 969.474 129.702C969.474 129.871 969.493 130.02 969.53 130.169C979.041 163.207 1005.73 193.273 1015.26 200.243C1020.39 203.869 1030.26 207.83 1035.1 204.766C1038.07 202.878 1038.97 198.431 1037.75 191.573C1034.33 161.301 1056.74 153.621 1058.16 153.172C1063.49 151.098 1066.27 148.407 1066.21 145.38C1066.16 142.129 1062.87 139.083 1059.73 137.999C1059 137.756 1057.92 137.326 1056.53 136.766C1053.1 135.402 1047.45 133.141 1040.5 131.048C1025.03 135.645 1003.45 139.363 984.946 131.59C984.199 131.272 983.713 130.543 983.713 129.721C983.713 128.899 984.199 128.17 984.965 127.852C1003.45 120.079 1025.03 123.797 1040.52 128.394C1047.47 126.301 1053.11 124.04 1056.55 122.676C1057.94 122.134 1059.02 121.686 1059.75 121.443C1062.89 120.359 1066.18 117.313 1066.23 114.062C1066.29 111.035 1063.5 108.325 1058.18 106.27C1056.76 105.821 1034.37 98.141 1037.77 67.9438C1039.01 60.9924 1038.11 56.5638 1035.14 54.6578C1033.92 53.8916 1032.39 53.5553 1030.69 53.5553L1030.67 53.5366ZM987.133 129.702C1003.13 135.944 1021.52 133.514 1035.83 129.702C1021.5 125.89 1003.13 123.461 987.133 129.702Z" fill="#0049BF"/>
<path d="M1084.41 126.993C1081.24 126.993 1078.3 128.002 1075.91 129.702C1078.3 131.403 1081.24 132.412 1084.41 132.412C1087.59 132.412 1090.52 131.403 1092.92 129.702C1090.52 128.002 1087.59 126.993 1084.41 126.993Z" fill="#0049BF"/>
<path d="M1208.81 122.957C1208.42 122.957 1208.02 122.901 1207.63 122.807C1173.17 113.352 1141.76 86.7611 1134.46 77.2684C1130.55 72.0175 1125.79 61.4223 1129.56 55.2745C1132.03 51.2382 1137.52 49.9115 1145.85 51.3317C1175.34 54.471 1182.05 33.9907 1182.31 33.1125C1182.31 33.0751 1182.33 33.0377 1182.35 33.0003C1185.53 25.1894 1189.67 23.5076 1192.65 23.5076C1192.7 23.5076 1192.76 23.5076 1192.81 23.5076C1197.43 23.6011 1201.37 27.7121 1202.74 31.5241C1202.96 32.1594 1203.41 33.2059 1203.95 34.5139C1205.15 37.3543 1206.96 41.6895 1208.79 47.0525C1210.62 41.7082 1212.45 37.3543 1213.63 34.5326C1214.17 33.2246 1214.62 32.1781 1214.84 31.5428C1216.23 27.7308 1220.17 23.6198 1224.77 23.5263C1227.78 23.489 1232 25.0586 1235.23 33.0191C1235.23 33.0564 1235.25 33.0938 1235.27 33.1312C1235.53 34.0094 1242.24 54.4897 1271.8 51.3317C1280.06 49.9302 1285.54 51.2569 1288.02 55.2932C1291.78 61.4223 1287.03 72.0175 1283.14 77.2684C1275.84 86.7798 1244.41 113.371 1209.97 122.826C1209.59 122.938 1209.2 122.975 1208.79 122.975L1208.81 122.957ZM1139.93 53.3124C1135.82 53.3124 1133.07 54.415 1131.75 56.6013C1128.83 61.3476 1132.87 70.8216 1136.51 75.7174C1143.65 85.0045 1174.46 111.053 1208.32 120.341C1208.64 120.434 1209 120.434 1209.33 120.341C1243.19 111.053 1274.01 85.0046 1281.16 75.6988C1284.79 70.8029 1288.82 61.3289 1285.91 56.6013C1284.02 53.5367 1279.42 52.6024 1272.21 53.8357C1241.29 57.1618 1233.4 35.3548 1232.91 33.9347C1230.78 28.7212 1227.98 25.993 1224.88 26.0677C1221.53 26.1425 1218.4 29.3378 1217.29 32.4024C1217.03 33.1125 1216.6 34.1776 1216.02 35.523C1214.62 38.8679 1212.32 44.3803 1210.17 51.1448C1214.88 66.2621 1218.69 87.3404 1210.72 105.391C1210.4 106.12 1209.65 106.606 1208.85 106.606C1208.04 106.606 1207.3 106.139 1206.98 105.391C1199 87.3404 1202.81 66.2621 1207.52 51.1448C1205.37 44.3803 1203.07 38.8866 1201.67 35.523C1201.11 34.1776 1200.66 33.1125 1200.4 32.4024C1199.3 29.3378 1196.16 26.1425 1192.81 26.0677C1189.69 25.993 1186.89 28.7212 1184.78 33.9347C1184.33 35.2614 1177.49 54.1907 1151.74 54.1907C1149.8 54.1907 1147.72 54.0786 1145.56 53.8544C1143.48 53.4993 1141.61 53.3311 1139.97 53.3311L1139.93 53.3124ZM1208.81 55.5922C1204.88 69.607 1202.34 87.6206 1208.81 103.28C1215.27 87.6206 1212.73 69.607 1208.81 55.5922Z" fill="#0049BF"/>
<path d="M1206.04 8.29694C1206.04 11.3989 1207.07 14.2579 1208.83 16.5937C1210.58 14.2579 1211.61 11.3989 1211.61 8.29694C1211.61 5.195 1210.58 2.33598 1208.83 0.000183105C1207.07 2.33598 1206.04 5.195 1206.04 8.29694Z" fill="#0049BF"/>
<path d="M1192.66 235.897C1189.69 235.897 1185.54 234.215 1182.37 226.405C1182.37 226.367 1182.35 226.33 1182.33 226.292C1182.07 225.414 1175.36 204.934 1145.8 208.092C1137.54 209.493 1132.06 208.167 1129.58 204.13C1125.82 198.001 1130.57 187.406 1134.46 182.155C1141.76 172.644 1173.19 146.053 1207.63 136.598C1208.4 136.392 1209.22 136.392 1209.99 136.598C1244.44 146.053 1275.86 172.644 1283.16 182.136C1287.07 187.387 1291.83 197.982 1288.06 204.13C1285.59 208.167 1280.12 209.493 1271.76 208.073C1242.26 204.915 1235.57 225.414 1235.31 226.292C1235.31 226.33 1235.29 226.367 1235.27 226.405C1232.04 234.346 1227.81 235.953 1224.8 235.897C1220.21 235.804 1216.25 231.693 1214.88 227.881C1214.66 227.245 1214.21 226.199 1213.67 224.891C1212.47 222.051 1210.66 217.715 1208.83 212.371C1207 217.715 1205.17 222.069 1203.99 224.91C1203.45 226.218 1203 227.264 1202.77 227.899C1201.39 231.711 1197.45 235.822 1192.85 235.916C1192.8 235.916 1192.74 235.916 1192.68 235.916L1192.66 235.897ZM1184.74 225.489C1186.83 230.628 1189.58 233.356 1192.66 233.356C1192.7 233.356 1192.74 233.356 1192.78 233.356C1196.12 233.281 1199.26 230.086 1200.36 227.021C1200.62 226.311 1201.05 225.246 1201.63 223.901C1203.04 220.556 1205.33 215.043 1207.48 208.279C1202.77 193.161 1198.96 172.083 1206.94 154.032C1207.26 153.303 1208.01 152.818 1208.81 152.818C1209.61 152.818 1210.36 153.285 1210.68 154.032C1218.66 172.083 1214.85 193.161 1210.14 208.279C1212.28 215.043 1214.58 220.537 1215.98 223.901C1216.55 225.246 1216.99 226.311 1217.26 227.021C1218.36 230.086 1221.5 233.281 1224.84 233.356C1224.88 233.356 1224.92 233.356 1224.95 233.356C1228.04 233.356 1230.78 230.646 1232.88 225.489C1233.34 224.069 1241.21 202.243 1272.1 205.569C1279.39 206.803 1283.98 205.868 1285.87 202.804C1288.79 198.057 1284.75 188.583 1281.11 183.687C1273.97 174.4 1243.15 148.351 1209.3 139.064C1208.98 138.971 1208.62 138.971 1208.29 139.064C1174.43 148.351 1143.61 174.4 1136.46 183.706C1132.83 188.602 1128.79 198.057 1131.71 202.804C1133.58 205.868 1138.19 206.803 1145.41 205.569C1176.35 202.243 1184.22 224.05 1184.7 225.47L1184.74 225.489ZM1208.81 156.125C1202.36 171.784 1204.89 189.817 1208.81 203.813C1212.73 189.798 1215.27 171.784 1208.81 156.125Z" fill="#0049BF"/>
<path d="M1211.59 251.127C1211.59 248.025 1210.57 245.166 1208.81 242.83C1207.05 245.166 1206.02 248.025 1206.02 251.127C1206.02 254.229 1207.05 257.088 1208.81 259.423C1210.57 257.088 1211.59 254.229 1211.59 251.127Z" fill="#0049BF"/>
<path d="M1138.16 208.409C1136.01 208.409 1133.99 207.98 1132.33 206.915C1128.38 204.411 1127.11 199.104 1128.53 191.125C1131.77 162.366 1110.76 155.845 1109.86 155.583C1109.83 155.583 1109.79 155.564 1109.75 155.546C1101.62 152.388 1099.98 148.239 1100.04 145.306C1100.13 140.783 1104.33 136.915 1108.26 135.57C1108.91 135.346 1109.98 134.916 1111.32 134.374C1114.22 133.215 1118.63 131.459 1124.05 129.684C1118.63 127.908 1114.22 126.152 1111.32 124.993C1109.98 124.452 1108.91 124.04 1108.26 123.797C1104.33 122.452 1100.13 118.584 1100.04 114.062C1099.98 111.128 1101.62 106.98 1109.75 103.822C1109.79 103.822 1109.83 103.803 1109.86 103.784C1110.76 103.523 1131.77 97.0012 1128.51 68.1681C1127.11 60.2638 1128.38 54.9568 1132.33 52.4529C1138.53 48.51 1149.54 53.1816 1155.01 57.0497C1164.77 64.1879 1192.01 94.8523 1201.69 128.488C1201.8 128.862 1201.86 129.254 1201.86 129.665C1201.86 130.076 1201.8 130.45 1201.69 130.824C1192.01 164.459 1164.75 195.123 1155.01 202.262C1150.99 205.102 1144 208.372 1138.12 208.372L1138.16 208.409ZM1110.65 153.172C1112.05 153.621 1134.46 161.301 1131.06 191.498C1129.82 198.45 1130.72 202.878 1133.69 204.784C1138.51 207.849 1148.4 203.887 1153.55 200.244C1163.06 193.273 1189.75 163.207 1199.26 130.17C1199.3 130.02 1199.32 129.871 1199.32 129.702C1199.32 129.534 1199.3 129.385 1199.24 129.235C1189.73 96.1977 1163.05 66.1313 1153.52 59.1613C1148.38 55.5361 1138.49 51.5746 1133.67 54.6391C1130.7 56.5265 1129.8 60.9738 1131.02 67.8317C1134.44 98.1037 1112.03 105.784 1110.63 106.232C1105.31 108.306 1102.52 110.997 1102.58 114.024C1102.63 117.276 1105.92 120.322 1109.06 121.406C1109.79 121.649 1110.87 122.078 1112.26 122.639C1115.69 124.003 1121.34 126.264 1128.29 128.357C1143.76 123.76 1165.34 120.042 1183.84 127.815C1184.59 128.133 1185.1 128.861 1185.1 129.684C1185.1 130.506 1184.61 131.235 1183.84 131.552C1165.34 139.326 1143.78 135.607 1128.29 131.01C1121.34 133.103 1115.69 135.364 1112.26 136.728C1110.87 137.27 1109.79 137.719 1109.06 137.962C1105.92 139.046 1102.63 142.091 1102.58 145.343C1102.52 148.37 1105.31 151.08 1110.63 153.135L1110.65 153.172ZM1132.98 129.702C1147.31 133.514 1165.68 135.944 1181.7 129.702C1165.7 123.461 1147.31 125.89 1132.98 129.702Z" fill="#0049BF"/>
<path d="M1084.41 132.412C1087.59 132.412 1090.52 131.403 1092.92 129.702C1090.52 128.002 1087.59 126.993 1084.41 126.993C1081.24 126.993 1078.3 128.002 1075.91 129.702C1078.3 131.403 1081.24 132.412 1084.41 132.412Z" fill="#0049BF"/>
<path d="M1279.48 208.409C1273.59 208.409 1266.62 205.139 1262.61 202.318C1252.85 195.179 1225.61 164.515 1215.93 130.88C1215.82 130.506 1215.76 130.113 1215.76 129.702C1215.76 129.291 1215.82 128.917 1215.93 128.525C1225.61 94.8896 1252.87 64.2252 1262.61 57.1057C1268.1 53.2189 1279.11 48.5473 1285.31 52.4902C1289.25 54.9941 1290.52 60.3011 1289.1 68.2802C1285.87 97.0385 1306.88 103.56 1307.77 103.822C1307.81 103.822 1307.85 103.84 1307.88 103.859C1316.01 107.017 1317.66 111.165 1317.6 114.099C1317.51 118.621 1313.3 122.489 1309.4 123.835C1308.74 124.059 1307.68 124.489 1306.31 125.031C1303.42 126.189 1299.01 127.946 1293.59 129.721C1299.01 131.496 1303.44 133.253 1306.31 134.411C1307.66 134.953 1308.73 135.364 1309.38 135.607C1313.3 136.953 1317.51 140.821 1317.58 145.343C1317.64 148.277 1315.99 152.425 1307.87 155.583C1307.83 155.583 1307.79 155.602 1307.75 155.62C1306.86 155.882 1285.85 162.403 1289.1 191.237C1290.51 199.141 1289.24 204.448 1285.29 206.952C1283.63 208.017 1281.61 208.447 1279.46 208.447L1279.48 208.409ZM1279.5 53.5366C1274.45 53.5366 1267.93 56.433 1264.08 59.1612C1254.57 66.1312 1227.89 96.1976 1218.38 129.235C1218.34 129.385 1218.3 129.534 1218.3 129.702C1218.3 129.871 1218.32 130.02 1218.36 130.169C1227.87 163.207 1254.55 193.273 1264.08 200.243C1269.22 203.869 1279.09 207.83 1283.93 204.766C1286.9 202.878 1287.8 198.431 1286.58 191.573C1283.16 161.301 1305.57 153.621 1306.97 153.172C1312.29 151.098 1315.08 148.407 1315.02 145.38C1314.97 142.129 1311.68 139.083 1308.54 137.999C1307.81 137.756 1306.73 137.326 1305.34 136.766C1301.9 135.402 1296.26 133.141 1289.31 131.048C1273.84 135.645 1252.26 139.363 1233.76 131.59C1233.01 131.272 1232.52 130.543 1232.52 129.721C1232.52 128.899 1233.01 128.17 1233.77 127.852C1252.26 120.079 1273.84 123.797 1289.33 128.394C1296.28 126.301 1301.92 124.04 1305.36 122.676C1306.74 122.134 1307.83 121.686 1308.56 121.443C1311.7 120.359 1314.99 117.313 1315.04 114.062C1315.1 111.035 1312.31 108.325 1306.99 106.27C1305.57 105.821 1283.18 98.141 1286.58 67.9438C1287.82 60.9924 1286.92 56.5638 1283.95 54.6578C1282.73 53.8916 1281.2 53.5553 1279.5 53.5553V53.5366ZM1235.94 129.702C1251.94 135.944 1270.32 133.514 1284.64 129.702C1270.31 125.89 1251.94 123.461 1235.94 129.702Z" fill="#0049BF"/>
<path d="M1333.22 126.993C1330.05 126.993 1327.11 128.002 1324.72 129.702C1327.11 131.403 1330.05 132.412 1333.22 132.412C1336.4 132.412 1339.33 131.403 1341.73 129.702C1339.33 128.002 1336.4 126.993 1333.22 126.993Z" fill="#0049BF"/>
<path d="M1457.64 122.957C1457.25 122.957 1456.85 122.901 1456.46 122.807C1422 113.352 1390.59 86.7611 1383.28 77.2684C1379.38 72.0175 1374.61 61.4223 1378.39 55.2745C1380.86 51.2382 1386.35 49.9115 1394.68 51.3317C1424.17 54.471 1430.88 33.9907 1431.14 33.1125C1431.14 33.0751 1431.16 33.0377 1431.18 33.0003C1434.35 25.1894 1438.5 23.5076 1441.47 23.5076C1441.53 23.5076 1441.59 23.5076 1441.64 23.5076C1446.26 23.6011 1450.2 27.7121 1451.56 31.5241C1451.79 32.1594 1452.24 33.2059 1452.78 34.5139C1453.97 37.3543 1455.79 41.6895 1457.62 47.0525C1459.45 41.7082 1461.28 37.3543 1462.46 34.5326C1463 33.2246 1463.45 32.1781 1463.67 31.5428C1465.06 27.7308 1469 23.6198 1473.6 23.5263C1476.6 23.489 1480.83 25.0586 1484.06 33.0191C1484.06 33.0564 1484.08 33.0938 1484.1 33.1312C1484.36 34.0094 1491.07 54.4897 1520.63 51.3317C1528.89 49.9302 1534.36 51.2569 1536.85 55.2932C1540.6 61.4223 1535.86 72.0175 1531.97 77.2684C1524.67 86.7798 1493.24 113.371 1458.8 122.826C1458.42 122.938 1458.01 122.975 1457.62 122.975L1457.64 122.957ZM1388.76 53.3124C1384.65 53.3124 1381.9 54.415 1380.57 56.6013C1377.66 61.3476 1381.7 70.8216 1385.34 75.7174C1392.48 85.0045 1423.29 111.053 1457.15 120.341C1457.47 120.434 1457.82 120.434 1458.16 120.341C1492.02 111.053 1522.83 85.0046 1529.99 75.6988C1533.62 70.8029 1537.65 61.3289 1534.74 56.6013C1532.85 53.5367 1528.25 52.6024 1521.04 53.8357C1490.11 57.1618 1482.21 35.3548 1481.74 33.9347C1479.61 28.7212 1476.81 25.993 1473.71 26.0677C1470.36 26.1425 1467.22 29.3378 1466.12 32.4024C1465.86 33.1125 1465.43 34.1776 1464.85 35.523C1463.45 38.8679 1461.15 44.3803 1459 51.1448C1463.71 66.2621 1467.52 87.3404 1459.54 105.391C1459.23 106.12 1458.48 106.606 1457.67 106.606C1456.87 106.606 1456.12 106.139 1455.81 105.391C1447.83 87.3404 1451.64 66.2621 1456.35 51.1448C1454.2 44.3803 1451.9 38.8866 1450.5 35.523C1449.94 34.1776 1449.49 33.1125 1449.23 32.4024C1448.13 29.3378 1444.99 26.1425 1441.64 26.0677C1438.52 25.993 1435.72 28.7212 1433.61 33.9347C1433.16 35.2614 1426.32 54.1907 1400.57 54.1907C1398.63 54.1907 1396.57 54.0786 1394.38 53.8544C1392.31 53.4993 1390.44 53.3311 1388.8 53.3311L1388.76 53.3124ZM1457.64 55.5922C1453.71 69.607 1451.17 87.6206 1457.64 103.28C1464.1 87.6206 1461.56 69.607 1457.64 55.5922Z" fill="#0049BF"/>
<path d="M1454.85 8.29694C1454.85 11.3989 1455.88 14.2579 1457.64 16.5937C1459.39 14.2579 1460.42 11.3989 1460.42 8.29694C1460.42 5.195 1459.39 2.33598 1457.64 0.000183105C1455.88 2.33598 1454.85 5.195 1454.85 8.29694Z" fill="#0049BF"/>
<path d="M1441.49 235.897C1438.52 235.897 1434.37 234.215 1431.2 226.405C1431.2 226.367 1431.18 226.33 1431.16 226.292C1430.9 225.414 1424.19 204.934 1394.63 208.092C1386.37 209.493 1380.89 208.167 1378.41 204.13C1374.65 198.001 1379.4 187.406 1383.28 182.155C1390.59 172.644 1422.02 146.053 1456.46 136.598C1457.23 136.392 1458.05 136.392 1458.81 136.598C1493.27 146.053 1524.68 172.644 1531.99 182.136C1535.9 187.387 1540.66 197.982 1536.89 204.13C1534.42 208.167 1528.94 209.493 1520.59 208.073C1491.09 204.915 1484.4 225.414 1484.13 226.292C1484.13 226.33 1484.12 226.367 1484.1 226.405C1480.86 234.346 1476.64 235.953 1473.63 235.897C1469.02 235.804 1465.07 231.693 1463.71 227.881C1463.49 227.245 1463.04 226.199 1462.5 224.891C1461.3 222.051 1459.49 217.715 1457.66 212.371C1455.82 217.715 1453.99 222.069 1452.82 224.91C1452.27 226.218 1451.83 227.264 1451.6 227.899C1450.22 231.711 1446.28 235.822 1441.68 235.916C1441.62 235.916 1441.57 235.916 1441.51 235.916L1441.49 235.897ZM1433.55 225.489C1435.64 230.628 1438.39 233.356 1441.47 233.356C1441.51 233.356 1441.55 233.356 1441.59 233.356C1444.93 233.281 1448.07 230.086 1449.17 227.021C1449.43 226.311 1449.86 225.246 1450.44 223.901C1451.84 220.556 1454.14 215.043 1456.29 208.279C1451.58 193.161 1447.77 172.083 1455.75 154.032C1456.07 153.303 1456.82 152.818 1457.62 152.818C1458.42 152.818 1459.17 153.285 1459.49 154.032C1467.47 172.083 1463.65 193.161 1458.95 208.279C1461.09 215.043 1463.39 220.537 1464.79 223.901C1465.35 225.246 1465.8 226.311 1466.06 227.021C1467.17 230.086 1470.31 233.281 1473.65 233.356C1473.69 233.356 1473.73 233.356 1473.76 233.356C1476.85 233.356 1479.59 230.646 1481.69 225.489C1482.15 224.069 1490.02 202.243 1520.91 205.569C1528.2 206.803 1532.79 205.868 1534.68 202.804C1537.6 198.057 1533.56 188.583 1529.92 183.687C1522.78 174.4 1491.96 148.351 1458.1 139.064C1457.79 138.971 1457.43 138.971 1457.1 139.064C1423.24 148.351 1392.42 174.4 1385.26 183.706C1381.64 188.602 1377.6 198.057 1380.52 202.804C1382.39 205.868 1387 206.803 1394.22 205.569C1425.16 202.243 1433.03 224.05 1433.51 225.47L1433.55 225.489ZM1457.64 156.125C1451.19 171.784 1453.71 189.817 1457.64 203.813C1461.56 189.798 1464.1 171.784 1457.64 156.125Z" fill="#0049BF"/>
<path d="M1460.4 251.127C1460.4 248.025 1459.38 245.166 1457.62 242.83C1455.86 245.166 1454.83 248.025 1454.83 251.127C1454.83 254.229 1455.86 257.088 1457.62 259.423C1459.38 257.088 1460.4 254.229 1460.4 251.127Z" fill="#0049BF"/>
<path d="M1386.97 208.409C1384.82 208.409 1382.8 207.98 1381.14 206.915C1377.19 204.411 1375.92 199.104 1377.34 191.125C1380.57 162.366 1359.57 155.845 1358.67 155.583C1358.64 155.583 1358.6 155.564 1358.58 155.546C1350.45 152.388 1348.81 148.239 1348.86 145.306C1348.96 140.783 1353.16 136.915 1357.09 135.57C1357.74 135.346 1358.81 134.916 1360.15 134.374C1363.05 133.215 1367.46 131.459 1372.88 129.684C1367.46 127.908 1363.05 126.152 1360.15 124.993C1358.81 124.452 1357.74 124.04 1357.07 123.797C1353.14 122.452 1348.94 118.584 1348.85 114.062C1348.79 111.128 1350.43 106.98 1358.56 103.822C1358.6 103.822 1358.64 103.803 1358.67 103.784C1359.57 103.523 1380.57 97.0012 1377.32 68.1681C1375.92 60.2638 1377.19 54.9568 1381.14 52.4529C1387.34 48.51 1398.35 53.1816 1403.82 57.0497C1413.57 64.1879 1440.82 94.8523 1450.5 128.488C1450.61 128.862 1450.67 129.254 1450.67 129.665C1450.67 130.076 1450.61 130.45 1450.5 130.824C1440.82 164.459 1413.56 195.123 1403.82 202.262C1399.8 205.102 1392.81 208.372 1386.93 208.372L1386.97 208.409ZM1359.46 153.172C1360.86 153.621 1383.27 161.301 1379.86 191.498C1378.63 198.45 1379.53 202.878 1382.5 204.784C1387.32 207.849 1397.21 203.887 1402.36 200.244C1411.87 193.273 1438.56 163.207 1448.07 130.17C1448.11 130.02 1448.13 129.871 1448.13 129.702C1448.13 129.534 1448.11 129.385 1448.05 129.235C1438.54 96.1977 1411.86 66.1313 1402.33 59.1613C1397.19 55.5361 1387.3 51.5746 1382.48 54.6391C1379.51 56.5265 1378.61 60.9738 1379.83 67.8317C1383.25 98.1037 1360.84 105.784 1359.44 106.232C1354.11 108.306 1351.33 110.997 1351.39 114.024C1351.44 117.276 1354.73 120.322 1357.87 121.406C1358.6 121.649 1359.68 122.078 1361.07 122.639C1364.5 124.003 1370.15 126.264 1377.1 128.357C1392.57 123.76 1414.15 120.042 1432.65 127.815C1433.4 128.133 1433.89 128.861 1433.89 129.684C1433.89 130.506 1433.4 131.235 1432.64 131.552C1414.14 139.326 1392.57 135.607 1377.08 131.01C1370.13 133.103 1364.49 135.364 1361.05 136.728C1359.66 137.27 1358.58 137.719 1357.85 137.962C1354.71 139.046 1351.42 142.091 1351.37 145.343C1351.31 148.37 1354.1 151.08 1359.42 153.135L1359.46 153.172ZM1381.79 129.702C1396.12 133.514 1414.49 135.944 1430.5 129.702C1414.51 123.461 1396.12 125.89 1381.79 129.702Z" fill="#0049BF"/>
<path d="M1333.22 132.412C1336.4 132.412 1339.33 131.403 1341.73 129.702C1339.33 128.002 1336.4 126.993 1333.22 126.993C1330.05 126.993 1327.11 128.002 1324.72 129.702C1327.11 131.403 1330.05 132.412 1333.22 132.412Z" fill="#0049BF"/>
<path d="M1528.29 208.409C1522.4 208.409 1515.43 205.139 1511.42 202.318C1501.66 195.179 1474.42 164.515 1464.74 130.88C1464.63 130.506 1464.57 130.113 1464.57 129.702C1464.57 129.291 1464.63 128.917 1464.74 128.525C1474.42 94.8896 1501.68 64.2252 1511.42 57.1057C1516.91 53.2189 1527.92 48.5473 1534.12 52.4902C1538.06 54.9941 1539.33 60.3011 1537.91 68.2802C1534.68 97.0385 1555.69 103.56 1556.58 103.822C1556.62 103.822 1556.66 103.84 1556.69 103.859C1564.82 107.017 1566.47 111.165 1566.41 114.099C1566.32 118.621 1562.11 122.489 1558.21 123.835C1557.55 124.059 1556.49 124.489 1555.12 125.031C1552.23 126.189 1547.82 127.946 1542.4 129.721C1547.82 131.496 1552.25 133.253 1555.12 134.411C1556.47 134.953 1557.54 135.364 1558.19 135.607C1562.11 136.953 1566.32 140.821 1566.39 145.343C1566.45 148.277 1564.8 152.425 1556.68 155.583C1556.64 155.583 1556.6 155.602 1556.56 155.62C1555.67 155.882 1534.66 162.403 1537.91 191.237C1539.32 199.141 1538.05 204.448 1534.1 206.952C1532.44 208.017 1530.42 208.447 1528.27 208.447L1528.29 208.409ZM1528.31 53.5366C1523.26 53.5366 1516.74 56.433 1512.89 59.1612C1503.38 66.1312 1476.7 96.1976 1467.19 129.235C1467.15 129.385 1467.11 129.534 1467.11 129.702C1467.11 129.871 1467.13 130.02 1467.17 130.169C1476.68 163.207 1503.36 193.273 1512.89 200.243C1518.03 203.869 1527.9 207.83 1532.74 204.766C1535.71 202.878 1536.61 198.431 1535.39 191.573C1531.97 161.301 1554.38 153.621 1555.8 153.172C1561.12 151.098 1563.91 148.407 1563.85 145.38C1563.8 142.129 1560.51 139.083 1557.37 137.999C1556.64 137.756 1555.55 137.326 1554.17 136.766C1550.73 135.402 1545.09 133.141 1538.14 131.048C1522.67 135.645 1501.08 139.363 1482.58 131.59C1481.84 131.272 1481.35 130.543 1481.35 129.721C1481.35 128.899 1481.84 128.17 1482.6 127.852C1501.08 120.079 1522.67 123.797 1538.16 128.394C1545.11 126.301 1550.75 124.04 1554.19 122.676C1555.57 122.134 1556.66 121.686 1557.39 121.443C1560.52 120.359 1563.81 117.313 1563.87 114.062C1563.93 111.035 1561.14 108.325 1555.82 106.27C1554.4 105.821 1532.01 98.141 1535.41 67.9438C1536.64 60.9924 1535.75 56.5638 1532.78 54.6578C1531.56 53.8916 1530.03 53.5553 1528.33 53.5553L1528.31 53.5366ZM1484.77 129.702C1500.77 135.944 1519.15 133.514 1533.47 129.702C1519.13 125.89 1500.77 123.461 1484.77 129.702Z" fill="#0049BF"/>
<path d="M1582.05 126.993C1578.87 126.993 1575.94 128.002 1573.55 129.702C1575.94 131.403 1578.87 132.412 1582.05 132.412C1585.23 132.412 1588.16 131.403 1590.55 129.702C1588.16 128.002 1585.23 126.993 1582.05 126.993Z" fill="#0049BF"/>
<path d="M1706.45 122.957C1706.05 122.957 1705.66 122.901 1705.27 122.807C1670.81 113.352 1639.4 86.7611 1632.09 77.2684C1628.19 72.0175 1623.42 61.4223 1627.2 55.2745C1629.66 51.2382 1635.16 49.9115 1643.49 51.3317C1672.98 54.471 1679.69 33.9907 1679.95 33.1125C1679.95 33.0751 1679.97 33.0377 1679.99 33.0003C1683.16 25.1894 1687.31 23.5076 1690.28 23.5076C1690.34 23.5076 1690.39 23.5076 1690.45 23.5076C1695.05 23.6011 1699.01 27.7121 1700.37 31.5241C1700.6 32.1594 1701.05 33.2059 1701.59 34.5139C1702.78 37.3543 1704.6 41.6895 1706.43 47.0525C1708.26 41.7082 1710.09 37.3543 1711.27 34.5326C1711.81 33.2246 1712.26 32.1781 1712.48 31.5428C1713.86 27.7308 1717.81 23.6198 1722.4 23.5263C1725.41 23.489 1729.64 25.0586 1732.87 33.0191C1732.87 33.0564 1732.89 33.0938 1732.91 33.1312C1733.17 34.0094 1739.88 54.4897 1769.44 51.3317C1777.7 49.9302 1783.17 51.2569 1785.66 55.2932C1789.41 61.4223 1784.67 72.0175 1780.78 77.2684C1773.47 86.7798 1742.04 113.371 1707.6 122.826C1707.23 122.938 1706.84 122.975 1706.43 122.975L1706.45 122.957ZM1637.57 53.3124C1633.46 53.3124 1630.71 54.415 1629.38 56.6013C1626.47 61.3476 1630.5 70.8216 1634.15 75.7174C1641.29 85.0045 1672.1 111.053 1705.96 120.341C1706.28 120.434 1706.63 120.434 1706.97 120.341C1740.83 111.053 1771.64 85.0046 1778.8 75.6988C1782.43 70.8029 1786.46 61.3289 1783.55 56.6013C1781.66 53.5367 1777.06 52.6024 1769.85 53.8357C1738.92 57.1618 1731.04 35.3548 1730.55 33.9347C1728.42 28.7212 1725.62 25.993 1722.52 26.0677C1719.17 26.1425 1716.03 29.3378 1714.93 32.4024C1714.67 33.1125 1714.24 34.1776 1713.66 35.523C1712.26 38.8679 1709.96 44.3803 1707.81 51.1448C1712.52 66.2621 1716.33 87.3404 1708.35 105.391C1708.03 106.12 1707.29 106.606 1706.48 106.606C1705.68 106.606 1704.93 106.139 1704.62 105.391C1696.64 87.3404 1700.45 66.2621 1705.16 51.1448C1703.01 44.3803 1700.71 38.8866 1699.31 35.523C1698.75 34.1776 1698.3 33.1125 1698.04 32.4024C1696.93 29.3378 1693.8 26.1425 1690.45 26.0677C1687.33 25.993 1684.53 28.7212 1682.42 33.9347C1681.97 35.2614 1675.13 54.1907 1649.38 54.1907C1647.43 54.1907 1645.36 54.0786 1643.19 53.8544C1641.12 53.4993 1639.25 53.3311 1637.61 53.3311L1637.57 53.3124ZM1706.45 55.5922C1702.52 69.607 1699.98 87.6206 1706.45 103.28C1712.91 87.6206 1710.37 69.607 1706.45 55.5922Z" fill="#0049BF"/>
<path d="M1703.68 8.29694C1703.68 11.3989 1704.71 14.2579 1706.47 16.5937C1708.22 14.2579 1709.25 11.3989 1709.25 8.29694C1709.25 5.195 1708.22 2.33598 1706.47 0.000183105C1704.71 2.33598 1703.68 5.195 1703.68 8.29694Z" fill="#0049BF"/>
<path d="M1690.3 235.897C1687.33 235.897 1683.18 234.215 1680.01 226.405C1680.01 226.367 1679.99 226.33 1679.97 226.292C1679.71 225.414 1673 204.934 1643.44 208.092C1635.18 209.493 1629.7 208.167 1627.22 204.13C1623.46 198.001 1628.21 187.406 1632.09 182.155C1639.4 172.644 1670.83 146.053 1705.27 136.598C1706.04 136.392 1706.86 136.392 1707.62 136.598C1742.08 146.053 1773.49 172.644 1780.8 182.136C1784.71 187.387 1789.47 197.982 1785.7 204.13C1783.23 208.167 1777.75 209.493 1769.4 208.073C1739.9 204.915 1733.21 225.414 1732.94 226.292C1732.94 226.33 1732.93 226.367 1732.91 226.405C1729.67 234.346 1725.45 235.953 1722.44 235.897C1717.83 235.804 1713.88 231.693 1712.52 227.881C1712.3 227.245 1711.85 226.199 1711.31 224.891C1710.11 222.051 1708.3 217.715 1706.47 212.371C1704.63 217.715 1702.8 222.069 1701.63 224.91C1701.08 226.218 1700.63 227.264 1700.41 227.899C1699.03 231.711 1695.09 235.822 1690.49 235.916C1690.43 235.916 1690.38 235.916 1690.32 235.916L1690.3 235.897ZM1682.38 225.489C1684.47 230.628 1687.22 233.356 1690.3 233.356C1690.34 233.356 1690.38 233.356 1690.41 233.356C1693.76 233.281 1696.9 230.086 1698 227.021C1698.26 226.311 1698.69 225.246 1699.27 223.901C1700.67 220.556 1702.97 215.043 1705.12 208.279C1700.41 193.161 1696.6 172.083 1704.58 154.032C1704.9 153.303 1705.64 152.818 1706.45 152.818C1707.25 152.818 1708 153.285 1708.32 154.032C1716.29 172.083 1712.48 193.161 1707.77 208.279C1709.92 215.043 1712.22 220.537 1713.62 223.901C1714.18 225.246 1714.63 226.311 1714.89 227.021C1716 230.086 1719.13 233.281 1722.48 233.356C1722.52 233.356 1722.55 233.356 1722.59 233.356C1725.67 233.356 1728.42 230.646 1730.51 225.489C1730.98 224.069 1738.85 202.243 1769.74 205.569C1777.02 206.803 1781.62 205.868 1783.51 202.804C1786.42 198.057 1782.39 188.583 1778.74 183.687C1771.61 174.4 1740.79 148.351 1706.93 139.064C1706.61 138.971 1706.26 138.971 1705.92 139.064C1672.06 148.351 1641.25 174.4 1634.09 183.706C1630.47 188.602 1626.43 198.057 1629.35 202.804C1631.21 205.868 1635.83 206.803 1643.04 205.569C1673.99 202.243 1681.86 224.05 1682.34 225.47L1682.38 225.489ZM1706.45 156.125C1700 171.784 1702.52 189.817 1706.45 203.813C1710.37 189.798 1712.91 171.784 1706.45 156.125Z" fill="#0049BF"/>
<path d="M1709.23 251.127C1709.23 248.025 1708.2 245.166 1706.45 242.83C1704.69 245.166 1703.66 248.025 1703.66 251.127C1703.66 254.229 1704.69 257.088 1706.45 259.423C1708.2 257.088 1709.23 254.229 1709.23 251.127Z" fill="#0049BF"/>
<path d="M1635.79 208.409C1633.64 208.409 1631.63 207.98 1629.96 206.915C1626.02 204.411 1624.75 199.104 1626.17 191.125C1629.4 162.366 1608.4 155.845 1607.5 155.583C1607.46 155.583 1607.43 155.564 1607.41 155.546C1599.28 152.388 1597.64 148.239 1597.69 145.306C1597.79 140.783 1601.99 136.915 1605.91 135.57C1606.57 135.346 1607.63 134.916 1608.98 134.374C1611.87 133.215 1616.28 131.459 1621.7 129.684C1616.28 127.908 1611.87 126.152 1608.98 124.993C1607.63 124.452 1606.57 124.04 1605.9 123.797C1601.97 122.452 1597.77 118.584 1597.67 114.062C1597.62 111.128 1599.26 106.98 1607.39 103.822C1607.43 103.822 1607.46 103.803 1607.5 103.784C1608.4 103.523 1629.4 97.0012 1626.15 68.1681C1624.75 60.2638 1626.02 54.9568 1629.96 52.4529C1636.17 48.51 1647.17 53.1816 1652.65 57.0497C1662.4 64.1879 1689.65 94.8523 1699.33 128.488C1699.44 128.862 1699.5 129.254 1699.5 129.665C1699.5 130.076 1699.44 130.45 1699.33 130.824C1689.65 164.459 1662.38 195.123 1652.65 202.262C1648.63 205.102 1641.64 208.372 1635.76 208.372L1635.79 208.409ZM1608.29 153.172C1609.69 153.621 1632.09 161.301 1628.69 191.498C1627.46 198.45 1628.36 202.878 1631.33 204.784C1636.15 207.849 1646.03 203.887 1651.19 200.244C1660.7 193.273 1687.39 163.207 1696.9 130.17C1696.94 130.02 1696.95 129.871 1696.95 129.702C1696.95 129.534 1696.94 129.385 1696.88 129.235C1687.37 96.1977 1660.68 66.1313 1651.15 59.1613C1646.01 55.5361 1636.13 51.5746 1631.31 54.6391C1628.34 56.5265 1627.44 60.9738 1628.65 67.8317C1632.07 98.1037 1609.67 105.784 1608.25 106.232C1602.92 108.306 1600.14 110.997 1600.2 114.024C1600.25 117.276 1603.54 120.322 1606.68 121.406C1607.41 121.649 1608.49 122.078 1609.88 122.639C1613.31 124.003 1618.96 126.264 1625.91 128.357C1641.38 123.76 1662.96 120.042 1681.46 127.815C1682.21 128.133 1682.7 128.861 1682.7 129.684C1682.7 130.506 1682.21 131.235 1681.44 131.552C1662.94 139.326 1641.38 135.607 1625.89 131.01C1618.94 133.103 1613.29 135.364 1609.86 136.728C1608.47 137.27 1607.39 137.719 1606.66 137.962C1603.52 139.046 1600.23 142.091 1600.18 145.343C1600.12 148.37 1602.91 151.08 1608.23 153.135L1608.29 153.172ZM1630.62 129.702C1644.95 133.514 1663.32 135.944 1679.31 129.702C1663.32 123.461 1644.93 125.89 1630.62 129.702Z" fill="#0049BF"/>
<path d="M1582.05 132.412C1585.23 132.412 1588.16 131.403 1590.55 129.702C1588.16 128.002 1585.23 126.993 1582.05 126.993C1578.87 126.993 1575.94 128.002 1573.55 129.702C1575.94 131.403 1578.87 132.412 1582.05 132.412Z" fill="#0049BF"/>
<path d="M1777.12 208.409C1771.23 208.409 1764.26 205.139 1760.24 202.318C1750.49 195.179 1723.25 164.515 1713.57 130.88C1713.45 130.506 1713.4 130.113 1713.4 129.702C1713.4 129.291 1713.45 128.917 1713.57 128.525C1723.25 94.8896 1750.51 64.2252 1760.24 57.1057C1765.74 53.2189 1776.74 48.5473 1782.95 52.4902C1786.89 54.9941 1788.16 60.3011 1786.74 68.2802C1783.51 97.0385 1804.51 103.56 1805.41 103.822C1805.45 103.822 1805.48 103.84 1805.5 103.859C1813.63 107.017 1815.28 111.165 1815.22 114.099C1815.13 118.621 1810.92 122.489 1807.02 123.835C1806.36 124.059 1805.3 124.489 1803.93 125.031C1801.04 126.189 1796.63 127.946 1791.21 129.721C1796.63 131.496 1801.06 133.253 1803.93 134.411C1805.28 134.953 1806.34 135.364 1807 135.607C1810.92 136.953 1815.13 140.821 1815.2 145.343C1815.26 148.277 1813.61 152.425 1805.48 155.583C1805.45 155.583 1805.41 155.602 1805.37 155.62C1804.48 155.882 1783.47 162.403 1786.72 191.237C1788.12 199.141 1786.85 204.448 1782.93 206.952C1781.27 208.017 1779.25 208.447 1777.1 208.447L1777.12 208.409ZM1777.14 53.5366C1772.09 53.5366 1765.57 56.433 1761.72 59.1612C1752.21 66.1312 1725.53 96.1976 1716.01 129.235C1715.98 129.385 1715.94 129.534 1715.94 129.702C1715.94 129.871 1715.96 130.02 1716 130.169C1725.51 163.207 1752.19 193.273 1761.72 200.243C1766.86 203.869 1776.73 207.83 1781.57 204.766C1784.54 202.878 1785.43 198.431 1784.22 191.573C1780.8 161.301 1803.2 153.621 1804.62 153.172C1809.95 151.098 1812.73 148.407 1812.68 145.38C1812.62 142.129 1809.33 139.083 1806.19 137.999C1805.47 137.756 1804.38 137.326 1803 136.766C1799.56 135.402 1793.92 133.141 1786.97 131.048C1771.49 135.645 1749.91 139.363 1731.41 131.59C1730.66 131.272 1730.18 130.543 1730.18 129.721C1730.18 128.899 1730.66 128.17 1731.43 127.852C1749.91 120.079 1771.49 123.797 1786.98 128.394C1793.94 126.301 1799.58 124.04 1803.02 122.676C1804.4 122.134 1805.48 121.686 1806.21 121.443C1809.35 120.359 1812.64 117.313 1812.7 114.062C1812.75 111.035 1809.97 108.325 1804.64 106.27C1803.22 105.821 1780.84 98.141 1784.24 67.9438C1785.47 60.9924 1784.57 56.5638 1781.6 54.6578C1780.39 53.8916 1778.86 53.5553 1777.16 53.5553L1777.14 53.5366ZM1733.58 129.702C1749.57 135.944 1767.96 133.514 1782.28 129.702C1767.94 125.89 1749.57 123.461 1733.58 129.702Z" fill="#0049BF"/>
<path d="M1830.86 126.993C1827.68 126.993 1824.75 128.002 1822.36 129.702C1824.75 131.403 1827.68 132.412 1830.86 132.412C1834.04 132.412 1836.97 131.403 1839.36 129.702C1836.97 128.002 1834.04 126.993 1830.86 126.993Z" fill="#0049BF"/>
<path d="M1955.27 122.957C1954.88 122.957 1954.49 122.901 1954.1 122.807C1919.64 113.352 1888.23 86.7611 1880.92 77.2684C1877.02 72.0175 1872.25 61.4223 1876.02 55.2745C1878.49 51.2382 1883.99 49.9115 1892.32 51.3317C1921.81 54.471 1928.51 33.9907 1928.78 33.1125C1928.78 33.0751 1928.8 33.0377 1928.81 33.0003C1931.99 25.1894 1936.14 23.5076 1939.11 23.5076C1939.17 23.5076 1939.22 23.5076 1939.28 23.5076C1943.89 23.6011 1947.84 27.7121 1949.2 31.5241C1949.43 32.1594 1949.87 33.2059 1950.42 34.5139C1951.61 37.3543 1953.42 41.6895 1955.26 47.0525C1957.09 41.7082 1958.92 37.3543 1960.09 34.5326C1960.64 33.2246 1961.09 32.1781 1961.31 31.5428C1962.69 27.7308 1966.64 23.6198 1971.23 23.5263C1974.24 23.489 1978.46 25.0586 1981.7 33.0191C1981.7 33.0564 1981.72 33.0938 1981.73 33.1312C1982 34.0094 1988.7 54.4897 2018.27 51.3317C2026.53 49.9302 2032 51.2569 2034.49 55.2932C2038.24 61.4223 2033.5 72.0175 2029.61 77.2684C2022.3 86.7798 1990.87 113.371 1956.43 122.826C1956.06 122.938 1955.65 122.975 1955.26 122.975L1955.27 122.957ZM1886.4 53.3124C1882.28 53.3124 1879.54 54.415 1878.21 56.6013C1875.3 61.3476 1879.33 70.8216 1882.98 75.7174C1890.11 85.0045 1920.93 111.053 1954.79 120.341C1955.11 120.434 1955.46 120.434 1955.8 120.341C1989.66 111.053 2020.47 85.0046 2027.63 75.6988C2031.25 70.8029 2035.29 61.3289 2032.37 56.6013C2030.49 53.5367 2025.89 52.6024 2018.68 53.8357C1987.75 57.1618 1979.85 35.3548 1979.38 33.9347C1977.25 28.7212 1974.45 25.993 1971.34 26.0677C1968 26.1425 1964.86 29.3378 1963.76 32.4024C1963.5 33.1125 1963.07 34.1776 1962.49 35.523C1961.09 38.8679 1958.79 44.3803 1956.64 51.1448C1961.35 66.2621 1965.16 87.3404 1957.18 105.391C1956.86 106.12 1956.11 106.606 1955.31 106.606C1954.51 106.606 1953.76 106.139 1953.44 105.391C1945.46 87.3404 1949.28 66.2621 1953.98 51.1448C1951.84 44.3803 1949.54 38.8866 1948.14 35.523C1947.58 34.1776 1947.13 33.1125 1946.87 32.4024C1945.76 29.3378 1942.62 26.1425 1939.28 26.0677C1936.16 25.993 1933.35 28.7212 1931.24 33.9347C1930.79 35.2614 1923.96 54.1907 1898.21 54.1907C1896.26 54.1907 1894.19 54.0786 1892.02 53.8544C1889.95 53.4993 1888.08 53.3311 1886.43 53.3311L1886.4 53.3124ZM1955.27 55.5922C1951.35 69.607 1948.81 87.6206 1955.27 103.28C1961.74 87.6206 1959.2 69.607 1955.27 55.5922Z" fill="#0049BF"/>
<path d="M1939.11 235.897C1936.14 235.897 1931.99 234.215 1928.81 226.405C1928.81 226.367 1928.8 226.33 1928.78 226.292C1928.52 225.414 1921.81 204.934 1892.25 208.092C1883.99 209.493 1878.51 208.167 1876.03 204.13C1872.27 198.001 1877.02 187.406 1880.9 182.155C1888.21 172.644 1919.64 146.053 1954.08 136.598C1954.84 136.392 1955.67 136.392 1956.43 136.598C1990.89 146.053 2022.3 172.644 2029.61 182.136C2033.51 187.387 2038.28 197.982 2034.5 204.13C2032.04 208.167 2026.56 209.493 2018.21 208.073C1988.7 204.915 1982.01 225.414 1981.75 226.292C1981.75 226.33 1981.73 226.367 1981.72 226.405C1978.48 234.346 1974.26 235.953 1971.25 235.897C1966.64 235.804 1962.69 231.693 1961.33 227.881C1961.1 227.245 1960.66 226.199 1960.11 224.891C1958.92 222.051 1957.11 217.715 1955.27 212.371C1953.44 217.715 1951.61 222.069 1950.43 224.91C1949.89 226.218 1949.44 227.264 1949.22 227.899C1947.84 231.711 1943.89 235.822 1939.3 235.916C1939.24 235.916 1939.19 235.916 1939.13 235.916L1939.11 235.897ZM1931.19 225.489C1933.28 230.628 1936.03 233.356 1939.11 233.356C1939.15 233.356 1939.19 233.356 1939.22 233.356C1942.57 233.281 1945.71 230.086 1946.81 227.021C1947.07 226.311 1947.5 225.246 1948.08 223.901C1949.48 220.556 1951.78 215.043 1953.93 208.279C1949.22 193.161 1945.41 172.083 1953.39 154.032C1953.7 153.303 1954.45 152.818 1955.26 152.818C1956.06 152.818 1956.81 153.285 1957.12 154.032C1965.1 172.083 1961.29 193.161 1956.58 208.279C1958.73 215.043 1961.03 220.537 1962.43 223.901C1962.99 225.246 1963.44 226.311 1963.7 227.021C1964.8 230.086 1967.94 233.281 1971.29 233.356C1971.33 233.356 1971.36 233.356 1971.4 233.356C1974.48 233.356 1977.23 230.646 1979.32 225.489C1979.79 224.069 1987.66 202.243 2018.55 205.569C2025.83 206.803 2030.43 205.868 2032.32 202.804C2035.23 198.057 2031.2 188.583 2027.55 183.687C2020.42 174.4 1989.6 148.351 1955.74 139.064C1955.42 138.971 1955.07 138.971 1954.73 139.064C1920.87 148.351 1890.06 174.4 1882.9 183.706C1879.28 188.602 1875.24 198.057 1878.16 202.804C1880.02 205.868 1884.64 206.803 1891.85 205.569C1922.8 202.243 1930.66 224.05 1931.15 225.47L1931.19 225.489ZM1955.27 156.125C1948.83 171.784 1951.35 189.817 1955.27 203.813C1959.2 189.798 1961.74 171.784 1955.27 156.125Z" fill="#0049BF"/>
<path d="M1884.6 208.409C1882.45 208.409 1880.44 207.98 1878.77 206.915C1874.83 204.411 1873.56 199.104 1874.98 191.125C1878.21 162.366 1857.21 155.845 1856.31 155.583C1856.27 155.583 1856.24 155.564 1856.2 155.546C1848.07 152.388 1846.43 148.239 1846.48 145.306C1846.58 140.783 1850.78 136.915 1854.7 135.57C1855.36 135.346 1856.42 134.916 1857.77 134.374C1860.67 133.215 1865.08 131.459 1870.49 129.684C1865.08 127.908 1860.67 126.152 1857.77 124.993C1856.42 124.452 1855.36 124.04 1854.7 123.797C1850.78 122.452 1846.58 118.584 1846.48 114.062C1846.43 111.128 1848.07 106.98 1856.2 103.822C1856.24 103.822 1856.27 103.803 1856.31 103.784C1857.21 103.523 1878.21 97.0012 1874.96 68.1681C1873.56 60.2638 1874.83 54.9568 1878.77 52.4529C1884.98 48.51 1895.98 53.1816 1901.46 57.0497C1911.21 64.1879 1938.46 94.8523 1948.14 128.488C1948.25 128.862 1948.3 129.254 1948.3 129.665C1948.3 130.076 1948.25 130.45 1948.14 130.824C1938.46 164.459 1911.19 195.123 1901.46 202.262C1897.44 205.102 1890.45 208.372 1884.57 208.372L1884.6 208.409ZM1857.1 153.172C1858.5 153.621 1880.9 161.301 1877.5 191.498C1876.27 198.45 1877.17 202.878 1880.14 204.784C1884.96 207.849 1894.84 203.887 1900 200.244C1909.51 193.273 1936.2 163.207 1945.71 130.17C1945.74 130.02 1945.76 129.871 1945.76 129.702C1945.76 129.534 1945.74 129.385 1945.69 129.235C1936.18 96.1977 1909.49 66.1313 1899.96 59.1613C1894.82 55.5361 1884.94 51.5746 1880.12 54.6391C1877.15 56.5265 1876.25 60.9738 1877.46 67.8317C1880.88 98.1037 1858.48 105.784 1857.08 106.232C1851.75 108.306 1848.97 110.997 1849.02 114.024C1849.08 117.276 1852.37 120.322 1855.51 121.406C1856.24 121.649 1857.32 122.078 1858.7 122.639C1862.14 124.003 1867.78 126.264 1874.74 128.357C1890.21 123.76 1911.79 120.042 1930.29 127.815C1931.04 128.133 1931.54 128.861 1931.54 129.684C1931.54 130.506 1931.06 131.235 1930.29 131.552C1911.79 139.326 1890.23 135.607 1874.74 131.01C1867.78 133.103 1862.14 135.364 1858.7 136.728C1857.32 137.27 1856.24 137.719 1855.51 137.962C1852.37 139.046 1849.08 142.091 1849.02 145.343C1848.97 148.37 1851.75 151.08 1857.08 153.135L1857.1 153.172ZM1879.43 129.702C1893.76 133.514 1912.13 135.944 1928.14 129.702C1912.15 123.461 1893.76 125.89 1879.43 129.702Z" fill="#0049BF"/>
<path d="M1830.86 132.412C1834.04 132.412 1836.97 131.403 1839.36 129.702C1836.97 128.002 1834.04 126.993 1830.86 126.993C1827.68 126.993 1824.75 128.002 1822.36 129.702C1824.75 131.403 1827.68 132.412 1830.86 132.412Z" fill="#0049BF"/>
</svg>
